<svg id="Ebene_1" data-name="Ebene 1" xmlns="http://www.w3.org/2000/svg" xmlns:xlink="http://www.w3.org/1999/xlink" viewBox="0 0 1597 694"><defs><style>.cls-1{fill:none;}.cls-2{fill:#002a48;stroke:#002a48;stroke-miterlimit:10;stroke-width:6px;}.cls-3{fill:url(#Neues_Muster_3);}.cls-4{fill:#ffed00;}</style><pattern id="Neues_Muster_3" data-name="Neues Muster 3" width="20" height="20" patternTransform="translate(-1093.56 -906.03) scale(6.87)" patternUnits="userSpaceOnUse" viewBox="0 0 20 20"><rect class="cls-1" width="20" height="20"/><line class="cls-2" x1="6" y1="54" x2="54" y2="6"/><line class="cls-2" x1="-14" y1="54" x2="34" y2="6"/><line class="cls-2" x1="-34" y1="54" x2="14" y2="6"/><line class="cls-2" x1="6" y1="34" x2="54" y2="-14"/><line class="cls-2" x1="-14" y1="34" x2="34" y2="-14"/><line class="cls-2" x1="-34" y1="34" x2="14" y2="-14"/><line class="cls-2" x1="6" y1="14" x2="54" y2="-34"/><line class="cls-2" x1="-14" y1="14" x2="34" y2="-34"/><line class="cls-2" x1="-34" y1="14" x2="14" y2="-34"/></pattern></defs><title>Zeichenfläche 1@e</title><rect class="cls-3" x="245" width="1352" height="694"/><path class="cls-4" d="M295.61,559q26.07,0,43.05-4.35t27.26-11.85q10.26-7.5,14.22-17.77a63.41,63.41,0,0,0,3.95-22.91q0-26.85-25.28-44.64t-86.9-38.31q-26.87-9.48-53.72-21.73A197.45,197.45,0,0,1,170,366.65a146.93,146.93,0,0,1-34.76-45q-13.44-26.46-13.43-64.38T136,188.9a145.93,145.93,0,0,1,40.29-51.74q26.07-21.33,63.2-32.79t83.74-11.45q55.29,0,95.59,11.85t66.36,26.07L449.66,228a337.68,337.68,0,0,0-51-20.94Q370.65,198,331.16,198q-44.25,0-63.6,12.24t-19.35,37.53q0,15,7.11,25.28t20.14,18.56a175.75,175.75,0,0,0,30,15q17,6.72,37.53,13.83,42.66,15.81,74.26,31.2t52.53,35.95A130.4,130.4,0,0,1,501,435.78q10.26,27.66,10.27,67.15,0,76.63-53.72,118.89T295.61,664.09A449.49,449.49,0,0,1,230,659.74a424.47,424.47,0,0,1-51.75-10.66,296,296,0,0,1-38.71-13.43,291.27,291.27,0,0,1-27.25-13.43l34.76-98q24.48,13.44,60.43,24.09T295.61,559Z"/><path class="cls-4" d="M691.43,105.56q14.25,26.07,32.87,64.38t38.81,82.95q20.19,44.64,40,91.25t37.23,87.69q17.43-41.07,37.23-87.69t40-91.25q20.21-44.61,38.83-82.95t32.87-64.38h112.18q7.89,54.51,14.61,122.05t11.85,140.62q5.13,73.09,9.48,146.55T1144.89,653H1024.81q-2.37-79.78-6.32-173.8t-11.85-189.6q-14.28,33.18-31.7,73.47t-34.48,80.58q-17,40.29-32.88,77t-27,62.81H794.52q-11.1-26.07-26.94-62.81t-32.9-77q-17-40.29-34.46-80.58t-31.7-73.47q-7.9,95.6-11.85,189.6T650.35,653H530.27q3.15-64.77,7.5-138.25t9.48-146.55q5.13-73.05,11.85-140.62t14.62-122Z"/></svg>