<svg xmlns="http://www.w3.org/2000/svg" viewBox="0 0 520.3 348.41"><defs><style>.cls-1{fill:none;stroke:#001f41;stroke-miterlimit:10;stroke-width:2px;}</style></defs><title>Element 22check</title><g id="Ebene_2" data-name="Ebene 2"><g id="Ebene_1-2" data-name="Ebene 1"><path d="M9.13,20.72a9.21,9.21,0,0,1-3.28-.53,6.21,6.21,0,0,1-2.28-1.48,6.12,6.12,0,0,1-1.32-2.27,9.13,9.13,0,0,1-.43-2.89V2.34H5.88V13.21a6.27,6.27,0,0,0,.24,1.86,3.42,3.42,0,0,0,.68,1.24,2.22,2.22,0,0,0,1,.69,4.09,4.09,0,0,0,1.34.21,3.24,3.24,0,0,0,2.4-.91,4.21,4.21,0,0,0,.93-3.09V2.34h4V13.55a9.34,9.34,0,0,1-.44,2.91,6.1,6.1,0,0,1-1.35,2.27,5.92,5.92,0,0,1-2.32,1.47A9.45,9.45,0,0,1,9.13,20.72Z"/><path d="M32.92,13.52a8.39,8.39,0,0,1-.49,3A6.23,6.23,0,0,1,31,18.75a6.14,6.14,0,0,1-2.23,1.44,8.39,8.39,0,0,1-3,.51c-.47,0-1,0-1.47-.07s-1-.1-1.51-.17-1-.15-1.41-.25-.85-.19-1.2-.29V.81L24.08.18V7a7.61,7.61,0,0,1,1.35-.44,7.23,7.23,0,0,1,1.51-.15,6.14,6.14,0,0,1,2.57.5,5,5,0,0,1,1.87,1.45,6.5,6.5,0,0,1,1.15,2.24A10.34,10.34,0,0,1,32.92,13.52Zm-4-.1c0-2.5-.91-3.75-2.75-3.75A4.38,4.38,0,0,0,25,9.83a3.06,3.06,0,0,0-.94.39v7a5.39,5.39,0,0,0,.72.09c.3,0,.62,0,1,0a2.79,2.79,0,0,0,2.39-1.09A4.79,4.79,0,0,0,29,13.42Z"/><path d="M47.58,19.89a21,21,0,0,1-2.55.53,20.27,20.27,0,0,1-3.27.25,7.79,7.79,0,0,1-2.9-.47A4.37,4.37,0,0,1,37,18.89a5.12,5.12,0,0,1-1-2,10.82,10.82,0,0,1-.28-2.57V6.68h3.87v7.15a5.58,5.58,0,0,0,.49,2.71,2,2,0,0,0,1.85.83c.28,0,.57,0,.88,0l.84-.09V6.68h3.87Z"/><path d="M51.22,7.15a21,21,0,0,1,2.55-.53A20.27,20.27,0,0,1,57,6.37a8.07,8.07,0,0,1,2.9.45,4.56,4.56,0,0,1,1.84,1.29,5.08,5.08,0,0,1,1,2A10.54,10.54,0,0,1,63,12.64v7.72H59.15V13.1a5.22,5.22,0,0,0-.5-2.65,2,2,0,0,0-1.84-.78c-.28,0-.57,0-.89,0l-.83.09V20.36H51.22Z"/><path d="M66.4,3.28l3.88-.63v4h4.65V9.91H70.28v4.81a3.81,3.81,0,0,0,.43,2,1.83,1.83,0,0,0,1.72.72,8.22,8.22,0,0,0,1.29-.11A6.65,6.65,0,0,0,74.93,17l.55,3a11.47,11.47,0,0,1-1.56.49,9.1,9.1,0,0,1-2.11.21,6.89,6.89,0,0,1-2.63-.43A4.12,4.12,0,0,1,67.52,19a4.35,4.35,0,0,1-.87-1.85,10.71,10.71,0,0,1-.25-2.42Z"/><path d="M89.75,19.89a21,21,0,0,1-2.55.53,20.27,20.27,0,0,1-3.27.25A7.79,7.79,0,0,1,81,20.2a4.44,4.44,0,0,1-1.84-1.31,5.12,5.12,0,0,1-1-2A10.82,10.82,0,0,1,78,14.3V6.68h3.87v7.15a5.58,5.58,0,0,0,.49,2.71,2,2,0,0,0,1.85.83c.28,0,.57,0,.88,0l.84-.09V6.68h3.87Z"/><path d="M100.31,0h2.26V25.17h-2.26Z"/><path d="M115.57,7.44a6.5,6.5,0,0,1,1.34-.6A6.16,6.16,0,0,1,119,6.53a6.08,6.08,0,0,1,2.59.52,5.36,5.36,0,0,1,1.91,1.45,6.47,6.47,0,0,1,1.18,2.24,9.55,9.55,0,0,1,.41,2.86,8.57,8.57,0,0,1-.48,3,6.17,6.17,0,0,1-1.37,2.22,6,6,0,0,1-2.13,1.41,7.77,7.77,0,0,1-2.81.49,17.65,17.65,0,0,1-3-.23c-.87-.16-1.58-.32-2.13-.47V.6l2.42-.42Zm0,10.81a7.32,7.32,0,0,0,1,.2,12.83,12.83,0,0,0,1.66.09,4,4,0,0,0,3.12-1.29,5.23,5.23,0,0,0,1.17-3.65,8.57,8.57,0,0,0-.21-1.95,4.53,4.53,0,0,0-.68-1.58,3.31,3.31,0,0,0-1.21-1,3.9,3.9,0,0,0-1.78-.37,4.72,4.72,0,0,0-1.82.34,4.87,4.87,0,0,0-1.27.7Z"/><path d="M140.4,13.6a8.62,8.62,0,0,1-.47,2.91,6.72,6.72,0,0,1-1.31,2.24,5.93,5.93,0,0,1-2,1.44,6.61,6.61,0,0,1-5.09,0,5.74,5.74,0,0,1-2-1.44,6.72,6.72,0,0,1-1.31-2.24,8.62,8.62,0,0,1-.47-2.91,8.6,8.6,0,0,1,.47-2.9,6.57,6.57,0,0,1,1.31-2.25,5.62,5.62,0,0,1,2-1.44,6.61,6.61,0,0,1,5.09,0,5.8,5.8,0,0,1,2,1.44,6.57,6.57,0,0,1,1.31,2.25A8.6,8.6,0,0,1,140.4,13.6Zm-2.52,0a5.84,5.84,0,0,0-1-3.63,3.58,3.58,0,0,0-5.59,0,5.78,5.78,0,0,0-1,3.63,5.77,5.77,0,0,0,1,3.62,3.58,3.58,0,0,0,5.59,0A5.83,5.83,0,0,0,137.88,13.6Z"/><path d="M147.86,20.62a4.69,4.69,0,0,1-3.17-1,3.8,3.8,0,0,1-.94-2.84V.6l2.42-.42V16.43a3.92,3.92,0,0,0,.1,1,1.37,1.37,0,0,0,.34.62,1.43,1.43,0,0,0,.63.36,7.39,7.39,0,0,0,1,.19Z"/><path d="M159.64.6l2.41-.42V20c-.55.15-1.26.31-2.13.47a17.56,17.56,0,0,1-3,.23,7.72,7.72,0,0,1-2.8-.49A6,6,0,0,1,152,18.77a6.15,6.15,0,0,1-1.36-2.22,8.57,8.57,0,0,1-.48-3,9.55,9.55,0,0,1,.4-2.86,6.47,6.47,0,0,1,1.18-2.24,5.36,5.36,0,0,1,1.91-1.45,6.11,6.11,0,0,1,2.59-.52,6.26,6.26,0,0,1,2.07.31,6.76,6.76,0,0,1,1.34.6Zm0,9.1a5,5,0,0,0-1.28-.7,4.68,4.68,0,0,0-1.82-.34,3.93,3.93,0,0,0-1.78.37,3.48,3.48,0,0,0-1.21,1,4.52,4.52,0,0,0-.67,1.58,8.57,8.57,0,0,0-.21,1.95,5.23,5.23,0,0,0,1.17,3.65A4,4,0,0,0,157,18.54a12.55,12.55,0,0,0,1.65-.09,7.84,7.84,0,0,0,1-.2Z"/><line class="cls-1" y1="36.06" x2="520.3" y2="36.06"/><path d="M30.56,103.57c-.43-1.35-.9-2.73-1.39-4.15s-1-2.84-1.49-4.25H12.53l-1.48,4.26c-.49,1.42-1,2.8-1.37,4.14H.61Q2.8,97.3,4.76,92T8.61,82q1.88-4.71,3.71-8.94t3.79-8.26h8.28q1.91,4,3.77,8.26T31.9,82q1.89,4.7,3.85,10c1.32,3.55,2.7,7.41,4.17,11.59Zm-10.5-30c-.19.56-.48,1.33-.85,2.3s-.8,2.09-1.28,3.36-1,2.67-1.61,4.2-1.19,3.13-1.81,4.81h11.1q-.88-2.52-1.73-4.83c-.55-1.53-1.08-2.93-1.58-4.2L21,75.84C20.6,74.87,20.3,74.11,20.06,73.56Z"/><path d="M61.92,104.08q-3.18,0-6.35-.2A45.58,45.58,0,0,1,49,103V65.32a58,58,0,0,1,5.88-.75c2.13-.17,4.1-.25,5.93-.25a39.89,39.89,0,0,1,6.81.53A16.06,16.06,0,0,1,73,66.67a9.58,9.58,0,0,1,3.5,3.39,9.89,9.89,0,0,1,1.26,5.18c0,3.1-1.5,5.54-4.48,7.33a9.26,9.26,0,0,1,5,3.81,11,11,0,0,1,1.34,5.43q0,6.1-4.45,9.19T61.92,104.08ZM57.5,80h4.26c2.68,0,4.61-.35,5.76-1a3.58,3.58,0,0,0,1.74-3.33,3.44,3.44,0,0,0-1.79-3.31,11.61,11.61,0,0,0-5.27-.95l-2.4,0c-.86,0-1.63.07-2.3.14Zm0,6.66v10c.63.08,1.33.14,2.07.17s1.57.06,2.47.06a15,15,0,0,0,6.32-1.12,4.16,4.16,0,0,0,2.41-4.15,4,4,0,0,0-2-3.83A11.78,11.78,0,0,0,63,86.66Z"/><path d="M108.4,104.36q-9.47,0-14.42-5.27t-5-15a23,23,0,0,1,1.51-8.6,18.63,18.63,0,0,1,4.14-6.38,17.38,17.38,0,0,1,6.28-4,22.69,22.69,0,0,1,7.89-1.34,25.57,25.57,0,0,1,4.48.36,31.91,31.91,0,0,1,3.53.84,18.27,18.27,0,0,1,2.52,1c.67.34,1.16.6,1.46.79l-2.52,7a21.7,21.7,0,0,0-4.18-1.62,19.75,19.75,0,0,0-5.4-.67,11.92,11.92,0,0,0-3.95.67,9,9,0,0,0-3.41,2.15A10.64,10.64,0,0,0,99,78.26,16,16,0,0,0,98.1,84a20.42,20.42,0,0,0,.59,5,10.58,10.58,0,0,0,1.9,4A9.14,9.14,0,0,0,104,95.65a12.29,12.29,0,0,0,5.15,1,23.16,23.16,0,0,0,3.41-.23,22.09,22.09,0,0,0,2.69-.53,13.14,13.14,0,0,0,2.07-.7c.6-.26,1.14-.5,1.63-.73l2.41,7a20.57,20.57,0,0,1-5.21,2A30.27,30.27,0,0,1,108.4,104.36Z"/><path d="M165.08,84.14a22.77,22.77,0,0,1-1.57,8.79,16.36,16.36,0,0,1-4.45,6.22,19.09,19.09,0,0,1-7,3.69,32.31,32.31,0,0,1-9.3,1.24c-1.57,0-3.4-.07-5.49-.2a44.93,44.93,0,0,1-6.16-.81V65.27a52.18,52.18,0,0,1,6.3-.76c2.19-.13,4.06-.19,5.63-.19a33.93,33.93,0,0,1,9.05,1.12A18.5,18.5,0,0,1,159,69a15.78,15.78,0,0,1,4.48,6.16A23.49,23.49,0,0,1,165.08,84.14ZM139.82,96.46c.41,0,.89.07,1.43.08s1.18,0,1.93,0q6.56,0,9.72-3.3t3.16-9.13q0-6.11-3-9.24t-9.58-3.14l-1.85,0c-.63,0-1.23.07-1.79.14Z"/><path d="M176.44,103.57V64.76h26.21V72.1H185.18v7.62h15.51v7.16H185.18v9.36h18.76v7.33Z"/><path d="M214.47,103.57V64.76h26V72.1H223.2v8.12h15.35v7.34H223.2v16Z"/><path d="M269.18,71.48q-6.1,0-8.82,3.39t-2.72,9.27a19,19,0,0,0,.67,5.18,11.34,11.34,0,0,0,2,4,9.2,9.2,0,0,0,3.36,2.61,11.29,11.29,0,0,0,4.7.92c1,0,1.81,0,2.5,0a12.5,12.5,0,0,0,1.82-.23V83.08h8.73v19.2a31.78,31.78,0,0,1-5,1.32,44,44,0,0,1-8.57.7,22.38,22.38,0,0,1-7.92-1.34A16.73,16.73,0,0,1,253.83,99a17.61,17.61,0,0,1-3.89-6.33,25,25,0,0,1-1.37-8.57,22.87,22.87,0,0,1,1.51-8.62,18.61,18.61,0,0,1,4.15-6.36,17.41,17.41,0,0,1,6.18-4A21.45,21.45,0,0,1,268,63.87a31.11,31.11,0,0,1,5,.36,34.9,34.9,0,0,1,3.81.84,18.82,18.82,0,0,1,2.63,1c.69.34,1.18.6,1.48.79l-2.52,7a22.4,22.4,0,0,0-4.11-1.66A17.75,17.75,0,0,0,269.18,71.48Z"/><path d="M317.06,64.76h8.74v38.81h-8.74V87.11H302.39v16.46h-8.74V64.76h8.74V79.6h14.67Z"/><path d="M338.84,64.76h8.74v38.81h-8.74Z"/><path d="M381.85,90.52a22.1,22.1,0,0,1-.64,5.38,10.35,10.35,0,0,1-6.56,7.36,18.45,18.45,0,0,1-6.86,1.1,20.48,20.48,0,0,1-6.55-.93,18,18,0,0,1-4.53-2.15l2.91-6.78a23.7,23.7,0,0,0,3.47,1.68,10.82,10.82,0,0,0,4,.73q3.19,0,4.59-1.57c.94-1,1.4-2.8,1.4-5.26V64.76h8.74Z"/><path d="M417.21,103.57q-1.17-1.89-2.78-4.09T411,95c-1.23-1.49-2.52-2.91-3.87-4.28a38.87,38.87,0,0,0-4-3.62v16.43h-8.73V64.76h8.73V79.35q3.38-3.54,6.85-7.4c2.31-2.58,4.46-5,6.42-7.19h10.37c-2.65,3.15-5.3,6.17-8,9.08s-5.48,5.82-8.43,8.76a66.27,66.27,0,0,1,9,9.22,114.93,114.93,0,0,1,8.32,11.75Z"/><path d="M462.66,96.07v7.5H436.73V64.76h8.73V96.07Z"/><path d="M483.21,64.76q1,1.86,2.33,4.57c.88,1.81,1.79,3.77,2.75,5.88s1.9,4.26,2.84,6.47l2.63,6.21Q495,85,496.4,81.68c.94-2.21,1.88-4.36,2.84-6.47s1.87-4.07,2.75-5.88,1.66-3.33,2.33-4.57h7.95c.37,2.58.72,5.46,1,8.66s.59,6.51.84,10,.46,6.92.67,10.39.38,6.74.53,9.8h-8.51q-.16-5.66-.45-12.32c-.18-4.44-.47-8.92-.84-13.44q-1,2.35-2.25,5.21c-.82,1.9-1.63,3.81-2.44,5.71s-1.58,3.73-2.33,5.46-1.39,3.22-1.91,4.45h-6.1q-.79-1.85-1.91-4.45t-2.34-5.46c-.8-1.9-1.62-3.81-2.44-5.71l-2.25-5.21q-.56,6.78-.84,13.44t-.44,12.32h-8.52q.23-4.59.54-9.8T473,83.38q.36-5.17.84-10c.31-3.2.66-6.08,1-8.66Z"/><path d="M30.56,164.57q-3.75-6.66-8.11-13.16a135.5,135.5,0,0,0-9.3-12.26v25.42H4.53V125.76h7.11q1.84,1.86,4.08,4.54c1.5,1.79,3,3.71,4.57,5.74s3.09,4.14,4.62,6.33,3,4.28,4.31,6.3V125.76H37.9v38.81Z"/><path d="M83.82,145.14a23.86,23.86,0,0,1-1.48,8.76,18.16,18.16,0,0,1-4.06,6.33,16.66,16.66,0,0,1-6.14,3.84,22.2,22.2,0,0,1-7.64,1.29,21.65,21.65,0,0,1-7.5-1.29,17.15,17.15,0,0,1-6.16-3.84,17.92,17.92,0,0,1-4.15-6.33,23.64,23.64,0,0,1-1.51-8.76,22.64,22.64,0,0,1,1.57-8.76A18.55,18.55,0,0,1,51,130a17.27,17.27,0,0,1,6.16-3.86,21.07,21.07,0,0,1,7.36-1.29A21.75,21.75,0,0,1,72,126.16,17.1,17.1,0,0,1,78.17,130a18.35,18.35,0,0,1,4.14,6.36A23.43,23.43,0,0,1,83.82,145.14Zm-29.62,0a17.53,17.53,0,0,0,.7,5.15,11.78,11.78,0,0,0,2,4,9,9,0,0,0,3.22,2.55,11.1,11.1,0,0,0,8.71,0,8.92,8.92,0,0,0,3.25-2.55,11.79,11.79,0,0,0,2-4,17.88,17.88,0,0,0,.69-5.15,18.19,18.19,0,0,0-.69-5.18,11.85,11.85,0,0,0-2-4,8.79,8.79,0,0,0-3.25-2.54,10.15,10.15,0,0,0-4.34-.9,10,10,0,0,0-4.37.92A9.29,9.29,0,0,0,56.91,136a11.74,11.74,0,0,0-2,4A17.56,17.56,0,0,0,54.2,145.14Z"/><path d="M102.75,125.32q8.69,0,13.33,3.05c3.09,2,4.64,5.37,4.64,10s-1.56,8-4.7,10.11-7.62,3.11-13.44,3.11H99.84v13H91.1V126.32a50.11,50.11,0,0,1,6.05-.78C99.28,125.39,101.14,125.32,102.75,125.32Zm.56,7.44c-.64,0-1.26,0-1.88.06l-1.59.11v11.2h2.74a14.89,14.89,0,0,0,6.83-1.23q2.3-1.23,2.3-4.59a5.55,5.55,0,0,0-.59-2.69,4.45,4.45,0,0,0-1.68-1.71,7.38,7.38,0,0,0-2.66-.89A21.7,21.7,0,0,0,103.31,132.76Z"/><path d="M164.13,145.14a25,25,0,0,1-1,7.36,19.12,19.12,0,0,1-2.83,5.74,16.37,16.37,0,0,1-4.34,4.09,17.57,17.57,0,0,1-5.55,2.35,3.12,3.12,0,0,0,1.24,1.82,7.84,7.84,0,0,0,2.41,1.15,18,18,0,0,0,3.38.67c1.29.15,2.68.28,4.17.4l-1.79,6.38a41.28,41.28,0,0,1-7.47-.87,18.84,18.84,0,0,1-5.27-1.93,10.36,10.36,0,0,1-3.41-3,13.8,13.8,0,0,1-1.94-4.15,19.94,19.94,0,0,1-6.43-1.93,16.49,16.49,0,0,1-5.16-4,18.46,18.46,0,0,1-3.41-6,24,24,0,0,1-1.24-8,22.83,22.83,0,0,1,1.57-8.76,18.84,18.84,0,0,1,4.23-6.36,17.36,17.36,0,0,1,6.16-3.86,21.11,21.11,0,0,1,7.36-1.29,21.67,21.67,0,0,1,7.51,1.29,17.1,17.1,0,0,1,6.16,3.86,18.35,18.35,0,0,1,4.14,6.36A23.43,23.43,0,0,1,164.13,145.14Zm-29.63,0a17.53,17.53,0,0,0,.7,5.15,11.79,11.79,0,0,0,2,4,8.9,8.9,0,0,0,3.22,2.55,11.08,11.08,0,0,0,8.7,0,8.84,8.84,0,0,0,3.25-2.55,11.79,11.79,0,0,0,2-4,17.53,17.53,0,0,0,.7-5.15,17.83,17.83,0,0,0-.7-5.18,11.85,11.85,0,0,0-2-4,8.71,8.71,0,0,0-3.25-2.54,10.12,10.12,0,0,0-4.34-.9,9.94,9.94,0,0,0-4.36.92,9.2,9.2,0,0,0-3.22,2.58,11.76,11.76,0,0,0-2,4A17.56,17.56,0,0,0,134.5,145.14Z"/><path d="M182.77,125.32q8.74,0,13.39,3.1t4.64,9.66a10.93,10.93,0,0,1-1.87,6.64,12.3,12.3,0,0,1-5.41,4c.79,1,1.61,2.09,2.47,3.34s1.71,2.55,2.55,3.92,1.65,2.78,2.43,4.25,1.51,2.92,2.19,4.34h-9.77l-2.16-3.86q-1.09-2-2.25-3.81c-.77-1.23-1.53-2.4-2.28-3.5s-1.5-2.1-2.25-3h-4.31v14.17H171.4V126.32a50.7,50.7,0,0,1,5.91-.78C179.35,125.39,181.17,125.32,182.77,125.32Zm.51,7.44q-1,0-1.71.06l-1.43.11v10.53h2.46q4.93,0,7.06-1.23a4.45,4.45,0,0,0,2.13-4.2,4.26,4.26,0,0,0-2.16-4.06A13.31,13.31,0,0,0,183.28,132.76Z"/><path d="M219.34,157.91a12.34,12.34,0,0,0,3-.31,5.4,5.4,0,0,0,1.93-.84,2.76,2.76,0,0,0,1-1.26,4.41,4.41,0,0,0,.28-1.62,3.77,3.77,0,0,0-1.79-3.17,25.57,25.57,0,0,0-6.16-2.71c-1.27-.45-2.54-1-3.81-1.54a13.82,13.82,0,0,1-3.41-2.19,10.43,10.43,0,0,1-2.47-3.19,10,10,0,0,1-.95-4.56,11.34,11.34,0,0,1,1-4.85,10.41,10.41,0,0,1,2.85-3.67,13.3,13.3,0,0,1,4.48-2.32,20.22,20.22,0,0,1,5.94-.81,24.25,24.25,0,0,1,6.78.84,23.71,23.71,0,0,1,4.7,1.85l-2.52,6.88a24,24,0,0,0-3.61-1.48,15.65,15.65,0,0,0-4.79-.64,8.91,8.91,0,0,0-4.51.86,2.94,2.94,0,0,0-1.37,2.66,3.15,3.15,0,0,0,.5,1.8,5.07,5.07,0,0,0,1.43,1.31A13.22,13.22,0,0,0,220,140c.8.31,1.69.64,2.66,1a55.14,55.14,0,0,1,5.26,2.21,14.06,14.06,0,0,1,3.73,2.55,9.3,9.3,0,0,1,2.21,3.41,13.89,13.89,0,0,1,.73,4.76,10.12,10.12,0,0,1-3.81,8.43q-3.81,3-11.48,3a32.54,32.54,0,0,1-4.65-.31,30.94,30.94,0,0,1-3.67-.76,21,21,0,0,1-2.74-.95,20.57,20.57,0,0,1-1.93-1l2.46-6.95a21.49,21.49,0,0,0,4.29,1.71A22,22,0,0,0,219.34,157.91Z"/><path d="M269,125.76v7.45h-11.7v31.36h-8.74V133.21h-11.7v-7.45Z"/><path d="M289.79,165.36a19.67,19.67,0,0,1-7.06-1.15,13.23,13.23,0,0,1-4.9-3.19,12.69,12.69,0,0,1-2.85-4.88,19.84,19.84,0,0,1-.93-6.24V125.76h8.74v23.41a13,13,0,0,0,.53,4,7.22,7.22,0,0,0,1.46,2.68,5.09,5.09,0,0,0,2.24,1.49,8.79,8.79,0,0,0,2.88.45,7.09,7.09,0,0,0,5.18-2c1.32-1.31,2-3.53,2-6.67V125.76h8.73V149.9a19.54,19.54,0,0,1-.95,6.27,12.67,12.67,0,0,1-2.91,4.9,13.08,13.08,0,0,1-5,3.17A20.84,20.84,0,0,1,289.79,165.36Z"/><path d="M325.8,164.57q-2.31-4.89-4.57-10.15T317,144q-2-5.15-3.73-9.85t-2.94-8.41h9.63q1.09,3.37,2.43,7.26t2.71,7.75c.93,2.57,1.81,5,2.66,7.39s1.65,4.39,2.42,6.11q1.1-2.55,2.4-6.09c.86-2.36,1.75-4.82,2.68-7.4s1.82-5.15,2.71-7.74,1.7-5,2.43-7.28h9.3q-1.31,3.72-3,8.41T342.94,144c-1.35,3.44-2.76,6.91-4.26,10.42s-3,6.89-4.55,10.13Z"/><path d="M382.51,129.91c.44,1.53.94,3.26,1.48,5.18s1.12,3.91,1.73,6,1.24,4.11,1.87,6.16,1.25,4,1.85,5.71c.49-1.9,1-4,1.49-6.21s1-4.56,1.43-7,.89-4.76,1.33-7.14.83-4.65,1.2-6.86H404q-2,9.75-4.54,19.77t-5.54,19h-8q-2-5.37-3.81-11.28c-1.22-3.94-2.44-7.89-3.63-11.85q-1.79,5.94-3.59,11.85t-3.75,11.28h-8q-3-9-5.54-19t-4.52-19.77h9.46c.37,2.21.79,4.49,1.24,6.86s.92,4.76,1.4,7.14,1,4.71,1.5,7,1,4.31,1.54,6.21c.68-1.82,1.33-3.77,2-5.82s1.25-4.11,1.85-6.16,1.15-4,1.65-5.94,1-3.6,1.38-5.09Z"/><path d="M433.34,164.57c-1.1-2.16-2.29-4.35-3.59-6.56a23.6,23.6,0,0,0-4.48-5.63c-.52.58-1.18,1.38-2,2.41s-1.61,2.12-2.41,3.27-1.55,2.36-2.25,3.59-1.22,2.22-1.56,2.92h-10a100.47,100.47,0,0,1,5.78-9.38q3.33-4.84,7.44-10.28l-12.66-19.15h10.58L425.64,137l7.56-11.24h10l-12.6,18.74a116.93,116.93,0,0,1,8.16,11.37q3.21,5.17,5.06,8.7Z"/><path d="M464.89,141.68q2.36-4,4.48-7.93t3.93-8h9.63q-3.19,6.28-6.61,12.16t-7.22,11.81v14.84h-8.74V149.84q-3.81-5.93-7.25-11.87t-6.64-12.21h10.14q1.78,4,3.86,8T464.89,141.68Z"/><path d="M516.08,131.81q-1.8,1.84-4.26,4.79t-5.1,6.41q-2.62,3.48-5.21,7.17c-1.72,2.46-3.25,4.82-4.59,7.06H516.7v7.33H486.18v-5.21q1.56-2.85,3.83-6.35c1.51-2.33,3.09-4.69,4.73-7.06s3.32-4.66,5-6.89,3.27-4.2,4.73-6H487.07v-7.34h29Z"/><path d="M14.55,195.33a19.33,19.33,0,0,1,6.16.84,9.66,9.66,0,0,1,3.95,2.41,8.89,8.89,0,0,1,2.1,3.81,18.77,18.77,0,0,1,.61,5v17.36q-1.78.39-5,.93a48.45,48.45,0,0,1-7.73.53,24.25,24.25,0,0,1-5.18-.51,11,11,0,0,1-4-1.65,7.55,7.55,0,0,1-2.58-3A10.35,10.35,0,0,1,2,216.5a8.62,8.62,0,0,1,1-4.37,8,8,0,0,1,2.77-2.85,12.42,12.42,0,0,1,4-1.54,22.09,22.09,0,0,1,4.65-.48,27.21,27.21,0,0,1,2.88.14,13.9,13.9,0,0,1,2.05.36V207a4.62,4.62,0,0,0-1.29-3.42c-.86-.85-2.36-1.28-4.48-1.28a29.25,29.25,0,0,0-4.2.3,18.71,18.71,0,0,0-3.59.87l-1.06-6.72c.48-.15,1.09-.31,1.82-.47s1.52-.32,2.38-.45,1.76-.24,2.72-.34S13.58,195.33,14.55,195.33Zm.67,24.42c.82,0,1.61,0,2.35-.06a13.78,13.78,0,0,0,1.8-.17V213.2a15.08,15.08,0,0,0-1.52-.23,18,18,0,0,0-1.84-.11,17.16,17.16,0,0,0-2.22.14,5.79,5.79,0,0,0-1.82.53,3.13,3.13,0,0,0-1.23,1.07,2.92,2.92,0,0,0-.45,1.68A2.85,2.85,0,0,0,11.61,219,7.21,7.21,0,0,0,15.22,219.75Z"/><path d="M74.13,210.84a18.66,18.66,0,0,1-1,6.39,13.42,13.42,0,0,1-3,4.87,13.29,13.29,0,0,1-4.81,3.11,18.12,18.12,0,0,1-6.5,1.09c-1,0-2.06-.05-3.16-.14s-2.19-.21-3.25-.36-2.08-.33-3.06-.54-1.82-.42-2.57-.64V183.46l8.34-1.34v14.67a15.71,15.71,0,0,1,2.91-.95,14.66,14.66,0,0,1,3.25-.34,13.31,13.31,0,0,1,5.55,1.09,10.94,10.94,0,0,1,4,3.11,14,14,0,0,1,2.46,4.84A22.13,22.13,0,0,1,74.13,210.84Zm-8.51-.22q0-8.07-5.94-8.06a10,10,0,0,0-2.54.33,7.77,7.77,0,0,0-2,.84v15.18c.41.07.94.14,1.57.19s1.33.09,2.07.09a6,6,0,0,0,5.15-2.35A10.21,10.21,0,0,0,65.62,210.62Z"/><path d="M91,210.84a17.43,17.43,0,0,1,1-6,14.17,14.17,0,0,1,7.76-8.26,15.72,15.72,0,0,1,6.38-1.23,20.69,20.69,0,0,1,4.32.42,20.48,20.48,0,0,1,3.8,1.21l-1.73,6.66a20.68,20.68,0,0,0-2.58-.78,13.11,13.11,0,0,0-3.13-.34,6.61,6.61,0,0,0-5.52,2.3,9.45,9.45,0,0,0-1.82,6,9.75,9.75,0,0,0,1.71,6.16c1.14,1.46,3.12,2.19,6,2.19a20.11,20.11,0,0,0,3.25-.28,14,14,0,0,0,3.19-.9l1.18,6.83a19.07,19.07,0,0,1-3.64,1.07,23.94,23.94,0,0,1-4.82.45,18,18,0,0,1-6.94-1.21,13.07,13.07,0,0,1-4.79-3.27,12.7,12.7,0,0,1-2.74-4.9A20.8,20.8,0,0,1,91,210.84Z"/><path d="M156.79,224.62c-.75.22-1.61.44-2.58.64s-2,.39-3.05.54-2.15.27-3.25.36-2.15.14-3.16.14a18.54,18.54,0,0,1-6.5-1.06,13,13,0,0,1-4.81-3.06,13.17,13.17,0,0,1-3-4.81,18.44,18.44,0,0,1-1-6.36,21.71,21.71,0,0,1,.9-6.47,14.2,14.2,0,0,1,2.58-4.9,11.09,11.09,0,0,1,4.11-3.08,14,14,0,0,1,5.57-1.06,12.77,12.77,0,0,1,3.11.34,16.62,16.62,0,0,1,2.78.95V183.46l8.34-1.34Zm-18.87-14a10.28,10.28,0,0,0,1.73,6.22,6,6,0,0,0,5.15,2.35c.75,0,1.44,0,2.08-.09s1.15-.12,1.57-.19V203.73a7.77,7.77,0,0,0-2-.84,10,10,0,0,0-2.55-.33Q137.91,202.56,137.92,210.62Z"/><path d="M175,211.07a18.07,18.07,0,0,1,1.21-6.86,14.64,14.64,0,0,1,3.16-4.9,13.12,13.12,0,0,1,4.51-3,14.15,14.15,0,0,1,5.24-1q6.27,0,9.91,3.84t3.64,11.28c0,.49,0,1-.06,1.6s-.07,1.09-.11,1.54H183.61a5.56,5.56,0,0,0,2.41,4.09,9.73,9.73,0,0,0,5.71,1.51,24.18,24.18,0,0,0,4.51-.42,17,17,0,0,0,3.61-1l1.12,6.78a11.46,11.46,0,0,1-1.79.67,25.49,25.49,0,0,1-2.49.59q-1.38.25-2.94.42a30,30,0,0,1-3.14.17,18.61,18.61,0,0,1-6.91-1.18,13.5,13.5,0,0,1-4.88-3.22,12.81,12.81,0,0,1-2.85-4.84A19.13,19.13,0,0,1,175,211.07Zm19.6-3.19a8.64,8.64,0,0,0-.36-2.08,5.31,5.31,0,0,0-.95-1.79,5.12,5.12,0,0,0-1.63-1.29,5.34,5.34,0,0,0-2.43-.5,5.54,5.54,0,0,0-2.41.48,4.83,4.83,0,0,0-1.68,1.26,5.72,5.72,0,0,0-1,1.82,12,12,0,0,0-.53,2.1Z"/><path d="M233.73,182.12a18.6,18.6,0,0,1,4.31.47,21,21,0,0,1,3,.93l-1.63,6.66a10.78,10.78,0,0,0-2.43-.76,13.74,13.74,0,0,0-2.44-.25,6.8,6.8,0,0,0-2.55.42,4,4,0,0,0-1.62,1.15,4.48,4.48,0,0,0-.84,1.74,8.87,8.87,0,0,0-.25,2.18v1.46h10.3v6.94h-10.3v22.51H221v-31q0-5.72,3.22-9.07T233.73,182.12Z"/><path d="M281.39,221.88q0,7.22-3.67,10.72t-11.34,3.5a30.66,30.66,0,0,1-5.38-.48,31.77,31.77,0,0,1-5-1.26l1.46-7a23.62,23.62,0,0,0,4.11,1.24,24.17,24.17,0,0,0,4.9.44q3.58,0,5.07-1.56a5.64,5.64,0,0,0,1.48-4v-1.06a13.05,13.05,0,0,1-2.77.92,14.44,14.44,0,0,1-3.11.31q-6.11,0-9.35-3.61t-3.25-10.11a16.66,16.66,0,0,1,1-5.91,12.54,12.54,0,0,1,2.94-4.56,13.17,13.17,0,0,1,4.73-2.94,18.19,18.19,0,0,1,6.33-1c1,0,2.05.05,3.11.14s2.12.22,3.16.37,2.05.33,3,.53,1.8.42,2.55.64Zm-18.31-12q0,7,5.65,7a8.51,8.51,0,0,0,2.41-.33,9.22,9.22,0,0,0,1.9-.79V202.44c-.41-.07-.89-.14-1.45-.19a18.74,18.74,0,0,0-2-.09,5.73,5.73,0,0,0-4.93,2.19A9,9,0,0,0,263.08,209.89Z"/><path d="M301,225.57V183.46l8.35-1.34v14.11a15.68,15.68,0,0,1,2.15-.53,13.46,13.46,0,0,1,2.55-.26,15.77,15.77,0,0,1,6,1,9.26,9.26,0,0,1,3.81,2.78,10.68,10.68,0,0,1,2,4.25,23.82,23.82,0,0,1,.59,5.49v16.63h-8.35V210q0-4-1-5.71t-3.84-1.68a10.72,10.72,0,0,0-2.1.19c-.65.13-1.24.27-1.76.42v22.4Z"/><path d="M355,187.6a4.62,4.62,0,0,1-1.48,3.62,5.33,5.33,0,0,1-7,0,5.13,5.13,0,0,1,0-7.23,5.33,5.33,0,0,1,7,0A4.61,4.61,0,0,1,355,187.6Zm-.78,38h-8.35V196.12h8.35Z"/><path d="M371.1,235.93a21.44,21.44,0,0,1-2.33-.17,13.74,13.74,0,0,1-2.88-.61l1.12-6.78a8.92,8.92,0,0,0,1.54.39,10.79,10.79,0,0,0,1.76.12,3.07,3.07,0,0,0,2.75-1.18,6.18,6.18,0,0,0,.78-3.42V196.12h8.35v28.39c0,3.88-1,6.76-2.86,8.62S374.68,235.93,371.1,235.93ZM383,187.6a4.62,4.62,0,0,1-1.48,3.62,5.33,5.33,0,0,1-7,0,5.13,5.13,0,0,1,0-7.23,5.33,5.33,0,0,1,7,0A4.61,4.61,0,0,1,383,187.6Z"/><path d="M410.19,206.69l2.54-2.78c.88-1,1.73-1.92,2.55-2.87s1.59-1.84,2.32-2.7,1.35-1.59,1.87-2.22h9.92q-3,3.4-5.79,6.51c-1.89,2.06-4,4.2-6.19,6.39a38.16,38.16,0,0,1,3.47,3.62c1.2,1.41,2.35,2.85,3.47,4.35s2.15,3,3.08,4.49,1.72,2.86,2.36,4.09h-9.6c-.6-1-1.28-2-2-3.22s-1.57-2.36-2.43-3.54-1.76-2.31-2.71-3.4a23.26,23.26,0,0,0-2.82-2.75v12.91h-8.35V183.46l8.35-1.34Z"/><path d="M457.84,226.13a20.83,20.83,0,0,1-5.91-.78,8.79,8.79,0,0,1-3.58-2,6.66,6.66,0,0,1-1.79-3.19,17.09,17.09,0,0,1-.48-4.23V183.46l8.34-1.34V214.2a11.2,11.2,0,0,0,.17,2,3.52,3.52,0,0,0,.65,1.51,3.34,3.34,0,0,0,1.37,1,7.46,7.46,0,0,0,2.41.5Z"/><path d="M491.78,210q0-4-1-5.71a3.83,3.83,0,0,0-3.55-1.68,15.19,15.19,0,0,0-1.63.08c-.56.06-1.1.12-1.62.2v22.73h-8.35V197.12c.71-.18,1.54-.38,2.5-.58s2-.4,3-.56,2.15-.3,3.27-.4,2.23-.14,3.31-.14a13.91,13.91,0,0,1,5.18.82,11.49,11.49,0,0,1,3.27,1.93,15.61,15.61,0,0,1,8.41-2.75,14.74,14.74,0,0,1,5.79,1A8.73,8.73,0,0,1,514,199.2a10.45,10.45,0,0,1,1.85,4.25,27.23,27.23,0,0,1,.5,5.49v16.63H508V210c0-2.69-.34-4.59-1-5.71a3.83,3.83,0,0,0-3.55-1.68,8.94,8.94,0,0,0-3.86,1.17,13.22,13.22,0,0,1,.5,2.72c.07,1,.11,2,.11,3.05v16.07h-8.34Z"/><path d="M4,258.12A46,46,0,0,1,9.45,257a44.53,44.53,0,0,1,7.06-.54,17.23,17.23,0,0,1,6.24,1,9.42,9.42,0,0,1,3.95,2.78,10.76,10.76,0,0,1,2.07,4.25,22.71,22.71,0,0,1,.62,5.49v16.63H21.05V271q0-4-1.07-5.71c-.71-1.12-2-1.68-4-1.68-.6,0-1.24,0-1.91.08s-1.27.12-1.79.2v22.73H4Z"/><path d="M73.57,271.79a18.92,18.92,0,0,1-1,6.35,13.69,13.69,0,0,1-2.91,4.93,13.09,13.09,0,0,1-4.56,3.17,15.38,15.38,0,0,1-6,1.12,15.17,15.17,0,0,1-5.9-1.12,13,13,0,0,1-4.57-3.17,14.41,14.41,0,0,1-3-4.93,18.2,18.2,0,0,1-1.06-6.35,17.52,17.52,0,0,1,1.09-6.33,14.35,14.35,0,0,1,3-4.87,13.4,13.4,0,0,1,4.59-3.14,14.87,14.87,0,0,1,5.79-1.12A15.11,15.11,0,0,1,65,257.45a13.28,13.28,0,0,1,4.56,3.14,14.23,14.23,0,0,1,3,4.87A18,18,0,0,1,73.57,271.79Zm-8.51,0a10.48,10.48,0,0,0-1.54-6.08,5,5,0,0,0-4.4-2.21,5.11,5.11,0,0,0-4.42,2.21,10.33,10.33,0,0,0-1.57,6.08,10.58,10.58,0,0,0,1.57,6.13,5.07,5.07,0,0,0,4.42,2.27,5,5,0,0,0,4.4-2.27A10.74,10.74,0,0,0,65.06,271.79Z"/><path d="M116.47,271.84a21.61,21.61,0,0,1-.84,6.22,13.91,13.91,0,0,1-2.47,4.82,11,11,0,0,1-4,3.13,12.93,12.93,0,0,1-5.54,1.12,14.59,14.59,0,0,1-6.16-1.29v11.09H89.08V258.12c.75-.22,1.61-.43,2.58-.64s2-.38,3-.53,2.15-.27,3.25-.37,2.16-.14,3.16-.14a18,18,0,0,1,6.5,1.1,12.82,12.82,0,0,1,7.81,7.92A18.6,18.6,0,0,1,116.47,271.84Zm-8.51.23a10.08,10.08,0,0,0-1.74-6.19,6,6,0,0,0-5.15-2.32c-.75,0-1.44,0-2.07.08s-1.16.12-1.57.2V278.9a7,7,0,0,0,2,.84,10,10,0,0,0,2.55.34Q108,280.08,108,272.07Z"/><path d="M130.58,271.84a17.84,17.84,0,0,1,1-6.24,13.75,13.75,0,0,1,3-4.87,13.37,13.37,0,0,1,4.82-3.17,17.8,17.8,0,0,1,6.49-1.12c1,0,2.07.05,3.17.14s2.18.22,3.25.37,2.08.33,3,.53,1.83.42,2.57.64v38.81h-8.34V285.84a15.5,15.5,0,0,1-2.91,1,15.23,15.23,0,0,1-3.25.33q-6.27,0-9.58-4.11T130.58,271.84Zm8.51.23q0,8,5.94,8a10.16,10.16,0,0,0,2.55-.34,7,7,0,0,0,2-.84V263.84c-.41-.08-.93-.14-1.57-.2s-1.32-.08-2.07-.08a6,6,0,0,0-5.15,2.32A10.08,10.08,0,0,0,139.09,272.07Z"/><path d="M192.63,264.51c-.75-.19-1.63-.38-2.64-.59a16.57,16.57,0,0,0-3.24-.31,15.72,15.72,0,0,0-1.88.14,12,12,0,0,0-1.65.31v22.51h-8.34V258.68a51,51,0,0,1,5.29-1.48,30.24,30.24,0,0,1,6.8-.7c.45,0,1,0,1.62.08s1.27.14,1.91.23,1.27.2,1.9.33a9.44,9.44,0,0,1,1.63.48Z"/><path d="M216,280.58a8.29,8.29,0,0,0,3.25-.45,1.71,1.71,0,0,0,.95-1.73,2.13,2.13,0,0,0-1.23-1.77,24.15,24.15,0,0,0-3.75-1.71,35.64,35.64,0,0,1-3.56-1.51,10.49,10.49,0,0,1-2.71-1.87,7.57,7.57,0,0,1-1.74-2.61,9.66,9.66,0,0,1-.61-3.64,7.86,7.86,0,0,1,3.08-6.55c2-1.6,4.87-2.41,8.45-2.41a26.87,26.87,0,0,1,5.15.48,24.45,24.45,0,0,1,3.92,1l-1.45,6.5a31.8,31.8,0,0,0-3.17-.9,17.22,17.22,0,0,0-3.83-.39c-2.62,0-3.92.73-3.92,2.19a2.11,2.11,0,0,0,.17.89,1.86,1.86,0,0,0,.67.76,10.1,10.1,0,0,0,1.37.79c.58.28,1.32.59,2.21.93a34.58,34.58,0,0,1,4.54,2,10.8,10.8,0,0,1,2.83,2.14,6.56,6.56,0,0,1,1.45,2.54,11.27,11.27,0,0,1,.42,3.24,7.47,7.47,0,0,1-3.27,6.59q-3.28,2.24-9.27,2.24a26.59,26.59,0,0,1-6.53-.68,25.28,25.28,0,0,1-3.61-1.12l1.4-6.77a26.78,26.78,0,0,0,4.37,1.31A21.05,21.05,0,0,0,216,280.58Z"/><path d="M243.53,249.78l8.34-1.34v8.68h10v6.94h-10v10.36a8.17,8.17,0,0,0,.93,4.2c.61,1.05,1.85,1.57,3.72,1.57a16.67,16.67,0,0,0,2.77-.25,14.36,14.36,0,0,0,2.61-.7l1.17,6.49a23.33,23.33,0,0,1-3.36,1.07,19.49,19.49,0,0,1-4.53.44,14.86,14.86,0,0,1-5.66-.92,8.8,8.8,0,0,1-3.58-2.58,9.57,9.57,0,0,1-1.88-4,23.92,23.92,0,0,1-.53-5.21Z"/><path d="M302.89,285.56a43.87,43.87,0,0,1-5.49,1.15,44.46,44.46,0,0,1-7.06.53,16.78,16.78,0,0,1-6.24-1,9.59,9.59,0,0,1-4-2.83,11,11,0,0,1-2.07-4.34,23.4,23.4,0,0,1-.62-5.55v-16.4h8.35v15.4c0,2.68.35,4.63,1.06,5.82s2,1.79,4,1.79c.6,0,1.23,0,1.9-.08s1.27-.12,1.8-.2V257.12h8.34Z"/><path d="M327,286.57a142.52,142.52,0,0,1-5.82-13.1q-3-7.5-5.59-16.35h8.84q.57,2.17,1.32,4.73c.51,1.7,1,3.41,1.58,5.15s1.09,3.43,1.63,5.07,1.08,3.13,1.61,4.48c.48-1.35,1-2.84,1.57-4.48s1.11-3.33,1.66-5.07,1.06-3.45,1.57-5.15.95-3.28,1.32-4.73h8.63q-2.64,8.85-5.59,16.35t-5.81,13.1Z"/><path d="M377.84,269.66c-.74,2.84-1.54,5.66-2.38,8.46s-1.72,5.62-2.66,8.45h-6.49c-.68-1.57-1.41-3.43-2.19-5.6s-1.6-4.52-2.45-7.08-1.7-5.27-2.58-8.12-1.73-5.74-2.55-8.65h8.79c.3,1.34.63,2.81,1,4.39s.74,3.22,1.13,4.9.81,3.37,1.24,5.07.87,3.33,1.32,4.9c.49-1.64,1-3.32,1.43-5s.92-3.41,1.35-5.07.84-3.26,1.23-4.81.73-3,1-4.34h6c.3,1.34.64,2.79,1,4.34s.76,3.15,1.18,4.81.84,3.35,1.28,5.07.92,3.4,1.4,5q.68-2.36,1.35-4.9t1.27-5.07c.4-1.68.77-3.31,1.13-4.9s.68-3.05,1-4.39h8.68q-1.25,4.36-2.56,8.65t-2.58,8.12q-1.28,3.84-2.47,7.08c-.81,2.17-1.55,4-2.22,5.6h-6.5c-.93-2.83-1.85-5.65-2.74-8.45S378.59,272.5,377.84,269.66Z"/><path d="M425.66,265.37l5.86-8.25h8.62l-10.22,14.32a89.22,89.22,0,0,1,6.24,8,74.87,74.87,0,0,1,4.38,7.11h-9c-.31-.56-.68-1.26-1.13-2.1s-.95-1.72-1.51-2.63a14.14,14.14,0,0,0-1.75-2.33c-.61-.63-1.21-1.21-1.8-1.73-.57.48-1.14,1-1.72,1.6a11.64,11.64,0,0,0-1.67,2.19c-.52.88-1,1.74-1.54,2.6s-1,1.66-1.35,2.4h-8.49c.47-.92,1.09-2,1.86-3.29s1.61-2.6,2.53-4,1.91-2.68,3-4,2.12-2.48,3.15-3.61l-5.28-7.5-5-7.12h9Z"/><path d="M481.64,257.12q-2.53,8.5-5.28,16t-6,14.44a33.1,33.1,0,0,1-2.35,4.29,13.43,13.43,0,0,1-2.58,2.91,9,9,0,0,1-3.17,1.68,14.16,14.16,0,0,1-4.12.53,17,17,0,0,1-3.62-.36,15.8,15.8,0,0,1-2.72-.81l1.45-6.67a14.06,14.06,0,0,0,2.3.62,13.13,13.13,0,0,0,2.13.17,4.65,4.65,0,0,0,3.45-1.21,9.66,9.66,0,0,0,2-3.33q-2.85-5.59-5.71-12.57a155.88,155.88,0,0,1-5.38-15.65h8.85q.56,2.17,1.32,4.73c.5,1.7,1,3.41,1.6,5.15s1.14,3.43,1.72,5.07,1.13,3.13,1.66,4.48c.48-1.35,1-2.84,1.51-4.48s1-3.33,1.55-5.07,1-3.45,1.46-5.15.89-3.28,1.27-4.73Z"/><path d="M518,262.72l-2.72,3q-1.71,1.9-3.68,4.2t-3.95,4.82q-2,2.52-3.62,4.87h14.25v6.94H493.9v-4.93c.78-1.34,1.73-2.79,2.83-4.34s2.26-3.1,3.47-4.67,2.42-3.09,3.61-4.57,2.3-2.8,3.31-4H494.57v-6.94H518Z"/><path d="M4,316.83c1.09-.45,2.22-1,3.39-1.54a38.69,38.69,0,0,0,3.45-1.91C11.92,312.69,13,312,14,311.2a22,22,0,0,0,2.77-2.44h5.82v38.81H14.27V319.63a24.6,24.6,0,0,1-3.75,2c-1.39.62-2.73,1.15-4,1.6Z"/><path d="M74.47,319a10.21,10.21,0,0,1-.84,4.08,18.54,18.54,0,0,1-2.19,3.78,29.79,29.79,0,0,1-3,3.5q-1.68,1.68-3.3,3.2c-.56.52-1.17,1.11-1.82,1.76s-1.28,1.32-1.88,2-1.13,1.3-1.6,1.87a4.75,4.75,0,0,0-.86,1.43H75.64v7H49.77a9.52,9.52,0,0,1-.11-1.57v-1.34a13.55,13.55,0,0,1,.87-4.93,18.32,18.32,0,0,1,2.27-4.17A25.62,25.62,0,0,1,56,332c1.18-1.12,2.34-2.24,3.5-3.36.9-.86,1.74-1.67,2.52-2.44a26,26,0,0,0,2.07-2.24,9.87,9.87,0,0,0,1.4-2.18,5.2,5.2,0,0,0,.51-2.21,4,4,0,0,0-1.4-3.48,5.84,5.84,0,0,0-3.48-1,8.39,8.39,0,0,0-2.82.47A14.86,14.86,0,0,0,54,317.92c-.52.43-.91.78-1.17,1l-4.15-5.83a21.34,21.34,0,0,1,5.74-3.78,16.85,16.85,0,0,1,7-1.48,19.57,19.57,0,0,1,5.88.78,11.12,11.12,0,0,1,4.06,2.21,8.6,8.6,0,0,1,2.35,3.48A13.09,13.09,0,0,1,74.47,319Z"/><path d="M106.11,348.41a27.63,27.63,0,0,1-3.19-.19,32.39,32.39,0,0,1-3.25-.54c-1-.22-2-.46-2.86-.72a16.28,16.28,0,0,1-2-.73l1.62-7a38.55,38.55,0,0,0,3.72,1.32,19.28,19.28,0,0,0,5.63.7c2.58,0,4.46-.48,5.66-1.46a4.79,4.79,0,0,0,1.79-3.92,4.72,4.72,0,0,0-.64-2.54,4.93,4.93,0,0,0-1.77-1.68,7.87,7.87,0,0,0-2.66-.9,20,20,0,0,0-3.27-.25h-3.25v-6.72h3.69a12.32,12.32,0,0,0,2.38-.23,6.26,6.26,0,0,0,2-.75,4,4,0,0,0,1.43-1.46,4.63,4.63,0,0,0,.53-2.32,3.65,3.65,0,0,0-.45-1.85,4.08,4.08,0,0,0-1.15-1.29,5,5,0,0,0-1.62-.75,7,7,0,0,0-1.88-.26,13.31,13.31,0,0,0-4.45.73,19.41,19.41,0,0,0-3.72,1.79l-3-6.1c.59-.37,1.3-.76,2.1-1.18a21.28,21.28,0,0,1,2.66-1.12,26,26,0,0,1,3.11-.84,17.78,17.78,0,0,1,3.5-.33,19.16,19.16,0,0,1,5.9.81,11,11,0,0,1,4.12,2.29,9.3,9.3,0,0,1,2.41,3.47,11.74,11.74,0,0,1,.78,4.33,8.56,8.56,0,0,1-1.29,4.45,8.47,8.47,0,0,1-3.47,3.27,10.06,10.06,0,0,1,4.68,3.67,10.22,10.22,0,0,1,1.65,5.86,13.3,13.3,0,0,1-.9,5,9.88,9.88,0,0,1-2.8,3.93,13.51,13.51,0,0,1-4.84,2.58A23.55,23.55,0,0,1,106.11,348.41Z"/><path d="M166,308.76v23.3h4.14v6.83H166v8.68h-8.18v-8.68H141.11v-6.1q1.23-2.46,3.08-5.57c1.23-2.08,2.6-4.2,4.11-6.39s3.11-4.32,4.79-6.41a70.21,70.21,0,0,1,5-5.66ZM157.85,319q-2.17,2.85-4.65,6.21a43,43,0,0,0-4.14,6.89h8.79Z"/><path d="M206.8,336.15a5.74,5.74,0,0,0-.73-2.89,5.5,5.5,0,0,0-2.52-2.1,17.83,17.83,0,0,0-4.82-1.28,53.21,53.21,0,0,0-7.61-.45q.62-5.21,1-10.59t.62-10.08h21v7h-14c-.08,1.35-.16,2.65-.25,3.9s-.2,2.34-.31,3.27c5.45.38,9.47,1.65,12.07,3.84a11.26,11.26,0,0,1,3.89,9.1,13,13,0,0,1-.95,5,10.8,10.8,0,0,1-2.86,4,13.43,13.43,0,0,1-4.79,2.63,21.37,21.37,0,0,1-6.74,1,27,27,0,0,1-3.17-.19c-1.1-.13-2.16-.3-3.19-.51s-1.95-.42-2.77-.64a11.9,11.9,0,0,1-1.91-.67l1.52-6.89a24.28,24.28,0,0,0,3.69,1.2,22.45,22.45,0,0,0,5.49.59c2.58,0,4.44-.51,5.6-1.54A4.69,4.69,0,0,0,206.8,336.15Z"/><path d="M249.69,322.82a17.36,17.36,0,0,1,6.19,1,11.29,11.29,0,0,1,4.17,2.66,10,10,0,0,1,2.35,3.92,15.16,15.16,0,0,1,.73,4.76,14.07,14.07,0,0,1-.81,4.59,12.82,12.82,0,0,1-2.46,4.26,13.05,13.05,0,0,1-4.2,3.13,13.61,13.61,0,0,1-6,1.24q-7,0-10.63-4.43t-3.64-12.21a26.36,26.36,0,0,1,1.73-9.91,19.57,19.57,0,0,1,5-7.25,21.63,21.63,0,0,1,7.78-4.48,33,33,0,0,1,10.28-1.6c.07,1.16.15,2.29.22,3.39s.15,2.25.22,3.45a30.77,30.77,0,0,0-5.34.53,17.92,17.92,0,0,0-4.54,1.48,12.18,12.18,0,0,0-3.55,2.61,11.09,11.09,0,0,0-2.36,3.89,10.52,10.52,0,0,1,2.52-.79A15.09,15.09,0,0,1,249.69,322.82Zm-1.06,6.5a16.55,16.55,0,0,0-2.63.22,7.76,7.76,0,0,0-2.19.62c0,.15,0,.37,0,.67s0,.56,0,.78a24.2,24.2,0,0,0,.28,3.81,10.43,10.43,0,0,0,1,3.14,5.43,5.43,0,0,0,1.79,2.1,4.93,4.93,0,0,0,2.8.75,4.47,4.47,0,0,0,2.38-.59,5.35,5.35,0,0,0,1.62-1.48,6.44,6.44,0,0,0,1-2,7.94,7.94,0,0,0,.3-2.1,6.22,6.22,0,0,0-1.42-4.39C252.46,329.83,250.87,329.32,248.63,329.32Z"/><path d="M287.88,347.57a56.87,56.87,0,0,1,1.4-8.51,81.05,81.05,0,0,1,2.61-8.68,71.71,71.71,0,0,1,3.44-8,49.48,49.48,0,0,1,3.87-6.52H282.34v-7.11H309.5v6.05a36.67,36.67,0,0,0-3.95,5.43,62.56,62.56,0,0,0-4.09,7.87,72,72,0,0,0-3.36,9.43,48.66,48.66,0,0,0-1.76,10.08Z"/><path d="M356.26,336.75a12,12,0,0,1-.87,4.63,10.23,10.23,0,0,1-2.6,3.67,12.1,12.1,0,0,1-4.34,2.44,19,19,0,0,1-6,.87,16.92,16.92,0,0,1-6.53-1.1,12.56,12.56,0,0,1-4.2-2.72,9.58,9.58,0,0,1-2.27-3.56,11.1,11.1,0,0,1-.67-3.56,10,10,0,0,1,.45-3.08,9.72,9.72,0,0,1,1.23-2.55,13.29,13.29,0,0,1,1.77-2.11,21.5,21.5,0,0,1,2.1-1.79,15.38,15.38,0,0,1-3.56-3.86,9.25,9.25,0,0,1-1.15-4.86,10.38,10.38,0,0,1,.93-4.31,10.78,10.78,0,0,1,2.6-3.61,12.92,12.92,0,0,1,4.06-2.46,14.65,14.65,0,0,1,5.29-.92,15.7,15.7,0,0,1,5.85,1,12.23,12.23,0,0,1,4,2.49,9.13,9.13,0,0,1,2.27,3.38,10.73,10.73,0,0,1,.7,3.72,9.36,9.36,0,0,1-1.43,5,11,11,0,0,1-3.56,3.66,14.45,14.45,0,0,1,4.57,4.35A10.08,10.08,0,0,1,356.26,336.75Zm-19.38.34a4.41,4.41,0,0,0,1.29,3,5.56,5.56,0,0,0,1.74,1.12,6.57,6.57,0,0,0,2.57.45,5.67,5.67,0,0,0,4.26-1.41,4.51,4.51,0,0,0,.75-5.44A5.8,5.8,0,0,0,345.9,333a11.68,11.68,0,0,0-2.38-1.35c-.92-.39-1.9-.76-2.94-1.09a11.06,11.06,0,0,0-2.63,2.75A6.55,6.55,0,0,0,336.88,337.09Zm10.36-18.42a3.88,3.88,0,0,0-.25-1.32,3.84,3.84,0,0,0-.84-1.31,4.94,4.94,0,0,0-1.48-1,5.15,5.15,0,0,0-2.19-.42,5.33,5.33,0,0,0-2.13.39,4.46,4.46,0,0,0-1.48,1,4.52,4.52,0,0,0-.87,1.37,3.83,3.83,0,0,0-.28,1.4,5.1,5.1,0,0,0,1.32,3.35,10.32,10.32,0,0,0,4.51,2.68,8.84,8.84,0,0,0,2.74-2.57A6.42,6.42,0,0,0,347.24,318.67Z"/><path d="M393.5,332.17a9.6,9.6,0,0,1-2.61.81,14.21,14.21,0,0,1-2.43.26,19.56,19.56,0,0,1-6.22-.87A11.06,11.06,0,0,1,378,329.9a9.66,9.66,0,0,1-2.43-3.83,14.65,14.65,0,0,1-.79-4.93,15.11,15.11,0,0,1,.76-4.59,12.6,12.6,0,0,1,2.38-4.29,12.89,12.89,0,0,1,4.12-3.19,13.19,13.19,0,0,1,6-1.26q7.21,0,10.89,4.45t3.67,12.8a30.13,30.13,0,0,1-1.43,9.69,17.14,17.14,0,0,1-4.43,7.05,19.19,19.19,0,0,1-7.64,4.34,37.29,37.29,0,0,1-11,1.54c0-1.19-.1-2.35-.17-3.47s-.15-2.27-.22-3.47a40.71,40.71,0,0,0,5.76-.48,15.61,15.61,0,0,0,4.54-1.4,10.28,10.28,0,0,0,3.33-2.6A11.75,11.75,0,0,0,393.5,332.17Zm-4.09-5.43a15,15,0,0,0,2.69-.25,5.69,5.69,0,0,0,2.07-.7v-.51a3.37,3.37,0,0,1,0-.44,3,3,0,0,0,0-.4,29.33,29.33,0,0,0-.34-3.78,10.41,10.41,0,0,0-.95-3.08,5.47,5.47,0,0,0-1.82-2.07,5.08,5.08,0,0,0-2.83-.75,4.67,4.67,0,0,0-2.35.56,4.77,4.77,0,0,0-1.63,1.45,6.64,6.64,0,0,0-.92,2,7.27,7.27,0,0,0-.31,2.07,6,6,0,0,0,1.49,4.48C385.55,326.26,387.17,326.74,389.41,326.74Z"/><path d="M431.13,315a14.31,14.31,0,0,0-3.81.5,21.83,21.83,0,0,0-4,1.63L421,310.78a17.81,17.81,0,0,1,5.16-2.16,23.66,23.66,0,0,1,5.82-.75,15.82,15.82,0,0,1,5.91.95,10.24,10.24,0,0,1,3.67,2.41,8.21,8.21,0,0,1,1.87,3.19,11.11,11.11,0,0,1,.53,3.3,8.39,8.39,0,0,1-.47,2.89,11.49,11.49,0,0,1-1.21,2.43,14,14,0,0,1-1.68,2.13c-.63.67-1.25,1.31-1.84,1.91-.45.44-.92.92-1.4,1.42a13.18,13.18,0,0,0-1.32,1.6,9.83,9.83,0,0,0-1,1.76,4.84,4.84,0,0,0-.39,1.88v.67a6.06,6.06,0,0,0,0,.79h-7.39a9.15,9.15,0,0,1-.14-1.26c0-.47,0-.87,0-1.21a9.26,9.26,0,0,1,.4-2.83,11,11,0,0,1,1-2.35,13,13,0,0,1,1.49-2c.56-.64,1.13-1.25,1.73-1.85.86-.86,1.64-1.71,2.35-2.55a4.34,4.34,0,0,0,1.07-2.88,3,3,0,0,0-1-2.3A4.39,4.39,0,0,0,431.13,315Zm5.21,28.17a4.7,4.7,0,0,1-1.6,3.81,5.53,5.53,0,0,1-7.22,0,5.34,5.34,0,0,1,0-7.62,5.53,5.53,0,0,1,7.22,0A4.7,4.7,0,0,1,436.34,343.15Z"/><path d="M473.41,343.15a4.7,4.7,0,0,1-1.6,3.81,5.53,5.53,0,0,1-7.22,0,5.34,5.34,0,0,1,0-7.62,5.53,5.53,0,0,1,7.22,0A4.7,4.7,0,0,1,473.41,343.15Zm-.73-24.36q0,4.53-.34,8.45t-.89,8h-6.39q-.56-4-.92-8t-.36-8.45v-10h8.9Z"/><path d="M506.92,317.56a16.73,16.73,0,0,1,1.41-1.1l1.71-1.17a20.31,20.31,0,0,1,1.77-1.07,11.57,11.57,0,0,1,1.58-.7l1.35-.44L517,320l-1.35.45a9.2,9.2,0,0,1-1.69.33,18.13,18.13,0,0,1-2,.14l-2.08,0h-1.79l1.49,1c.54.39,1.08.8,1.63,1.23s1.05.87,1.54,1.32a8.45,8.45,0,0,1,1.18,1.28l.9,1.18-5.93,4.2L508,330.1a7.58,7.58,0,0,1-.88-1.46c-.28-.59-.55-1.22-.81-1.87a20.29,20.29,0,0,1-.68-1.93l-.51-1.74c-.15.52-.31,1.1-.5,1.74a20.17,20.17,0,0,1-.67,1.93c-.25.65-.52,1.28-.8,1.87a7.6,7.6,0,0,1-.86,1.46l-.84,1.12-5.93-4.2.89-1.18a8.89,8.89,0,0,1,1.17-1.28c.48-.45,1-.89,1.54-1.32s1.07-.84,1.61-1.23,1-.74,1.48-1h-1.79l-2.06,0a18,18,0,0,1-2-.14,9.26,9.26,0,0,1-1.68-.33l-1.34-.45,2.24-6.94,1.34.44a11.51,11.51,0,0,1,1.57.7,20,20,0,0,1,1.75,1.07q.87.58,1.68,1.17c.54.4,1,.76,1.42,1.1-.18-.49-.38-1.06-.58-1.71s-.39-1.32-.58-2-.34-1.33-.47-2a8.82,8.82,0,0,1-.19-1.71v-1.4h7.28v1.4a8.91,8.91,0,0,1-.2,1.71c-.13.66-.29,1.32-.48,2s-.39,1.34-.6,2S507.11,317.07,506.92,317.56Z"/></g></g></svg>