<svg xmlns="http://www.w3.org/2000/svg" viewBox="0 0 520.3 348.41"><defs><style>.cls-1{fill:none;stroke:#001f41;stroke-miterlimit:10;stroke-width:2px;}</style></defs><title>Element 25check</title><g id="Ebene_2" data-name="Ebene 2"><g id="Ebene_1-2" data-name="Ebene 1"><path d="M9.13,20.72a9.21,9.21,0,0,1-3.28-.53,6.09,6.09,0,0,1-2.27-1.48,6,6,0,0,1-1.33-2.27,9.13,9.13,0,0,1-.43-2.89V2.34H5.88V13.21a6.27,6.27,0,0,0,.24,1.86,3.42,3.42,0,0,0,.68,1.24,2.22,2.22,0,0,0,1,.69,4.09,4.09,0,0,0,1.34.21,3.24,3.24,0,0,0,2.4-.91,4.21,4.21,0,0,0,.93-3.09V2.34h4V13.55a9.06,9.06,0,0,1-.44,2.91,5.79,5.79,0,0,1-3.67,3.74A9.45,9.45,0,0,1,9.13,20.72Z"/><path d="M32.92,13.52a8.63,8.63,0,0,1-.49,3A6.23,6.23,0,0,1,31,18.75a6.14,6.14,0,0,1-2.23,1.44,8.39,8.39,0,0,1-3,.51c-.47,0-1,0-1.47-.07s-1-.1-1.5-.17-1-.15-1.42-.25-.85-.19-1.2-.29V.81L24.08.18V7a7.61,7.61,0,0,1,1.35-.44,7.23,7.23,0,0,1,1.51-.15,6.14,6.14,0,0,1,2.57.5,5,5,0,0,1,1.87,1.45,6.5,6.5,0,0,1,1.15,2.24A10.34,10.34,0,0,1,32.92,13.52Zm-4-.1q0-3.75-2.75-3.75A4.43,4.43,0,0,0,25,9.83a3.06,3.06,0,0,0-.94.39v7a5.39,5.39,0,0,0,.72.09c.3,0,.62,0,1,0a2.79,2.79,0,0,0,2.39-1.09A4.79,4.79,0,0,0,29,13.42Z"/><path d="M47.58,19.89a21,21,0,0,1-2.55.53,20.3,20.3,0,0,1-3.28.25,7.77,7.77,0,0,1-2.89-.47A4.37,4.37,0,0,1,37,18.89a5.12,5.12,0,0,1-1-2,10.82,10.82,0,0,1-.28-2.57V6.68h3.87v7.15a5.58,5.58,0,0,0,.49,2.71,2,2,0,0,0,1.85.83c.28,0,.57,0,.88,0l.84-.09V6.68h3.87Z"/><path d="M51.22,7.15a21,21,0,0,1,2.55-.53A20.27,20.27,0,0,1,57,6.37a8.07,8.07,0,0,1,2.9.45,4.49,4.49,0,0,1,1.84,1.29,5.08,5.08,0,0,1,1,2A10.54,10.54,0,0,1,63,12.64v7.72H59.15V13.1a5.34,5.34,0,0,0-.49-2.65,2,2,0,0,0-1.85-.78c-.28,0-.57,0-.89,0l-.83.09V20.36H51.22Z"/><path d="M66.4,3.28l3.88-.63v4h4.65V9.91H70.28v4.81a3.81,3.81,0,0,0,.43,2,1.83,1.83,0,0,0,1.72.72,8.22,8.22,0,0,0,1.29-.11A6.65,6.65,0,0,0,74.93,17l.55,3a11.47,11.47,0,0,1-1.56.49,9.1,9.1,0,0,1-2.11.21,6.89,6.89,0,0,1-2.63-.43A4.12,4.12,0,0,1,67.52,19a4.35,4.35,0,0,1-.87-1.85,11.32,11.32,0,0,1-.25-2.42Z"/><path d="M89.75,19.89a21,21,0,0,1-2.55.53,20.27,20.27,0,0,1-3.27.25A7.79,7.79,0,0,1,81,20.2a4.5,4.5,0,0,1-1.84-1.31,5.12,5.12,0,0,1-1-2A10.82,10.82,0,0,1,78,14.3V6.68h3.87v7.15a5.7,5.7,0,0,0,.49,2.71,2,2,0,0,0,1.85.83c.28,0,.57,0,.88,0l.84-.09V6.68h3.87Z"/><path d="M100.31,0h2.26V25.17h-2.26Z"/><path d="M117.21,20.62a4.72,4.72,0,0,1-3.18-1,3.84,3.84,0,0,1-.93-2.84V.6l2.42-.42V16.43a3.92,3.92,0,0,0,.1,1A1.29,1.29,0,0,0,116,18a1.4,1.4,0,0,0,.62.36,7.39,7.39,0,0,0,1,.19Z"/><path d="M121.44,4.39a1.52,1.52,0,0,1-1.56-1.58,1.56,1.56,0,1,1,3.12,0A1.51,1.51,0,0,1,122.55,4,1.53,1.53,0,0,1,121.44,4.39Zm1.23,16h-2.42V6.84h2.42Z"/><path d="M135.3,19a7.48,7.48,0,0,1-1.21.53,6,6,0,0,1-2.09.32,6.69,6.69,0,0,1-2.3-.39,5,5,0,0,1-1.89-1.21,5.8,5.8,0,0,1-1.27-2,8.14,8.14,0,0,1-.47-2.91,8.17,8.17,0,0,1,.44-2.72,6.21,6.21,0,0,1,1.29-2.13,5.83,5.83,0,0,1,2.07-1.4,7.06,7.06,0,0,1,2.75-.51,15,15,0,0,1,2.95.25c.85.16,1.55.32,2.12.45V19.32c0,2.08-.53,3.59-1.61,4.52a7.25,7.25,0,0,1-4.89,1.41,13.07,13.07,0,0,1-2.4-.21,13.54,13.54,0,0,1-2-.5l.44-2.1a10.54,10.54,0,0,0,1.78.5,10.45,10.45,0,0,0,2.2.23,4.58,4.58,0,0,0,3.1-.86,3.48,3.48,0,0,0,1-2.73Zm0-10a9.38,9.38,0,0,0-1-.2,11.93,11.93,0,0,0-1.65-.09,3.67,3.67,0,0,0-3,1.28,5.09,5.09,0,0,0-1.06,3.38,5.89,5.89,0,0,0,.3,2,4.06,4.06,0,0,0,.81,1.38,3.18,3.18,0,0,0,1.17.8,3.54,3.54,0,0,0,1.36.26,5.57,5.57,0,0,0,1.77-.27,4.06,4.06,0,0,0,1.27-.64Z"/><path d="M141.85,20.36V.6l2.42-.42V7.1a8,8,0,0,1,1.44-.41,8.89,8.89,0,0,1,1.53-.14,6.7,6.7,0,0,1,2.67.46,4.18,4.18,0,0,1,1.71,1.27,5,5,0,0,1,.89,2,11.11,11.11,0,0,1,.26,2.53v7.59h-2.42V13.29a11.9,11.9,0,0,0-.16-2.14,3.75,3.75,0,0,0-.56-1.43,2.28,2.28,0,0,0-1-.79A4.69,4.69,0,0,0,147,8.68a5.62,5.62,0,0,0-.81.06l-.79.11c-.26.05-.48.09-.68.15a2.93,2.93,0,0,0-.43.13V20.36Z"/><path d="M159,6.84h5.12v2H159v6.24a7.09,7.09,0,0,0,.16,1.67,2.57,2.57,0,0,0,.46,1,1.75,1.75,0,0,0,.79.54,3.54,3.54,0,0,0,1.09.15,5,5,0,0,0,1.75-.25l.93-.35.46,2a8.66,8.66,0,0,1-1.27.45,7.34,7.34,0,0,1-2.08.27,6.21,6.21,0,0,1-2.28-.35,3.33,3.33,0,0,1-1.44-1.05,4.29,4.29,0,0,1-.77-1.73,11.91,11.91,0,0,1-.22-2.38V3.07L159,2.65Z"/><line class="cls-1" y1="36.06" x2="520.3" y2="36.06"/><path d="M31.24,103.57c-.74-1.9-1.43-3.74-2-5.5S28,94.6,27.41,92.93h-19q-1,2.52-1.9,5.16t-2,5.48h-4q2.21-6.06,4.17-11.29t3.86-9.9q1.89-4.68,3.75-9t3.92-8.64h3.36q2.05,4.32,3.9,8.63t3.74,9Q29.2,87,31.15,92.28t4.29,11.29ZM17.88,69.13Q15.78,74,13.78,79T9.65,89.68H26.21Q24.07,83.92,22,78.93C20.67,75.61,19.28,72.34,17.88,69.13Z"/><path d="M57.61,103.91c-.63,0-1.37,0-2.21-.09s-1.7-.13-2.57-.22-1.71-.2-2.5-.34-1.45-.27-2-.42V65.49A21.87,21.87,0,0,1,50.56,65c.82-.13,1.67-.25,2.54-.34s1.74-.16,2.58-.2,1.62,0,2.32,0a34.67,34.67,0,0,1,6,.5,16.21,16.21,0,0,1,5,1.68,9.39,9.39,0,0,1,3.39,3.1,8.57,8.57,0,0,1,1.26,4.78A8.89,8.89,0,0,1,72,79.83a8.09,8.09,0,0,1-4.29,3A13.22,13.22,0,0,1,70.77,84a8.94,8.94,0,0,1,2.47,1.88,8,8,0,0,1,1.65,2.8,12,12,0,0,1,.59,4A9.43,9.43,0,0,1,71.11,101Q66.75,103.92,57.61,103.91ZM52.13,81.68h7.39a23.33,23.33,0,0,0,3.92-.31,9.42,9.42,0,0,0,3.22-1.11,5.91,5.91,0,0,0,2.15-2.18,7,7,0,0,0,.79-3.49,5.8,5.8,0,0,0-.84-3.2,6.38,6.38,0,0,0-2.38-2.15A11.73,11.73,0,0,0,62.71,68,28.36,28.36,0,0,0,58,67.68c-1.38,0-2.54,0-3.5.11s-1.74.17-2.37.28Zm0,3.24v15.35c.55.07,1.39.16,2.52.25s2.25.14,3.41.14a35.62,35.62,0,0,0,5-.34,14,14,0,0,0,4.29-1.23,7.76,7.76,0,0,0,3-2.48,6.82,6.82,0,0,0,1.11-4,8,8,0,0,0-.78-3.74,5.91,5.91,0,0,0-2.24-2.36,10.09,10.09,0,0,0-3.56-1.21,30.09,30.09,0,0,0-4.67-.34Z"/><path d="M107.06,104.41a18,18,0,0,1-7-1.34,15.87,15.87,0,0,1-5.6-3.92,18.48,18.48,0,0,1-3.75-6.36,25.12,25.12,0,0,1-1.38-8.65,23.51,23.51,0,0,1,1.49-8.65,19.18,19.18,0,0,1,4-6.36,16.35,16.35,0,0,1,5.71-3.89,17.79,17.79,0,0,1,6.77-1.32,26.71,26.71,0,0,1,4,.28,22.8,22.8,0,0,1,3.14.7,22,22,0,0,1,2.29.84,10.41,10.41,0,0,1,1.46.76l-1.23,3.3a22.35,22.35,0,0,0-3.56-1.65,17.47,17.47,0,0,0-11.7.42A12.49,12.49,0,0,0,97.09,72a15.22,15.22,0,0,0-2.77,5.32,23.68,23.68,0,0,0-.92,6.84,24.31,24.31,0,0,0,.92,7A15,15,0,0,0,97,96.46a11.9,11.9,0,0,0,4.39,3.36,14.46,14.46,0,0,0,6,1.18,23.48,23.48,0,0,0,6.18-.7,18.09,18.09,0,0,0,3.78-1.43l1.07,3.25a6.64,6.64,0,0,1-1.35.64,25,25,0,0,1-2.4.76,27.27,27.27,0,0,1-3.36.64A32.36,32.36,0,0,1,107.06,104.41Z"/><path d="M163.17,84.14a22,22,0,0,1-1.57,8.68A16.65,16.65,0,0,1,157.21,99a18.73,18.73,0,0,1-6.75,3.7,28.7,28.7,0,0,1-8.63,1.23c-1.56,0-3.21-.09-4.92-.25a29.94,29.94,0,0,1-4.54-.76V65.49a26.32,26.32,0,0,1,4.54-.81c1.71-.17,3.36-.25,4.92-.25a28.7,28.7,0,0,1,8.63,1.23,18.58,18.58,0,0,1,6.75,3.7,16.57,16.57,0,0,1,4.39,6.16A21.85,21.85,0,0,1,163.17,84.14Zm-27,16.07c.22,0,.79.11,1.71.23a41.42,41.42,0,0,0,4.39.16,21.47,21.47,0,0,0,7.34-1.14,14.3,14.3,0,0,0,5.26-3.28,13.46,13.46,0,0,0,3.2-5.18,21,21,0,0,0,1.06-6.86,20.7,20.7,0,0,0-1.06-6.83,13.49,13.49,0,0,0-3.2-5.15,14.3,14.3,0,0,0-5.26-3.28,21.46,21.46,0,0,0-7.34-1.15,40.75,40.75,0,0,0-4.39.17l-1.71.22Z"/><path d="M179,103.57V64.76h22.4v3.31H182.83V81.56H199.4v3.25H182.83v15.46h20v3.3Z"/><path d="M217.43,103.57V64.76h22.13v3.31H221.24V81.73h16.24V85H221.24v18.53Z"/><path d="M278.08,85.2h3.81v17.31a29.85,29.85,0,0,1-4.17,1.15,35.84,35.84,0,0,1-7.64.7A18.2,18.2,0,0,1,263,103a15.86,15.86,0,0,1-5.63-3.89,17.8,17.8,0,0,1-3.72-6.33,25.63,25.63,0,0,1-1.35-8.65,23.94,23.94,0,0,1,1.46-8.65,18.37,18.37,0,0,1,4-6.33,16.84,16.84,0,0,1,5.79-3.89,18.52,18.52,0,0,1,7.06-1.35,23,23,0,0,1,7.11.93,18.3,18.3,0,0,1,4.09,1.76l-1.29,3.25A13,13,0,0,0,276.23,68a22.87,22.87,0,0,0-5.82-.7,14.43,14.43,0,0,0-5.49,1.06,12.28,12.28,0,0,0-4.48,3.2,15.21,15.21,0,0,0-3,5.26,22.07,22.07,0,0,0-1.1,7.28,25,25,0,0,0,.9,7A14.56,14.56,0,0,0,260,96.43a11.82,11.82,0,0,0,4.5,3.39,15.51,15.51,0,0,0,6.22,1.18,31.9,31.9,0,0,0,4.79-.31,13.51,13.51,0,0,0,2.6-.59Z"/><path d="M322.94,64.76h3.81v38.81h-3.81V84.92H301.88v18.65h-3.81V64.76h3.81V81.62h21.06Z"/><path d="M344.16,64.76H348v38.81h-3.81Z"/><path d="M382.74,91.36a22.17,22.17,0,0,1-.56,5.18,10.52,10.52,0,0,1-1.93,4.15,9.05,9.05,0,0,1-3.64,2.74,14.22,14.22,0,0,1-5.68,1,17.66,17.66,0,0,1-3.7-.36,18.86,18.86,0,0,1-3-.87,13.05,13.05,0,0,1-2.15-1.06,8.53,8.53,0,0,1-1.32-1L362.58,98c.34.3.76.62,1.26,1a11.26,11.26,0,0,0,1.77,1,12.26,12.26,0,0,0,2.24.73,12.55,12.55,0,0,0,2.69.28q4.31,0,6.35-2.27c1.36-1.51,2.05-4.1,2.05-7.76V64.76h3.8Z"/><path d="M423.68,103.57a63.1,63.1,0,0,0-4.28-5.77,66,66,0,0,0-5-5.39,64,64,0,0,0-5.34-4.6,43.37,43.37,0,0,0-5.24-3.47v19.23H400V64.76h3.81V82.82c1.42-1.26,3-2.73,4.74-4.38s3.45-3.33,5.15-5,3.3-3.28,4.79-4.81,2.69-2.81,3.59-3.86h4.59q-1.62,1.74-3.92,4.11t-4.88,4.9c-1.72,1.68-3.43,3.32-5.12,5s-3.23,3-4.57,4.27a40.09,40.09,0,0,1,3.5,2.5q1.88,1.49,3.81,3.25t3.8,3.7q1.88,1.94,3.53,3.9t3,3.81a33.2,33.2,0,0,1,2.16,3.42Z"/><path d="M462.94,100.27v3.3H440.87V64.76h3.81v35.51Z"/><path d="M493.79,98c-.37-.93-.91-2.16-1.6-3.69s-1.47-3.2-2.34-5-1.74-3.67-2.64-5.6-1.76-3.72-2.59-5.4-1.55-3.15-2.19-4.42-1.11-2.17-1.41-2.69q-.72,7-1.14,15.2t-.76,17.22h-3.75q.5-10.57,1.15-20.27t1.59-18.54h3.36q1.68,2.8,3.59,6.47c1.27,2.45,2.54,5,3.79,7.62s2.47,5.23,3.65,7.78,2.21,4.87,3.11,6.92q1.35-3.08,3.12-6.92c1.17-2.55,2.39-5.15,3.64-7.78s2.52-5.17,3.79-7.62,2.47-4.6,3.59-6.47h3.19q1,8.85,1.6,18.54t1.15,20.27h-3.87q-.33-9-.75-17.22t-1.15-15.2c-.3.52-.77,1.42-1.4,2.69s-1.36,2.74-2.18,4.42-1.68,3.48-2.58,5.4-1.77,3.79-2.63,5.6-1.64,3.49-2.33,5S497.58,97,497.21,98Z"/><path d="M31.52,164.57c-.72-1.3-1.63-2.83-2.71-4.59s-2.3-3.64-3.63-5.62-2.72-4-4.16-6.15S18.13,144,16.7,142s-2.84-3.88-4.21-5.62-2.59-3.26-3.65-4.54v32.69H5.08V125.76h3c1.9,2.13,4,4.59,6.12,7.37s4.32,5.63,6.41,8.52,4,5.72,5.86,8.48,3.3,5.17,4.46,7.22V125.76h3.75v38.81Z"/><path d="M83,145.14a24.54,24.54,0,0,1-1.45,8.79,18.47,18.47,0,0,1-4,6.36,16.18,16.18,0,0,1-5.8,3.83,19.64,19.64,0,0,1-14,0A16.14,16.14,0,0,1,52,160.29a18.18,18.18,0,0,1-4-6.36,24.54,24.54,0,0,1-1.46-8.79A24.29,24.29,0,0,1,48,136.38a18.23,18.23,0,0,1,4-6.33,16.3,16.3,0,0,1,5.79-3.84,19.64,19.64,0,0,1,14,0,16.34,16.34,0,0,1,5.8,3.84,18.52,18.52,0,0,1,4,6.33A24.3,24.3,0,0,1,83,145.14Zm-4,0a22.81,22.81,0,0,0-1-7,15.36,15.36,0,0,0-2.86-5.29,12.05,12.05,0,0,0-4.45-3.33,15.45,15.45,0,0,0-11.7,0,12.05,12.05,0,0,0-4.45,3.33,15.53,15.53,0,0,0-2.86,5.29,25,25,0,0,0,0,14.06,15.53,15.53,0,0,0,2.86,5.29,12.35,12.35,0,0,0,4.45,3.36,15.09,15.09,0,0,0,11.7,0,12.35,12.35,0,0,0,4.45-3.36,15.36,15.36,0,0,0,2.86-5.29A22.81,22.81,0,0,0,79,145.14Z"/><path d="M104.65,125.43q8.23,0,12.27,3.13a10.66,10.66,0,0,1,4,8.91,12.29,12.29,0,0,1-1.18,5.63,9.49,9.49,0,0,1-3.36,3.75,15.28,15.28,0,0,1-5.34,2.07,36,36,0,0,1-7.15.64H98.66v15H94.85V126.49a27.87,27.87,0,0,1,4.73-.81C101.4,125.51,103.08,125.43,104.65,125.43Zm.17,3.3c-1.42,0-2.62.05-3.61.14l-2.55.25v17.14h4.82a39.19,39.19,0,0,0,5.57-.36,12.48,12.48,0,0,0,4.26-1.35,6.8,6.8,0,0,0,2.71-2.71,9.11,9.11,0,0,0,1-4.43,8,8,0,0,0-1-4.25,7.62,7.62,0,0,0-2.75-2.66,12,12,0,0,0-3.89-1.38A25.48,25.48,0,0,0,104.82,128.73Z"/><path d="M166.2,145.14a24.81,24.81,0,0,1-1.18,8,19.44,19.44,0,0,1-3.19,6,15.85,15.85,0,0,1-4.76,4,18.06,18.06,0,0,1-5.88,2,4.41,4.41,0,0,0,1.43,2.69,10.7,10.7,0,0,0,2.91,1.9,18.63,18.63,0,0,0,3.78,1.26c1.38.32,2.72.57,4,.76l-.78,3.19c-1.42-.26-2.95-.59-4.6-1a22.88,22.88,0,0,1-4.67-1.65,13.48,13.48,0,0,1-3.84-2.72,8,8,0,0,1-2.12-4.17,18.83,18.83,0,0,1-6.78-1.45,16.06,16.06,0,0,1-5.57-3.9,18.38,18.38,0,0,1-3.78-6.3,27.21,27.21,0,0,1,.05-17.38,18.37,18.37,0,0,1,3.95-6.33,16.25,16.25,0,0,1,5.8-3.84,19.64,19.64,0,0,1,14,0,16.3,16.3,0,0,1,5.79,3.84,18.37,18.37,0,0,1,4,6.33A24.29,24.29,0,0,1,166.2,145.14Zm-4,0a22.81,22.81,0,0,0-1-7,15.53,15.53,0,0,0-2.86-5.29,12.13,12.13,0,0,0-4.45-3.33,15.48,15.48,0,0,0-11.71,0,12.13,12.13,0,0,0-4.45,3.33,15.51,15.51,0,0,0-2.85,5.29,25,25,0,0,0,0,14.06,15.51,15.51,0,0,0,2.85,5.29,12.44,12.44,0,0,0,4.45,3.36,15.12,15.12,0,0,0,11.71,0,12.44,12.44,0,0,0,4.45-3.36,15.53,15.53,0,0,0,2.86-5.29A22.81,22.81,0,0,0,162.17,145.14Z"/><path d="M203.94,137.41a9.86,9.86,0,0,1-2.3,6.89,13,13,0,0,1-6,3.64c.59.75,1.37,1.76,2.32,3s1.93,2.66,2.94,4.18,2,3.09,3,4.73a47.77,47.77,0,0,1,2.46,4.7H202.2q-1.17-2.23-2.54-4.48t-2.8-4.34c-1-1.4-1.88-2.69-2.78-3.89l-2.35-3.14a35.74,35.74,0,0,1-3.58.17h-6.27v15.68h-3.81V126.49a27.69,27.69,0,0,1,4.73-.81c1.81-.17,3.48-.25,5-.25q8,0,12.07,3T203.94,137.41Zm-15.68-8.68c-1.42,0-2.66.05-3.72.14l-2.66.25v16.52h5.26a46.22,46.22,0,0,0,5-.25,12,12,0,0,0,4.09-1.12,6.75,6.75,0,0,0,2.75-2.49,8.36,8.36,0,0,0,1-4.42,8.19,8.19,0,0,0-1-4.26,7.64,7.64,0,0,0-2.64-2.66,10.63,10.63,0,0,0-3.72-1.34A24.68,24.68,0,0,0,188.26,128.73Z"/><path d="M224.38,162.11a12.78,12.78,0,0,0,7.06-1.66q2.52-1.65,2.52-5.36a7.13,7.13,0,0,0-.82-3.56,7.63,7.63,0,0,0-2.15-2.41,13.94,13.94,0,0,0-3.08-1.68L224.27,146a41.22,41.22,0,0,1-4.31-2,14.37,14.37,0,0,1-3.25-2.26,8.6,8.6,0,0,1-2.05-2.88,9.67,9.67,0,0,1-.7-3.81q0-5,3.31-7.56t9.18-2.58a20.87,20.87,0,0,1,3.08.23,22.39,22.39,0,0,1,2.83.59,20.58,20.58,0,0,1,2.41.81,9.57,9.57,0,0,1,1.82,1l-1.35,3.19a13.79,13.79,0,0,0-3.94-1.79,17.92,17.92,0,0,0-5-.67,14.79,14.79,0,0,0-3.38.36,7.44,7.44,0,0,0-2.66,1.18,5.8,5.8,0,0,0-1.77,2,6.32,6.32,0,0,0-.64,3,6.19,6.19,0,0,0,.67,3,6.35,6.35,0,0,0,1.88,2.13,15,15,0,0,0,2.82,1.63c1.09.48,2.26,1,3.53,1.51,1.53.63,3,1.27,4.34,1.9a15.88,15.88,0,0,1,3.56,2.24,9.59,9.59,0,0,1,2.41,3.14,10.42,10.42,0,0,1,.89,4.53c0,3.51-1.22,6.15-3.67,7.9s-5.76,2.63-9.94,2.63a26.87,26.87,0,0,1-4.08-.28,24.78,24.78,0,0,1-3.31-.7,19,19,0,0,1-2.46-.87,14.25,14.25,0,0,1-1.57-.78l1.23-3.3c.37.22.88.48,1.51.78a19.53,19.53,0,0,0,2.24.87,21.27,21.27,0,0,0,2.92.7A20.73,20.73,0,0,0,224.38,162.11Z"/><path d="M273,125.76v3.31H260.56v35.5h-3.81v-35.5H244.32v-3.31Z"/><path d="M296.4,165.41a16.58,16.58,0,0,1-6.58-1.17,11.36,11.36,0,0,1-4.4-3.25,13.13,13.13,0,0,1-2.44-4.85,22.68,22.68,0,0,1-.75-6V125.76H286v23.92a18,18,0,0,0,.75,5.51,10.86,10.86,0,0,0,2.1,3.84,8.26,8.26,0,0,0,3.25,2.24,12.77,12.77,0,0,0,8.51,0A8.26,8.26,0,0,0,303.9,159a10.56,10.56,0,0,0,2.1-3.84,18,18,0,0,0,.75-5.51V125.76h3.81v24.42a22.68,22.68,0,0,1-.75,6,13.13,13.13,0,0,1-2.44,4.85,11.4,11.4,0,0,1-4.39,3.25A16.65,16.65,0,0,1,296.4,165.41Z"/><path d="M323.61,125.76q1.68,5,3.25,9.44t3.1,8.62Q331.48,148,333,152c1,2.67,2.16,5.37,3.38,8.09,1.16-2.68,2.26-5.35,3.32-8s2.1-5.39,3.13-8.17,2.07-5.66,3.11-8.65,2.11-6.14,3.23-9.48h4q-2.58,7.36-4.64,12.9t-3.81,10q-1.76,4.48-3.34,8.27t-3.34,7.62h-3.57c-1.13-2.58-2.24-5.14-3.33-7.66s-2.22-5.27-3.41-8.25-2.46-6.32-3.83-10-2.9-8-4.62-12.89Z"/><path d="M385.8,130.52q2.7,9,5.39,16.32t5.31,13.42q1.92-6.62,3.87-15.56t3.77-18.94h3.75q-1,6-2.06,11.24t-2.15,10c-.76,3.15-1.55,6.18-2.37,9.07s-1.73,5.73-2.71,8.53h-4.09l-2.64-6.39q-1.31-3.19-2.61-6.58c-.86-2.26-1.73-4.61-2.59-7.08s-1.73-5.07-2.61-7.84q-1.32,4.17-2.63,7.86c-.88,2.47-1.74,4.83-2.6,7.09s-1.73,4.45-2.6,6.58-1.78,4.25-2.69,6.36h-4c-1-2.8-1.94-5.65-2.79-8.54s-1.63-5.92-2.36-9.08-1.42-6.47-2.08-10-1.33-7.23-2-11.23h3.92q.87,4.94,1.75,9.66t1.88,9.16q1,4.42,2,8.37t2.06,7.31q2.38-6.21,5.15-13.46t5.44-16.28Z"/><path d="M441.21,125.76h4.26l-12.68,18.79q3.69,5,7.21,10a94.44,94.44,0,0,1,6.14,10H442c-.58-1.13-1.31-2.37-2.18-3.75S438,158,437,156.5s-2.09-3-3.19-4.54-2.15-2.93-3.15-4.27c-1,1.33-2.08,2.76-3.19,4.27s-2.18,3-3.21,4.54-2,2.95-2.87,4.32a33.26,33.26,0,0,0-2.13,3.75h-4a93.46,93.46,0,0,1,6.15-10q3.52-5,7.18-10L415.9,125.76h4.37l10.46,15.7Z"/><path d="M466.35,164.57v-16q-4-6.11-7.34-11.79t-6.21-11.06h4.42q2.37,4.94,5.2,10t5.92,9.66q3-4.59,5.84-9.66t5.28-10h4.14q-3,5.33-6.27,11.06t-7.17,11.68v16.07Z"/><path d="M516.64,129.24c-.9,1-1.93,2.31-3.11,3.8s-2.43,3.13-3.78,4.9-2.71,3.66-4.11,5.66-2.78,4-4.14,6.05-2.65,4-3.86,6-2.31,3.84-3.27,5.6H517.2v3.3h-27v-2.85c.82-1.61,1.8-3.37,2.94-5.3s2.36-3.9,3.67-5.93,2.66-4.08,4.08-6.13,2.82-4,4.2-5.91,2.7-3.63,3.95-5.24,2.4-3,3.45-4.14H491.27v-3.31h25.37Z"/><path d="M13.65,196a12.88,12.88,0,0,1,4.85.81A8.35,8.35,0,0,1,21.72,199a8.76,8.76,0,0,1,1.79,3.39,15.55,15.55,0,0,1,.56,4.25V224.9c-.37.11-.92.23-1.62.36s-1.54.28-2.47.42-2,.28-3.11.37-2.3.14-3.5.14a16.43,16.43,0,0,1-4.22-.51,9.17,9.17,0,0,1-3.36-1.59,7.45,7.45,0,0,1-2.24-2.8,9.54,9.54,0,0,1-.82-4.17,8.46,8.46,0,0,1,.9-4,7.69,7.69,0,0,1,2.52-2.77A11.12,11.12,0,0,1,10,208.72a22,22,0,0,1,4.88-.51,16.07,16.07,0,0,1,1.65.09c.58,0,1.14.13,1.68.22s1,.19,1.4.28a4.45,4.45,0,0,1,.81.25v-1.79a20.13,20.13,0,0,0-.22-2.94,6.56,6.56,0,0,0-1-2.58,5.49,5.49,0,0,0-2.13-1.84,8,8,0,0,0-3.61-.7,19.11,19.11,0,0,0-4.76.44c-1.05.3-1.82.55-2.3.73l-.51-3.19a13.48,13.48,0,0,1,2.95-.84A25.19,25.19,0,0,1,13.65,196Zm.34,27c1.42,0,2.66-.05,3.72-.14a24.57,24.57,0,0,0,2.72-.36v-10.2a11.29,11.29,0,0,0-2-.58,17.08,17.08,0,0,0-3.7-.31,21.14,21.14,0,0,0-2.8.19,8.48,8.48,0,0,0-2.68.84,5.49,5.49,0,0,0-2,1.77,5.09,5.09,0,0,0-.78,3A6.29,6.29,0,0,0,7,219.86a4.4,4.4,0,0,0,1.51,1.79,6.58,6.58,0,0,0,2.35,1A14,14,0,0,0,14,222.94Z"/><path d="M51,198.36a12.92,12.92,0,0,1,3.06-1.54A13.72,13.72,0,0,1,59,196a13.28,13.28,0,0,1,5.57,1.12,11.64,11.64,0,0,1,4.12,3.14,13.83,13.83,0,0,1,2.55,4.79,20.19,20.19,0,0,1,.87,6.07,18.11,18.11,0,0,1-1,6.33,13.52,13.52,0,0,1-2.91,4.76,12.53,12.53,0,0,1-4.48,3,15.6,15.6,0,0,1-5.8,1,33.16,33.16,0,0,1-6.38-.5,34.62,34.62,0,0,1-4.15-1.06V182.79l3.64-.67Zm0,23.8a17.79,17.79,0,0,0,2.5.53,29.62,29.62,0,0,0,4.34.25,9.9,9.9,0,0,0,7.56-3.05q2.85-3.06,2.85-8.77a20.36,20.36,0,0,0-.5-4.56,10.82,10.82,0,0,0-1.62-3.75,8.13,8.13,0,0,0-2.95-2.55,9.67,9.67,0,0,0-4.5-.95,11.69,11.69,0,0,0-2.47.25,13.44,13.44,0,0,0-4,1.48,13.71,13.71,0,0,0-1.26.84Z"/><path d="M106,226.19a15.47,15.47,0,0,1-5.94-1.07,11,11,0,0,1-4.28-3.05,13.61,13.61,0,0,1-2.61-4.76,20.08,20.08,0,0,1-.89-6.13A19.67,19.67,0,0,1,93.2,205a14,14,0,0,1,2.66-4.81,11.76,11.76,0,0,1,4.2-3.11A13.49,13.49,0,0,1,105.6,196a23.46,23.46,0,0,1,4.4.39,11,11,0,0,1,3.16,1l-1,3.13a11.65,11.65,0,0,0-2.52-.89,16.28,16.28,0,0,0-3.75-.34q-4.81,0-7.31,3.11t-2.49,8.82a18.88,18.88,0,0,0,.56,4.73,9.51,9.51,0,0,0,1.82,3.7,8.47,8.47,0,0,0,3.25,2.41,12,12,0,0,0,4.84.86,12.46,12.46,0,0,0,4-.53,15.51,15.51,0,0,0,2.32-.92l.79,3.13a13.53,13.53,0,0,1-3.17,1.1A18.93,18.93,0,0,1,106,226.19Z"/><path d="M156.79,224.68a34.62,34.62,0,0,1-4.15,1.06,33.16,33.16,0,0,1-6.38.5,15.6,15.6,0,0,1-5.8-1,12.53,12.53,0,0,1-4.48-3,13.52,13.52,0,0,1-2.91-4.76,18.11,18.11,0,0,1-1-6.33,20.19,20.19,0,0,1,.86-6.07,13.83,13.83,0,0,1,2.55-4.79,11.64,11.64,0,0,1,4.12-3.14,13.28,13.28,0,0,1,5.57-1.12,13.78,13.78,0,0,1,5,.82,12.81,12.81,0,0,1,3.05,1.54V182.79l3.64-.67Zm-3.64-22.8a13.71,13.71,0,0,0-1.26-.84,14,14,0,0,0-1.77-.84,14.68,14.68,0,0,0-2.18-.64,11.6,11.6,0,0,0-2.46-.25,9.68,9.68,0,0,0-4.51.95,8,8,0,0,0-2.94,2.55,10.65,10.65,0,0,0-1.63,3.75,20.36,20.36,0,0,0-.5,4.56q0,5.72,2.85,8.77a9.91,9.91,0,0,0,7.57,3.05,29.8,29.8,0,0,0,4.34-.25,17.28,17.28,0,0,0,2.49-.53Z"/><path d="M178.68,211.07a18.59,18.59,0,0,1,1.09-6.64,14.82,14.82,0,0,1,2.86-4.73,11.33,11.33,0,0,1,4-2.83,12.39,12.39,0,0,1,4.68-.92,10.92,10.92,0,0,1,8.48,3.47q3.17,3.48,3.17,10.7c0,.3,0,.59,0,.89s-.05.58-.08.84H182.55c.11,3.55,1,6.27,2.63,8.18s4.25,2.85,7.84,2.85a15.56,15.56,0,0,0,4.7-.56,19.09,19.09,0,0,0,2.52-.95l.68,3.14a15.45,15.45,0,0,1-2.94,1.06,18.6,18.6,0,0,1-5.07.62,16.82,16.82,0,0,1-6.5-1.12,11.55,11.55,0,0,1-4.42-3.14,12.29,12.29,0,0,1-2.52-4.79A21.91,21.91,0,0,1,178.68,211.07Zm20.56-2.3a11.55,11.55,0,0,0-2.13-7.05,6.9,6.9,0,0,0-5.71-2.52,7.61,7.61,0,0,0-3.5.78,8.71,8.71,0,0,0-2.69,2.1,9.59,9.59,0,0,0-1.79,3,12.36,12.36,0,0,0-.76,3.64Z"/><path d="M235.75,182.12a16.74,16.74,0,0,1,3.83.36,7.93,7.93,0,0,1,1.93.64l-.72,3.14a11.81,11.81,0,0,0-1.82-.59,12.9,12.9,0,0,0-3.05-.31c-2.58,0-4.42.66-5.52,2s-1.65,3.4-1.65,6.28v3h11.64v3.08H228.75v25.87h-3.64V193.48c0-3.77.86-6.6,2.6-8.51S232.13,182.12,235.75,182.12Z"/><path d="M279,222.21a6.7,6.7,0,0,1-1,.65,16.11,16.11,0,0,1-1.66.75,13,13,0,0,1-2.24.65,15.67,15.67,0,0,1-7.7-.54,10.83,10.83,0,0,1-4.11-2.46,12.07,12.07,0,0,1-2.83-4.34,17.43,17.43,0,0,1-1.06-6.47,16.57,16.57,0,0,1,.95-5.71,13.44,13.44,0,0,1,2.71-4.56,12.4,12.4,0,0,1,4.32-3,14.37,14.37,0,0,1,5.74-1.09,31.79,31.79,0,0,1,6.46.53c1.63.36,3,.7,4,1v26.43q0,6.49-3.36,9.27t-10.14,2.77a27.75,27.75,0,0,1-9-1.4l.73-3.3a16.83,16.83,0,0,0,3.67,1.06,24.55,24.55,0,0,0,4.67.45q5.16,0,7.48-2t2.32-6.8Zm0-22.06a19.69,19.69,0,0,0-2.47-.53,27.41,27.41,0,0,0-4.31-.26,10.14,10.14,0,0,0-4.17.82,8.83,8.83,0,0,0-3.11,2.29,10.2,10.2,0,0,0-2,3.53,14.33,14.33,0,0,0-.67,4.51,13.76,13.76,0,0,0,.78,4.9,9.76,9.76,0,0,0,2.05,3.33,7.73,7.73,0,0,0,2.88,1.88,9.7,9.7,0,0,0,3.31.58,13.44,13.44,0,0,0,4.5-.72A10.34,10.34,0,0,0,279,218.8Z"/><path d="M306.25,225.57V182.79l3.64-.67v15.34a23.54,23.54,0,0,1,3.64-1,19.25,19.25,0,0,1,3.7-.36,14.48,14.48,0,0,1,5.6.95,8.71,8.71,0,0,1,3.58,2.72,10.49,10.49,0,0,1,1.88,4.23,26,26,0,0,1,.53,5.43v16.18h-3.64v-15a27.36,27.36,0,0,0-.42-5.2,8.79,8.79,0,0,0-1.4-3.48,5.46,5.46,0,0,0-2.61-1.93,12.14,12.14,0,0,0-4.08-.59,13.8,13.8,0,0,0-2.05.17c-.73.11-1.41.24-2,.37s-1.21.27-1.71.42a9.28,9.28,0,0,0-1,.33v24.92Z"/><path d="M356.59,187.88a2.74,2.74,0,0,1-.78,2.05,2.79,2.79,0,0,1-3.81,0,3.07,3.07,0,0,1,0-4.09,2.77,2.77,0,0,1,3.81,0A2.71,2.71,0,0,1,356.59,187.88Zm-.84,37.69h-3.64V196.62h3.64Z"/><path d="M374,236a9,9,0,0,1-1.54-.16,5.76,5.76,0,0,1-1.37-.4l.51-3a10,10,0,0,0,1.06.22,7.33,7.33,0,0,0,1.29.11c2.2,0,3.67-.61,4.39-1.85a11.09,11.09,0,0,0,1.1-5.54V196.62H383v28.67c0,3.66-.7,6.37-2.08,8.12S377.24,236,374,236Zm9.92-48.16a2.74,2.74,0,0,1-.79,2.05,2.79,2.79,0,0,1-3.81,0,3.07,3.07,0,0,1,0-4.09,2.77,2.77,0,0,1,3.81,0A2.72,2.72,0,0,1,383.87,187.88Z"/><path d="M413.94,209.81a41.12,41.12,0,0,1,4,3.22c1.35,1.22,2.67,2.53,4,3.95s2.54,2.88,3.69,4.38a48,48,0,0,1,2.95,4.21h-4.37a36.32,36.32,0,0,0-3.05-4.33,49.68,49.68,0,0,0-3.64-4q-1.9-1.87-3.82-3.42a21,21,0,0,0-3.37-2.32v14.06h-3.64V182.79l3.64-.67v27q1.17-1,2.91-2.73c1.16-1.15,2.35-2.31,3.55-3.47s2.34-2.3,3.42-3.39,2-2.05,2.69-2.88h4.45c-.86.9-1.84,1.89-2.95,3L420.9,203l-3.55,3.5C416.18,207.68,415.05,208.77,413.94,209.81Z"/><path d="M455.71,226.08a12.48,12.48,0,0,1-3.22-.48,5.71,5.71,0,0,1-2.29-1.29,5.33,5.33,0,0,1-1.4-2.24,10.52,10.52,0,0,1-.48-3.44V182.79l3.64-.67v36.4a7.41,7.41,0,0,0,.25,2.15A2.94,2.94,0,0,0,453,222a3,3,0,0,0,1.32.7,15.92,15.92,0,0,0,1.93.39Z"/><path d="M476.66,197.63c1.08-.3,2.49-.64,4.22-1a33.44,33.44,0,0,1,6.75-.56q5.49,0,7.95,3.19c.19-.15.55-.4,1.1-.75a15.45,15.45,0,0,1,2-1.1,15.83,15.83,0,0,1,6.55-1.34,12.5,12.5,0,0,1,5.35,1,7.44,7.44,0,0,1,3.16,2.74A11.18,11.18,0,0,1,515.3,204a34.61,34.61,0,0,1,.39,5.38v16.18h-3.64v-15a44,44,0,0,0-.25-4.95,9.62,9.62,0,0,0-1-3.47,4.93,4.93,0,0,0-2.16-2.08,8.22,8.22,0,0,0-3.64-.7,14.24,14.24,0,0,0-3.05.31,12.84,12.84,0,0,0-2.38.76,11.08,11.08,0,0,0-1.65.89c-.43.3-.74.53-.93.68a17.09,17.09,0,0,1,.76,3.27,27.74,27.74,0,0,1,.25,3.84v16.46h-3.64v-15a41.8,41.8,0,0,0-.25-4.95,9,9,0,0,0-1-3.47,5,5,0,0,0-2.21-2.08,8.73,8.73,0,0,0-3.78-.7,30.83,30.83,0,0,0-4.45.28,11.64,11.64,0,0,0-2.32.51v25.42h-3.64Z"/><path d="M4.86,258.63c1.08-.3,2.54-.64,4.37-1a34.52,34.52,0,0,1,6.72-.56,14.12,14.12,0,0,1,5.52.95A8.45,8.45,0,0,1,25,260.73,10.91,10.91,0,0,1,26.87,265a24.69,24.69,0,0,1,.56,5.43v16.18H23.79v-15a27.36,27.36,0,0,0-.42-5.2,8.79,8.79,0,0,0-1.4-3.48A5.43,5.43,0,0,0,19.39,261a11.73,11.73,0,0,0-4-.59,31.54,31.54,0,0,0-4.45.28,13.73,13.73,0,0,0-2.44.51v25.42H4.86Z"/><path d="M73.07,272.12a18.83,18.83,0,0,1-1,6.22,13.92,13.92,0,0,1-2.75,4.76,12.36,12.36,0,0,1-4.17,3,13.53,13.53,0,0,1-10.64,0,12.56,12.56,0,0,1-4.17-3,13.74,13.74,0,0,1-2.74-4.76,20.2,20.2,0,0,1,0-12.43,14.07,14.07,0,0,1,2.74-4.79A12.51,12.51,0,0,1,54.53,258a13.53,13.53,0,0,1,10.64,0,12.31,12.31,0,0,1,4.17,3.08,14.25,14.25,0,0,1,2.75,4.79A18.81,18.81,0,0,1,73.07,272.12Zm-3.87,0q0-5.43-2.52-8.65a8.85,8.85,0,0,0-13.66,0q-2.52,3.22-2.52,8.65c0,3.63.84,6.5,2.52,8.63a8.24,8.24,0,0,0,6.83,3.19,8.23,8.23,0,0,0,6.83-3.19C68.36,278.62,69.2,275.75,69.2,272.12Z"/><path d="M96.25,296.93H92.61v-38.3a30.73,30.73,0,0,1,10.53-1.57,15.6,15.6,0,0,1,5.8,1,12.64,12.64,0,0,1,4.48,3,13.7,13.7,0,0,1,2.91,4.76,18.19,18.19,0,0,1,1,6.33,20.58,20.58,0,0,1-.86,6.08A13.68,13.68,0,0,1,114,283a11.65,11.65,0,0,1-4.12,3.1,13.13,13.13,0,0,1-5.57,1.12,13.79,13.79,0,0,1-5-.81,12.81,12.81,0,0,1-3-1.54Zm0-15.57a10.56,10.56,0,0,0,1.26.84,11.72,11.72,0,0,0,1.77.84,13.57,13.57,0,0,0,2.18.65,11.53,11.53,0,0,0,2.46.25,10,10,0,0,0,4.51-.92,8,8,0,0,0,2.94-2.52,10.78,10.78,0,0,0,1.63-3.76,20.23,20.23,0,0,0,.5-4.56q0-5.71-2.86-8.76a9.84,9.84,0,0,0-7.56-3.06,29.5,29.5,0,0,0-4.34.26,14.91,14.91,0,0,0-2.49.53Z"/><path d="M156.28,284.89a12.61,12.61,0,0,1-3.05,1.54,13.73,13.73,0,0,1-4.95.81,13.18,13.18,0,0,1-5.58-1.12,11.7,11.7,0,0,1-4.11-3.1,13.68,13.68,0,0,1-2.55-4.76,20.26,20.26,0,0,1-.87-6.08,18.19,18.19,0,0,1,1-6.33,13.7,13.7,0,0,1,2.91-4.76,12.55,12.55,0,0,1,4.48-3,15.56,15.56,0,0,1,5.8-1,30.6,30.6,0,0,1,10.52,1.57v38.3h-3.64Zm0-23.74a14.91,14.91,0,0,0-2.49-.53,29.5,29.5,0,0,0-4.34-.26,9.87,9.87,0,0,0-7.56,3.06q-2.85,3-2.85,8.76a19.67,19.67,0,0,0,.5,4.56,11,11,0,0,0,1.62,3.76A8,8,0,0,0,144.1,283a10,10,0,0,0,4.51.92,11.69,11.69,0,0,0,2.47-.25,13.57,13.57,0,0,0,2.18-.65,11.58,11.58,0,0,0,1.76-.84,9.14,9.14,0,0,0,1.26-.84Z"/><path d="M191.06,257.06a19.39,19.39,0,0,1,3.39.28,10.42,10.42,0,0,1,2.21.56l-.73,3.14a8.21,8.21,0,0,0-1.82-.48,20.57,20.57,0,0,0-3.61-.25,17.38,17.38,0,0,0-3.78.33,12.14,12.14,0,0,0-1.88.56v25.37H181.2V259a27.1,27.1,0,0,1,3.87-1.26A24.46,24.46,0,0,1,191.06,257.06Z"/><path d="M219.73,284a11.42,11.42,0,0,0,5.18-1,3.62,3.62,0,0,0,2.05-3.5,5.13,5.13,0,0,0-.37-2,3.94,3.94,0,0,0-1.2-1.51,10.59,10.59,0,0,0-2.22-1.29c-.91-.41-2-.89-3.38-1.45-1.09-.45-2.11-.91-3.08-1.37a12.74,12.74,0,0,1-2.58-1.63,7,7,0,0,1-1.79-2.21,6.69,6.69,0,0,1-.67-3.14,7,7,0,0,1,2.66-5.71,11.21,11.21,0,0,1,7.3-2.18,20.27,20.27,0,0,1,4.91.5,16,16,0,0,1,2.71.9l-.84,3.25a19.47,19.47,0,0,0-2.27-.9,15,15,0,0,0-4.67-.56,10.88,10.88,0,0,0-2.33.25,6.17,6.17,0,0,0-1.93.79,4,4,0,0,0-1.34,1.35,3.66,3.66,0,0,0-.51,2,4.24,4.24,0,0,0,.45,2,4.52,4.52,0,0,0,1.32,1.49,11.28,11.28,0,0,0,2.12,1.2c.84.37,1.81.78,2.89,1.22s2.19.91,3.22,1.37a11.89,11.89,0,0,1,2.72,1.68,7.78,7.78,0,0,1,1.9,2.35,7.33,7.33,0,0,1,.73,3.44,6.74,6.74,0,0,1-2.94,5.94q-2.94,2-8,2a20.13,20.13,0,0,1-5.82-.64,23.27,23.27,0,0,1-2.69-1l.95-3.3c.11.07.36.19.73.36a13.7,13.7,0,0,0,1.51.56,16,16,0,0,0,2.27.53A18.23,18.23,0,0,0,219.73,284Z"/><path d="M252.83,257.62h11.53v3.08H252.83v15.4a15.59,15.59,0,0,0,.42,4,5.6,5.6,0,0,0,1.2,2.38,3.78,3.78,0,0,0,1.9,1.12,10,10,0,0,0,2.47.28,10.45,10.45,0,0,0,3.69-.53,15.53,15.53,0,0,0,2.19-1l.89,3a12.87,12.87,0,0,1-2.74,1.14,13.54,13.54,0,0,1-4.26.65,12.51,12.51,0,0,1-4.5-.7,6.56,6.56,0,0,1-2.92-2.13,8.85,8.85,0,0,1-1.54-3.56,24.59,24.59,0,0,1-.44-5V249.11l3.64-.67Z"/><path d="M305,285.56c-1.08.3-2.54.64-4.37,1a33.75,33.75,0,0,1-6.72.56,13.55,13.55,0,0,1-5.43-.95,8.73,8.73,0,0,1-3.52-2.69,10.72,10.72,0,0,1-1.94-4.2,23.47,23.47,0,0,1-.59-5.43V257.62H286v15.06a25.62,25.62,0,0,0,.45,5.21,8.55,8.55,0,0,0,1.46,3.45,5.71,5.71,0,0,0,2.6,1.9,11.37,11.37,0,0,0,3.89.59,30.87,30.87,0,0,0,4.49-.28,12,12,0,0,0,2.4-.51V257.62H305Z"/><path d="M335,282.65c.78-1.6,1.59-3.44,2.41-5.51s1.62-4.22,2.39-6.44,1.48-4.46,2.13-6.72,1.21-4.38,1.66-6.36h3.64c-.67,2.65-1.43,5.26-2.25,7.84s-1.7,5.1-2.62,7.56-1.88,4.84-2.88,7.11-2,4.43-2.9,6.44H333.2q-1.47-3-2.93-6.44c-1-2.27-1.93-4.65-2.85-7.11s-1.79-5-2.62-7.56-1.58-5.19-2.25-7.84h3.86q.68,3,1.66,6.36t2.13,6.72c.77,2.22,1.57,4.36,2.39,6.44S334.22,281.05,335,282.65Z"/><path d="M384.41,257.62c.33,1.87.77,3.85,1.31,6s1.13,4.26,1.78,6.44,1.34,4.34,2.07,6.47,1.47,4.13,2.22,6c.64-1.41,1.31-3.14,2-5.17s1.43-4.18,2.14-6.43,1.38-4.54,2-6.84,1.14-4.44,1.55-6.42h3.58q-2,8.53-4.41,15.58t-5.25,13.37H390c-.56-1.32-1.16-2.79-1.78-4.41s-1.26-3.36-1.92-5.2-1.29-3.79-1.91-5.82-1.2-4.11-1.76-6.24c-.56,2.13-1.14,4.22-1.75,6.25s-1.25,4-1.91,5.83-1.29,3.58-1.91,5.21-1.2,3.08-1.76,4.38h-3.5a143.35,143.35,0,0,1-5.25-13.38q-2.37-7.05-4.39-15.57h3.87c.41,2,.93,4.12,1.54,6.41s1.29,4.57,2,6.83,1.43,4.4,2.16,6.41,1.42,3.74,2.05,5.16c.72-1.86,1.44-3.85,2.15-6s1.4-4.28,2-6.44,1.22-4.31,1.78-6.42,1.06-4.1,1.5-6Z"/><path d="M430.6,274.33c-.82,1-1.64,2-2.46,3.07s-1.62,2.13-2.38,3.18-1.46,2.09-2.09,3.16-1.16,2-1.59,2.83H418.3a74.7,74.7,0,0,1,5-7.91q2.63-3.62,5.38-7.11l-9.79-13.93h4.26l7.57,11,7.55-11h4l-9.59,13.78c.82,1,1.69,2.12,2.61,3.32s1.86,2.44,2.79,3.72,1.82,2.63,2.69,4,1.67,2.75,2.39,4.12H439.2c-.45-.82-1-1.73-1.63-2.72s-1.34-2-2.11-3.09-1.57-2.16-2.42-3.27S431.38,275.33,430.6,274.33Z"/><path d="M469,287.19c-1.22-2.28-2.4-4.66-3.54-7.12s-2.21-4.95-3.2-7.47-1.9-5-2.73-7.56-1.53-5-2.12-7.42h3.86c.41,1.79.93,3.73,1.57,5.8s1.35,4.21,2.15,6.41,1.69,4.46,2.66,6.78,2,4.59,3.17,6.83q1.25-3.46,2.21-6.54t1.78-6.13q.82-3,1.59-6.24c.51-2.12,1-4.43,1.56-6.91h3.64q-1.83,8.13-4.1,15.81a130.33,130.33,0,0,1-5,14,31.76,31.76,0,0,1-2.19,4.34,12.52,12.52,0,0,1-2.5,3,8.73,8.73,0,0,1-3.2,1.74,14.9,14.9,0,0,1-4.3.56,8.86,8.86,0,0,1-2.56-.34,8.25,8.25,0,0,1-1.44-.5l.73-3a5.24,5.24,0,0,0,1.27.47,7.37,7.37,0,0,0,2.16.31,10.76,10.76,0,0,0,2.83-.34,6,6,0,0,0,2.27-1.14,8.24,8.24,0,0,0,1.83-2.1A19.41,19.41,0,0,0,469,287.19Z"/><path d="M517.31,260.59q-1.3,1.44-3.38,4c-1.37,1.72-2.85,3.63-4.41,5.75s-3.11,4.31-4.65,6.61-2.88,4.47-4,6.52h17v3.08H496.65v-2.63q1.44-2.74,3.59-6.06t4.45-6.52c1.55-2.14,3.05-4.15,4.52-6s2.69-3.43,3.68-4.64h-15.4v-3.08h19.82Z"/><path d="M6,316.72a25.58,25.58,0,0,0,6-3,26,26,0,0,0,5.22-5h2.57v38.81H16.17V314.31a11.16,11.16,0,0,1-1.6,1.4,21.94,21.94,0,0,1-2.22,1.43c-.82.46-1.68.91-2.58,1.34a17.92,17.92,0,0,1-2.69,1Z"/><path d="M72.85,318.4a10.9,10.9,0,0,1-.79,4.11,17.13,17.13,0,0,1-2.1,3.73,31.83,31.83,0,0,1-3,3.47q-1.68,1.68-3.42,3.36c-1,.93-1.91,1.87-2.83,2.83a34.68,34.68,0,0,0-2.46,2.85,15.52,15.52,0,0,0-1.74,2.8,6.36,6.36,0,0,0-.64,2.72v.11H74.19v3.19H51.85q0-.1,0-.42c0-.2,0-.51,0-.92a12.59,12.59,0,0,1,1-4.9A21.25,21.25,0,0,1,55.18,337a28.58,28.58,0,0,1,3.3-3.74L62,330c.94-.89,1.82-1.75,2.66-2.59a19.55,19.55,0,0,0,2.21-2.6,12.49,12.49,0,0,0,1.52-2.86,9.6,9.6,0,0,0,.56-3.32q0-3.93-2.1-5.64a8.13,8.13,0,0,0-5.3-1.71,10.41,10.41,0,0,0-3.19.45,13.15,13.15,0,0,0-2.43,1,11.34,11.34,0,0,0-1.77,1.21c-.48.41-.84.72-1.06.95l-1.91-2.52a13.36,13.36,0,0,1,1.21-1.15,12.48,12.48,0,0,1,2.18-1.48,15.63,15.63,0,0,1,3-1.26,13,13,0,0,1,3.87-.54c3.77,0,6.6.93,8.51,2.78A10.23,10.23,0,0,1,72.85,318.4Z"/><path d="M107.73,345.05q5.33,0,7.62-2.22a7.93,7.93,0,0,0,2.3-6,8.16,8.16,0,0,0-.93-4.1,7.19,7.19,0,0,0-2.52-2.62,11.17,11.17,0,0,0-3.7-1.4,22.56,22.56,0,0,0-4.45-.42h-.56v-3h1.29a16.78,16.78,0,0,0,3.11-.3,8.59,8.59,0,0,0,2.91-1.14A7,7,0,0,0,115,321.6a6.74,6.74,0,0,0,.86-3.57,7.41,7.41,0,0,0-.61-3.15,5.42,5.42,0,0,0-1.66-2.09,6.84,6.84,0,0,0-2.4-1.14,11.39,11.39,0,0,0-2.89-.37,10.71,10.71,0,0,0-4.7.84,24.79,24.79,0,0,0-2.75,1.57l-1.56-2.85c.37-.26.85-.56,1.43-.9a13.49,13.49,0,0,1,2-.95,18.24,18.24,0,0,1,2.6-.76,15.18,15.18,0,0,1,3.11-.31,15.49,15.49,0,0,1,5,.73,9.77,9.77,0,0,1,3.5,2,8.08,8.08,0,0,1,2.08,3.13,11.53,11.53,0,0,1,.67,3.95,8.33,8.33,0,0,1-1.82,5.56,10.14,10.14,0,0,1-4.68,3.1,13.19,13.19,0,0,1,3,1.21,10.42,10.42,0,0,1,2.66,2.07,9.94,9.94,0,0,1,1.91,3.06,11.26,11.26,0,0,1,.73,4.2,11.67,11.67,0,0,1-.87,4.55,10,10,0,0,1-2.58,3.61,11.93,11.93,0,0,1-4.34,2.41,19.65,19.65,0,0,1-6.16.87,20.9,20.9,0,0,1-3.39-.25,23.31,23.31,0,0,1-2.71-.59,18.31,18.31,0,0,1-2-.67,10.37,10.37,0,0,1-1.2-.56l1-3.25a6.66,6.66,0,0,0,1.12.56,15.39,15.39,0,0,0,1.87.65,23.92,23.92,0,0,0,2.47.53A18.49,18.49,0,0,0,107.73,345.05Z"/><path d="M144.64,334.8a48.1,48.1,0,0,1,2.83-6q1.82-3.36,4.11-6.89t5-6.92a78.68,78.68,0,0,1,5.43-6.19h3.81v25.32h4.81v3h-4.81v10.53h-3.59V337H144.64Zm17.58-.72V312.92a51,51,0,0,0-4,4.64q-2,2.63-3.84,5.44T151,328.66a56.5,56.5,0,0,0-2.63,5.42Z"/><path d="M202.49,345.05a14.54,14.54,0,0,0,4.67-.64,7.71,7.71,0,0,0,3-1.77,6.32,6.32,0,0,0,1.59-2.6,10.4,10.4,0,0,0,.48-3.22,10.52,10.52,0,0,0-.73-4,6.63,6.63,0,0,0-2.57-3,14.27,14.27,0,0,0-5-1.87,40.48,40.48,0,0,0-7.95-.65c.22-1.9.41-3.64.56-5.23s.28-3.12.39-4.59.2-2.92.25-4.32.11-2.84.14-4.34h17.48V312H200.53c0,.71-.1,1.62-.17,2.74s-.15,2.27-.23,3.44-.16,2.31-.28,3.39-.2,1.94-.28,2.58a28.34,28.34,0,0,1,7.45,1.06,15.24,15.24,0,0,1,5.15,2.58,10,10,0,0,1,3,3.92,13.59,13.59,0,0,1,.17,9.69,9.66,9.66,0,0,1-2.49,3.69,11.82,11.82,0,0,1-4.26,2.47,18.82,18.82,0,0,1-6.1.89,20.53,20.53,0,0,1-3.34-.25,24.89,24.89,0,0,1-2.74-.59,20.41,20.41,0,0,1-2-.67,10.06,10.06,0,0,1-1.24-.56l1-3.25a7.26,7.26,0,0,0,1.15.56,16.87,16.87,0,0,0,1.91.65,24.28,24.28,0,0,0,2.46.53A17.93,17.93,0,0,0,202.49,345.05Z"/><path d="M240.68,332.17q0-11.37,5.46-17.25T262,308.6l.23,3.08a30.71,30.71,0,0,0-6.3,1,15.09,15.09,0,0,0-5.13,2.52,14.3,14.3,0,0,0-3.75,4.4,18.71,18.71,0,0,0-2.07,6.61,18.9,18.9,0,0,1,3.64-1.38,17.06,17.06,0,0,1,4.54-.58,12.9,12.9,0,0,1,5.32,1,9.52,9.52,0,0,1,3.52,2.6,10.19,10.19,0,0,1,2,3.75,16.06,16.06,0,0,1,.62,4.48,14.73,14.73,0,0,1-.67,4.37,11.75,11.75,0,0,1-2.1,4,11.11,11.11,0,0,1-3.59,2.88,10.9,10.9,0,0,1-5.12,1.12q-6.11,0-9.27-4.28T240.68,332.17Zm12.15-4.7a15.27,15.27,0,0,0-4.51.59,27.35,27.35,0,0,0-3.61,1.37,12.19,12.19,0,0,0-.11,1.48v1.32a33,33,0,0,0,.36,5,12.43,12.43,0,0,0,1.35,4.15,7.61,7.61,0,0,0,2.6,2.82,8.68,8.68,0,0,0,7.67.28,6.6,6.6,0,0,0,2.35-2,8.35,8.35,0,0,0,1.32-2.86,13.58,13.58,0,0,0,.42-3.42q0-4.47-2-6.6A7.6,7.6,0,0,0,252.83,327.47Z"/><path d="M293.43,347.57a53.23,53.23,0,0,1,1.71-9.85,79.42,79.42,0,0,1,3.36-10.08,75.42,75.42,0,0,1,4.31-9,39.08,39.08,0,0,1,4.51-6.56H287.49v-3.36h23.58V312a48.42,48.42,0,0,0-4.17,6.13,73,73,0,0,0-4.29,8.63,84.11,84.11,0,0,0-3.5,10.16,52.93,52.93,0,0,0-1.82,10.64Z"/><path d="M346.68,348.41a14.82,14.82,0,0,1-4.95-.78,11.3,11.3,0,0,1-3.81-2.21,9.9,9.9,0,0,1-2.46-3.35,10.12,10.12,0,0,1-.87-4.22,10.49,10.49,0,0,1,.56-3.55,10.69,10.69,0,0,1,1.48-2.85,11.8,11.8,0,0,1,2.12-2.23,17.11,17.11,0,0,1,2.54-1.71,9.32,9.32,0,0,1-5.86-9,11,11,0,0,1,.84-4.37,9.55,9.55,0,0,1,2.32-3.33,10.33,10.33,0,0,1,3.56-2.13,13.21,13.21,0,0,1,4.53-.76,13.5,13.5,0,0,1,5.05.87,10.31,10.31,0,0,1,3.5,2.28,8.8,8.8,0,0,1,2,3.19,10.88,10.88,0,0,1,.65,3.7,9.69,9.69,0,0,1-.57,3.39,11.84,11.84,0,0,1-1.45,2.81,12.24,12.24,0,0,1-2,2.21,19.32,19.32,0,0,1-2.19,1.63,11.53,11.53,0,0,1,5.52,4.17,9.76,9.76,0,0,1,1.6,5.32,11.08,11.08,0,0,1-.87,4.43,10,10,0,0,1-2.43,3.44,11.39,11.39,0,0,1-3.81,2.24A14.63,14.63,0,0,1,346.68,348.41Zm8.24-10.58a7,7,0,0,0-3.34-6.38,12.54,12.54,0,0,0-3.36-1.5c-1.26-.36-2.52-.76-3.78-1.19a10.92,10.92,0,0,0-4.42,3.61,9.42,9.42,0,0,0-1.57,5.46,8.09,8.09,0,0,0,.51,2.91,6.24,6.24,0,0,0,1.54,2.35,7.34,7.34,0,0,0,2.57,1.6,11.37,11.37,0,0,0,7.23,0,7.48,7.48,0,0,0,2.57-1.6,6.24,6.24,0,0,0,1.54-2.35A8.17,8.17,0,0,0,354.92,337.83Zm-15.68-19.71a10.61,10.61,0,0,0,.36,2.86A5.38,5.38,0,0,0,341,323.3a10.36,10.36,0,0,0,2.8,1.92,26.08,26.08,0,0,0,4.7,1.65,12.27,12.27,0,0,0,4.09-3.59,8.94,8.94,0,0,0,1.52-5.32,7.85,7.85,0,0,0-.42-2.53,6.4,6.4,0,0,0-1.29-2.21,6.22,6.22,0,0,0-2.27-1.57,8.85,8.85,0,0,0-3.42-.59,8.72,8.72,0,0,0-3.24.56,6.54,6.54,0,0,0-2.33,1.54,6.8,6.8,0,0,0-1.4,2.27A7.89,7.89,0,0,0,339.24,318.12Z"/><path d="M405.6,324.16q0,11.71-5.6,17.62t-16.35,5.9l-.12-3a25.75,25.75,0,0,0,6.78-.84,15.17,15.17,0,0,0,5.35-2.6,13.47,13.47,0,0,0,3.69-4.54,20.12,20.12,0,0,0,1.94-6.69,19.18,19.18,0,0,1-3.64,1.37,17.11,17.11,0,0,1-4.54.59,13,13,0,0,1-5.32-1,9.47,9.47,0,0,1-3.53-2.61,10.35,10.35,0,0,1-2-3.75,15.84,15.84,0,0,1-.62-4.42,14.51,14.51,0,0,1,.68-4.31,11.48,11.48,0,0,1,2.1-3.95,10.71,10.71,0,0,1,8.71-4q6.09,0,9.26,4.29T405.6,324.16Zm-12.15,4.6a15.54,15.54,0,0,0,4.5-.59,27.5,27.5,0,0,0,3.62-1.37c0-.45.06-.88.08-1.29s0-.88,0-1.4a31.72,31.72,0,0,0-.37-5A12.68,12.68,0,0,0,400,315a8.06,8.06,0,0,0-10.28-3.11,6.73,6.73,0,0,0-2.35,2,8.25,8.25,0,0,0-1.31,2.86,13.33,13.33,0,0,0-.42,3.36q0,4.43,2,6.55A7.64,7.64,0,0,0,393.45,328.76Z"/><path d="M434.44,311.17a14,14,0,0,0-6.83,1.68l-1.07-3a15.3,15.3,0,0,1,3.39-1.29,18.25,18.25,0,0,1,4.9-.62,14.17,14.17,0,0,1,5,.76,8.61,8.61,0,0,1,3.16,2,7.12,7.12,0,0,1,1.68,2.72,9.15,9.15,0,0,1,.5,3,8.52,8.52,0,0,1-.72,3.59,13.91,13.91,0,0,1-1.85,2.91,34.13,34.13,0,0,1-2.38,2.58c-.84.82-1.64,1.67-2.38,2.54a12.88,12.88,0,0,0-1.85,2.83,7.59,7.59,0,0,0-.73,3.36v.93a2.72,2.72,0,0,0,.06.58h-2.91a8.46,8.46,0,0,1-.17-1.2q-.06-.65-.06-1.32a8.25,8.25,0,0,1,.67-3.38,13.81,13.81,0,0,1,1.68-2.78,25.15,25.15,0,0,1,2.19-2.43c.78-.77,1.51-1.55,2.18-2.35a13,13,0,0,0,1.68-2.58,6.93,6.93,0,0,0,.67-3.11,5.35,5.35,0,0,0-.56-2.6,4.46,4.46,0,0,0-1.48-1.65,5.74,5.74,0,0,0-2.16-.84A14.28,14.28,0,0,0,434.44,311.17Zm2.74,34a3.16,3.16,0,0,1-.81,2.19,3.34,3.34,0,0,1-4.54,0,3.35,3.35,0,0,1,0-4.37,3.31,3.31,0,0,1,4.54,0A3.15,3.15,0,0,1,437.18,345.16Z"/><path d="M473.13,345.16a3.16,3.16,0,0,1-.81,2.19,3.34,3.34,0,0,1-4.54,0,3.35,3.35,0,0,1,0-4.37,3.31,3.31,0,0,1,4.54,0A3.15,3.15,0,0,1,473.13,345.16ZM472,319.57c0,1.61,0,3.11-.08,4.51s-.14,2.75-.25,4.06-.24,2.58-.37,3.81-.27,2.46-.42,3.69h-1.68c-.33-2.5-.61-5-.81-7.5s-.31-5.36-.31-8.57V308.76H472Z"/><path d="M508,320.24q1.91,1.9,3.44,3.48a37.11,37.11,0,0,1,3.22,3.8l-3.16,2.3c-.52-.75-1-1.46-1.43-2.16s-.83-1.38-1.2-2.07-.74-1.4-1.09-2.13-.74-1.48-1.15-2.26c-.41.78-.8,1.54-1.15,2.26s-.72,1.44-1.09,2.13-.78,1.38-1.21,2.07-.9,1.41-1.42,2.16l-3.17-2.3c.56-.74,1.1-1.42,1.63-2s1-1.2,1.56-1.76,1.08-1.12,1.66-1.68l1.82-1.8c-1.76-.26-3.37-.52-4.84-.78a35.77,35.77,0,0,1-4.8-1.23l1.18-3.64c.9.3,1.72.6,2.46.89s1.48.62,2.19,1,1.42.68,2.13,1,1.45.72,2.24,1.09l-.42-2.52c-.14-.78-.25-1.55-.34-2.32s-.17-1.55-.22-2.35-.09-1.67-.09-2.61h3.81c0,.94,0,1.81-.08,2.61s-.14,1.59-.23,2.35-.2,1.54-.33,2.32-.27,1.63-.42,2.52c.78-.37,1.53-.73,2.24-1.09s1.41-.7,2.12-1,1.44-.66,2.19-1,1.57-.59,2.46-.89l1.18,3.64a37.54,37.54,0,0,1-4.85,1.23C511.39,319.72,509.77,320,508,320.24Z"/></g></g></svg>