<svg xmlns="http://www.w3.org/2000/svg" viewBox="0 0 520.3 348.41"><defs><style>.cls-1{fill:none;stroke:#001f41;stroke-miterlimit:10;stroke-width:2px;}</style></defs><title>Element 23check</title><g id="Ebene_2" data-name="Ebene 2"><g id="Ebene_1-2" data-name="Ebene 1"><path d="M9.13,20.72a9.21,9.21,0,0,1-3.28-.53,6.09,6.09,0,0,1-2.27-1.48,5.88,5.88,0,0,1-1.33-2.27,9.13,9.13,0,0,1-.43-2.89V2.34H5.88V13.21a6.27,6.27,0,0,0,.24,1.86,3.42,3.42,0,0,0,.68,1.24,2.27,2.27,0,0,0,1,.69,4.09,4.09,0,0,0,1.34.21,3.24,3.24,0,0,0,2.4-.91,4.21,4.21,0,0,0,.93-3.09V2.34h4V13.55a9.34,9.34,0,0,1-.44,2.91,5.79,5.79,0,0,1-3.67,3.74A9.45,9.45,0,0,1,9.13,20.72Z"/><path d="M32.92,13.52a8.63,8.63,0,0,1-.48,3A6.39,6.39,0,0,1,31,18.75a6.14,6.14,0,0,1-2.23,1.44,8.39,8.39,0,0,1-3,.51c-.47,0-1,0-1.47-.07s-1-.1-1.5-.17-1-.15-1.42-.25-.85-.19-1.2-.29V.81L24.08.18V7a7.61,7.61,0,0,1,1.35-.44,7.23,7.23,0,0,1,1.51-.15,6.14,6.14,0,0,1,2.57.5,5,5,0,0,1,1.87,1.45,6.5,6.5,0,0,1,1.15,2.24A10.34,10.34,0,0,1,32.92,13.52Zm-4-.1q0-3.75-2.75-3.75A4.3,4.3,0,0,0,25,9.83a3,3,0,0,0-1,.39v7a5.39,5.39,0,0,0,.72.09c.3,0,.62,0,1,0a2.79,2.79,0,0,0,2.39-1.09A4.72,4.72,0,0,0,29,13.42Z"/><path d="M47.58,19.89a21,21,0,0,1-2.55.53,20.27,20.27,0,0,1-3.27.25,7.79,7.79,0,0,1-2.9-.47A4.44,4.44,0,0,1,37,18.89a5.12,5.12,0,0,1-1-2,10.82,10.82,0,0,1-.28-2.57V6.68h3.87v7.15a5.58,5.58,0,0,0,.49,2.71,2,2,0,0,0,1.85.83c.28,0,.57,0,.88,0l.84-.09V6.68h3.87Z"/><path d="M51.22,7.15a21,21,0,0,1,2.55-.53A20.27,20.27,0,0,1,57,6.37a8.07,8.07,0,0,1,2.9.45,4.56,4.56,0,0,1,1.84,1.29,5.08,5.08,0,0,1,1,2A10.54,10.54,0,0,1,63,12.64v7.72H59.15V13.1a5.34,5.34,0,0,0-.49-2.65,2,2,0,0,0-1.85-.78c-.28,0-.57,0-.88,0l-.84.09V20.36H51.22Z"/><path d="M66.4,3.28l3.88-.63v4h4.65V9.91H70.28v4.81a3.81,3.81,0,0,0,.43,2,1.84,1.84,0,0,0,1.73.72,8.2,8.2,0,0,0,1.28-.11A6.65,6.65,0,0,0,74.93,17l.55,3a11.47,11.47,0,0,1-1.56.49,9,9,0,0,1-2.11.21,6.8,6.8,0,0,1-2.62-.43A4.09,4.09,0,0,1,67.52,19a4.47,4.47,0,0,1-.87-1.85,11.32,11.32,0,0,1-.25-2.42Z"/><path d="M89.75,19.89a21,21,0,0,1-2.55.53,20.27,20.27,0,0,1-3.27.25A7.82,7.82,0,0,1,81,20.2a4.4,4.4,0,0,1-1.83-1.31,5,5,0,0,1-1-2A10.82,10.82,0,0,1,78,14.3V6.68h3.87v7.15a5.7,5.7,0,0,0,.49,2.71,2,2,0,0,0,1.85.83c.28,0,.57,0,.88,0l.84-.09V6.68h3.87Z"/><path d="M100.31,0h2.26V25.17h-2.26Z"/><path d="M118.14,6.55a6.49,6.49,0,0,1,.72,0l.79.1.71.13.49.12-.42,2.11a9,9,0,0,0-1-.25,8.72,8.72,0,0,0-1.7-.14,6.7,6.7,0,0,0-1.34.14l-.87.2V20.36h-2.42V7.41a17.2,17.2,0,0,1,2.13-.59A13.83,13.83,0,0,1,118.14,6.55Z"/><path d="M122.43,13.62a8.77,8.77,0,0,1,.52-3.13,6.65,6.65,0,0,1,1.38-2.22,5.62,5.62,0,0,1,2-1.33,6.2,6.2,0,0,1,2.28-.44,5.23,5.23,0,0,1,4.19,1.7,7.86,7.86,0,0,1,1.46,5.19v.4a3.23,3.23,0,0,1,0,.46H125a5,5,0,0,0,1.23,3.2,4.5,4.5,0,0,0,3.32,1.09,9.3,9.3,0,0,0,2.15-.22,7.66,7.66,0,0,0,1.31-.43l.34,2a7.48,7.48,0,0,1-1.55.49,11.13,11.13,0,0,1-2.51.26,8,8,0,0,1-3.05-.53,5.75,5.75,0,0,1-2.12-1.47,6.15,6.15,0,0,1-1.24-2.23A9.61,9.61,0,0,1,122.43,13.62Zm9.28-1.32a4,4,0,0,0-.82-2.69,2.81,2.81,0,0,0-2.32-1.06,3.12,3.12,0,0,0-1.47.33,3.49,3.49,0,0,0-1.08.84,4,4,0,0,0-.69,1.2A6,6,0,0,0,125,12.3Z"/><path d="M146.2,19a7.93,7.93,0,0,1-1.21.53,6.1,6.1,0,0,1-2.1.32,6.73,6.73,0,0,1-2.3-.39,4.87,4.87,0,0,1-1.88-1.21,5.82,5.82,0,0,1-1.28-2,8.15,8.15,0,0,1-.46-2.91,7.92,7.92,0,0,1,.44-2.72,5.85,5.85,0,0,1,3.35-3.53,7.11,7.11,0,0,1,2.76-.51,15.1,15.1,0,0,1,2.95.25c.84.16,1.55.32,2.12.45V19.32q0,3.12-1.61,4.52a7.28,7.28,0,0,1-4.89,1.41,13.26,13.26,0,0,1-2.41-.21,13.89,13.89,0,0,1-2-.5l.44-2.1a10.82,10.82,0,0,0,1.78.5,10.52,10.52,0,0,0,2.2.23,4.61,4.61,0,0,0,3.11-.86,3.52,3.52,0,0,0,.95-2.73Zm0-10c-.24-.07-.57-.13-1-.2a12,12,0,0,0-1.66-.09,3.67,3.67,0,0,0-3,1.28,5.14,5.14,0,0,0-1,3.38,5.89,5.89,0,0,0,.3,2,4,4,0,0,0,.8,1.38,3.18,3.18,0,0,0,1.17.8,3.59,3.59,0,0,0,1.37.26,5.57,5.57,0,0,0,1.77-.27,4.17,4.17,0,0,0,1.27-.64Z"/><path d="M163.51,20c-.55.14-1.29.28-2.2.44a18.48,18.48,0,0,1-3.16.23,6.73,6.73,0,0,1-2.62-.45,4.23,4.23,0,0,1-1.72-1.29,5.24,5.24,0,0,1-.93-2,10.3,10.3,0,0,1-.29-2.51V6.84H155v7.07a6.14,6.14,0,0,0,.78,3.54,3,3,0,0,0,2.63,1.06l.8,0,.78-.07.66-.08a1.41,1.41,0,0,0,.43-.09V6.84h2.42Z"/><path d="M171.73,20.62a4.74,4.74,0,0,1-3.18-1,3.84,3.84,0,0,1-.93-2.84V.6L170,.18V16.43a3.92,3.92,0,0,0,.1,1,1.29,1.29,0,0,0,.34.62,1.4,1.4,0,0,0,.62.36,7.24,7.24,0,0,0,1,.19Z"/><path d="M179.14,6.5a7,7,0,0,1,2.45.38,4,4,0,0,1,1.62,1.06,4.24,4.24,0,0,1,.87,1.64,8,8,0,0,1,.26,2.09v8.45l-.87.15-1.27.17c-.46,0-1,.1-1.52.14s-1.08.06-1.62.06a8.75,8.75,0,0,1-2.11-.23,4.75,4.75,0,0,1-1.66-.74,3.42,3.42,0,0,1-1.09-1.34,4.66,4.66,0,0,1-.39-2,3.91,3.91,0,0,1,.45-1.93,3.68,3.68,0,0,1,1.24-1.3,5.5,5.5,0,0,1,1.82-.72,9.65,9.65,0,0,1,2.18-.24c.24,0,.49,0,.75,0l.75.1.61.12.36.08V11.8a5.27,5.27,0,0,0-.13-1.18,2.67,2.67,0,0,0-.47-1,2.34,2.34,0,0,0-.92-.73,3.66,3.66,0,0,0-1.52-.27,11.54,11.54,0,0,0-2.09.17,7.09,7.09,0,0,0-1.34.35l-.29-2a7.21,7.21,0,0,1,1.56-.41A13.55,13.55,0,0,1,179.14,6.5Zm.2,12.12c.58,0,1.08,0,1.52,0a6.79,6.79,0,0,0,1.11-.15v-4a3.25,3.25,0,0,0-.84-.22,9.79,9.79,0,0,0-2.58,0,3.64,3.64,0,0,0-1.12.32,2.55,2.55,0,0,0-.84.68,1.75,1.75,0,0,0-.34,1.13,2,2,0,0,0,.83,1.81A4.32,4.32,0,0,0,179.34,18.62Z"/><path d="M193.33,6.55a6.49,6.49,0,0,1,.72,0l.79.1.72.13.48.12-.42,2.11a9,9,0,0,0-1-.25,8.72,8.72,0,0,0-1.7-.14,6.7,6.7,0,0,0-1.34.14l-.87.2V20.36h-2.42V7.41a17.2,17.2,0,0,1,2.13-.59A13.9,13.9,0,0,1,193.33,6.55Z"/><line class="cls-1" y1="36.06" x2="520.3" y2="36.06"/><path d="M30.79,103.57c-.64-1.68-1.23-3.33-1.79-4.95s-1.14-3.28-1.74-5H9.68l-3.53,9.91H.49q2.25-6.15,4.2-11.39t3.84-9.94q1.88-4.71,3.72-9c1.24-2.86,2.52-5.69,3.87-8.49h5c1.35,2.8,2.63,5.63,3.87,8.49s2.47,5.85,3.72,9,2.53,6.45,3.84,9.94,2.7,7.29,4.2,11.39Zm-5.1-14.39q-1.78-4.87-3.55-9.43T18.47,71q-2,4.2-3.72,8.77t-3.5,9.43Z"/><path d="M58.73,103.91c-.78,0-1.63,0-2.54-.06s-1.83-.09-2.75-.16-1.82-.17-2.71-.28a24.43,24.43,0,0,1-2.47-.45V65.32a22,22,0,0,1,2.47-.44c.89-.12,1.8-.21,2.71-.28s1.82-.13,2.72-.17,1.73-.06,2.52-.06a36.87,36.87,0,0,1,6.3.51,15.72,15.72,0,0,1,5.09,1.7,9.25,9.25,0,0,1,3.39,3.17,8.89,8.89,0,0,1,1.23,4.81,8.56,8.56,0,0,1-1.51,5.24,9.1,9.1,0,0,1-4,3A11.7,11.7,0,0,1,74.58,86a8.74,8.74,0,0,1,2,6.17q0,5.82-4.29,8.76T58.73,103.91ZM53.64,81.12h5.71a25.65,25.65,0,0,0,3.81-.28,9.64,9.64,0,0,0,3.11-1,5.84,5.84,0,0,0,2.07-1.9,5.46,5.46,0,0,0,.75-3,4.91,4.91,0,0,0-.78-2.83,5.61,5.61,0,0,0-2.16-1.85,11.6,11.6,0,0,0-3.22-1A22.28,22.28,0,0,0,59,68.91q-2.07,0-3.24.06c-.79,0-1.5.09-2.13.16Zm0,4.37V99.15l1.45.11c.49,0,1.06.07,1.71.08s1.41,0,2.27,0a31.52,31.52,0,0,0,4.56-.31A12.43,12.43,0,0,0,67.41,98,6.64,6.64,0,0,0,70,95.79a6,6,0,0,0,1-3.53A6.63,6.63,0,0,0,70.27,89a5.43,5.43,0,0,0-2.1-2.1,10.14,10.14,0,0,0-3.28-1.12,25,25,0,0,0-4.25-.33Z"/><path d="M107.23,104.41a19.8,19.8,0,0,1-7.45-1.34A15.91,15.91,0,0,1,94,99.15a17.82,17.82,0,0,1-3.72-6.36A26.16,26.16,0,0,1,89,84.14a23.51,23.51,0,0,1,1.49-8.65,18.8,18.8,0,0,1,4-6.36,17.09,17.09,0,0,1,5.88-3.92,19.24,19.24,0,0,1,7.17-1.34,24.9,24.9,0,0,1,4.34.34,25.53,25.53,0,0,1,3.36.78,15.72,15.72,0,0,1,2.32.9,12,12,0,0,1,1.24.67L117.2,71a8.52,8.52,0,0,0-1.46-.73c-.63-.26-1.35-.52-2.16-.79a19.87,19.87,0,0,0-2.63-.64,16.31,16.31,0,0,0-2.88-.25,13.82,13.82,0,0,0-5.54,1.06,11.52,11.52,0,0,0-4.21,3.08,14.17,14.17,0,0,0-2.66,4.9,21.38,21.38,0,0,0-.92,6.47,23.17,23.17,0,0,0,.81,6.33A13.91,13.91,0,0,0,98,95.37a10.9,10.9,0,0,0,4.06,3.16,13.42,13.42,0,0,0,5.68,1.12,21,21,0,0,0,6.22-.78,27,27,0,0,0,3.69-1.4L119,102a7.33,7.33,0,0,1-1.4.7,18.84,18.84,0,0,1-2.52.81,30,30,0,0,1-3.52.67A31.38,31.38,0,0,1,107.23,104.41Z"/><path d="M163.4,84.14a22.63,22.63,0,0,1-1.57,8.77,16.17,16.17,0,0,1-4.43,6.15,18.76,18.76,0,0,1-6.83,3.65,30.11,30.11,0,0,1-8.73,1.2c-1.57,0-3.3-.07-5.18-.2a30.93,30.93,0,0,1-5.13-.75V65.32a30.93,30.93,0,0,1,5.13-.75c1.88-.13,3.61-.2,5.18-.2a29.76,29.76,0,0,1,8.73,1.21,18.59,18.59,0,0,1,6.83,3.64,16.13,16.13,0,0,1,4.43,6.16A22.54,22.54,0,0,1,163.4,84.14Zm-21.12,15q7.74,0,11.54-4t3.81-11.06q0-7.11-3.81-11.06t-11.54-4c-1.53,0-2.71,0-3.55.06s-1.43.07-1.77.11V99c.34,0,.93.08,1.77.11S140.75,99.15,142.28,99.15Z"/><path d="M177.73,103.57V64.76h23.69v4.65H183.16V81H199.4v4.54H183.16V98.93h19.66v4.64Z"/><path d="M216,103.57V64.76h23.41v4.65h-18V81.12h16v4.59h-16v17.86Z"/><path d="M275.28,84.48h5.44v18.14a19.2,19.2,0,0,1-1.94.5c-.83.19-1.81.38-2.91.57s-2.3.34-3.61.47-2.63.2-4,.2a19.79,19.79,0,0,1-7.44-1.35,15.7,15.7,0,0,1-5.77-3.92,17.56,17.56,0,0,1-3.73-6.33A26.16,26.16,0,0,1,250,84.14a23.51,23.51,0,0,1,1.48-8.65,18.82,18.82,0,0,1,4-6.36,17.08,17.08,0,0,1,5.9-3.92,19.64,19.64,0,0,1,7.26-1.34,28.31,28.31,0,0,1,4.67.34,26.19,26.19,0,0,1,3.5.78,16.81,16.81,0,0,1,2.38.9,10.08,10.08,0,0,1,1.26.67l-1.73,4.53a14.81,14.81,0,0,0-4.31-1.76,21.64,21.64,0,0,0-5.49-.7,13.39,13.39,0,0,0-5.41,1.06,11.36,11.36,0,0,0-4.14,3.08,14.51,14.51,0,0,0-2.66,4.9,20.46,20.46,0,0,0-.95,6.47,23.17,23.17,0,0,0,.81,6.33,13.62,13.62,0,0,0,2.46,4.9,11.16,11.16,0,0,0,4.09,3.16,13.58,13.58,0,0,0,5.74,1.12,26.75,26.75,0,0,0,4-.25,20.41,20.41,0,0,0,2.38-.47Z"/><path d="M319.92,64.76h5.43v38.81h-5.43V85.65h-19v17.92H295.5V64.76h5.43V81h19Z"/><path d="M341.25,64.76h5.43v38.81h-5.43Z"/><path d="M381.24,91.08a22,22,0,0,1-.59,5.21,10.6,10.6,0,0,1-2.07,4.23,10,10,0,0,1-4,2.86,16.35,16.35,0,0,1-6.24,1,18.09,18.09,0,0,1-3.5-.31,17.51,17.51,0,0,1-2.89-.78,15.83,15.83,0,0,1-2.24-1,8.52,8.52,0,0,1-1.51-1L360.35,97a23.54,23.54,0,0,0,3,1.76,10.63,10.63,0,0,0,4.68.92q4,0,5.88-2c1.23-1.36,1.84-3.71,1.84-7V64.76h5.44Z"/><path d="M425.59,64.76q-1.74,1.9-3.92,4.23t-4.57,4.76c-1.58,1.63-3.16,3.22-4.73,4.79s-3,3-4.42,4.37A50.51,50.51,0,0,1,413,87.05c1.8,1.65,3.55,3.4,5.27,5.27s3.33,3.77,4.84,5.71a49,49,0,0,1,3.78,5.54h-6.38a54.55,54.55,0,0,0-3.87-5.29,67.33,67.33,0,0,0-4.62-5.09q-2.43-2.44-4.92-4.51a44,44,0,0,0-4.85-3.53v18.42h-5.43V64.76h5.43V81.9q2-1.84,4.31-4.17t4.65-4.68c1.53-1.56,3-3.07,4.34-4.51s2.51-2.69,3.45-3.78Z"/><path d="M461.71,98.87v4.7H438.36V64.76h5.43V98.87Z"/><path d="M491.11,98.2c-.38-.9-.87-2-1.49-3.42l-2-4.48c-.71-1.6-1.47-3.26-2.27-5l-2.27-4.81c-.71-1.51-1.37-2.87-2-4.06s-1.11-2.11-1.48-2.74q-.61,6.6-1,14.3T478,103.57h-5.32q.22-5,.5-10.16c.19-3.42.4-6.78.65-10.08s.5-6.53.78-9.66.59-6.11.92-8.91h4.76q1.51,2.47,3.25,5.83t3.47,7c1.16,2.44,2.28,4.89,3.36,7.33s2.08,4.68,3,6.7q1.35-3,3-6.7c1.08-2.44,2.2-4.89,3.36-7.33s2.32-4.79,3.47-7,2.24-4.18,3.25-5.83h4.76Q513,83.53,514,103.57h-5.32Q508.36,95.74,508,88t-1-14.3c-.38.63-.87,1.54-1.49,2.74s-1.28,2.55-2,4.06-1.46,3.12-2.26,4.81-1.56,3.36-2.27,5-1.37,3.1-2,4.48-1.11,2.52-1.48,3.42Z"/><path d="M31.46,164.57q-1.23-2.07-2.83-4.64t-3.44-5.35q-1.85-2.78-3.84-5.63c-1.32-1.91-2.64-3.74-3.94-5.52s-2.58-3.44-3.81-5-2.37-2.95-3.42-4.14v30.29H4.86V125.76H9.17q2.64,2.8,5.63,6.53T20.74,140q2.94,3.94,5.54,7.76c1.74,2.54,3.2,4.79,4.4,6.77V125.76H36v38.81Z"/><path d="M46.36,145.14a24.1,24.1,0,0,1,1.48-8.79,18.19,18.19,0,0,1,4-6.36,16.68,16.68,0,0,1,5.94-3.83,20.07,20.07,0,0,1,7.2-1.29,19.43,19.43,0,0,1,7.08,1.29A16.51,16.51,0,0,1,77.94,130a18.59,18.59,0,0,1,4,6.36,26.84,26.84,0,0,1,0,17.58,18.59,18.59,0,0,1-4,6.36,16.37,16.37,0,0,1-5.85,3.83A19.43,19.43,0,0,1,65,165.41a20.07,20.07,0,0,1-7.2-1.29,16.55,16.55,0,0,1-5.94-3.83,18.19,18.19,0,0,1-4-6.36A24.1,24.1,0,0,1,46.36,145.14Zm5.71,0a21.78,21.78,0,0,0,.89,6.41,14.32,14.32,0,0,0,2.55,4.9,11.16,11.16,0,0,0,4,3.11,12.66,12.66,0,0,0,5.35,1.09,12.43,12.43,0,0,0,5.32-1.09,11.27,11.27,0,0,0,4-3.11,14.32,14.32,0,0,0,2.55-4.9,23.53,23.53,0,0,0,0-12.82,14.41,14.41,0,0,0-2.55-4.9,11.38,11.38,0,0,0-4-3.11,12.43,12.43,0,0,0-5.32-1.09,12.66,12.66,0,0,0-5.35,1.09,11.27,11.27,0,0,0-4,3.11,14.41,14.41,0,0,0-2.55,4.9A21.78,21.78,0,0,0,52.07,145.14Z"/><path d="M104.09,125.37q8.18,0,12.57,3.11t4.4,9.27a12.64,12.64,0,0,1-1.2,5.74,9.86,9.86,0,0,1-3.48,3.86,15.88,15.88,0,0,1-5.51,2.16,36.28,36.28,0,0,1-7.34.67H99.22v14.39H93.79V126.32a31,31,0,0,1,5.12-.75C100.8,125.44,102.53,125.37,104.09,125.37Zm.45,4.76c-2.31,0-4.09.06-5.32.17v15.23h4.09a31.9,31.9,0,0,0,5-.36,11.35,11.35,0,0,0,3.78-1.23,6.12,6.12,0,0,0,2.38-2.38,7.92,7.92,0,0,0,.84-3.87,7.1,7.1,0,0,0-.87-3.69,6.56,6.56,0,0,0-2.35-2.33,10.08,10.08,0,0,0-3.44-1.2A24,24,0,0,0,104.54,130.13Z"/><path d="M128.56,145.14a24.09,24.09,0,0,1,1.49-8.79,18.19,18.19,0,0,1,4-6.36,16.68,16.68,0,0,1,5.94-3.83,20,20,0,0,1,7.19-1.29,19.52,19.52,0,0,1,7.09,1.29,16.51,16.51,0,0,1,5.85,3.83,18.42,18.42,0,0,1,4,6.36,24.09,24.09,0,0,1,1.49,8.79,25.21,25.21,0,0,1-1.12,7.79,18.93,18.93,0,0,1-3.11,5.9,16.5,16.5,0,0,1-4.65,4,17.79,17.79,0,0,1-5.68,2.11,3.15,3.15,0,0,0,1.14,2.26,9.24,9.24,0,0,0,2.78,1.66,23.43,23.43,0,0,0,3.75,1.11,39.67,39.67,0,0,0,4.14.68l-1.28,4.25a54.21,54.21,0,0,1-5.58-1,23,23,0,0,1-4.81-1.71,11.45,11.45,0,0,1-3.61-2.72,8.69,8.69,0,0,1-2-4.11,18.86,18.86,0,0,1-6.66-1.65,16.46,16.46,0,0,1-5.43-4,18.8,18.8,0,0,1-3.64-6.19A24.11,24.11,0,0,1,128.56,145.14Zm5.72,0a21.45,21.45,0,0,0,.89,6.41,14.32,14.32,0,0,0,2.55,4.9,11.16,11.16,0,0,0,4,3.11,12.66,12.66,0,0,0,5.35,1.09,12.46,12.46,0,0,0,5.32-1.09,11.15,11.15,0,0,0,4-3.11,14.15,14.15,0,0,0,2.55-4.9,23.28,23.28,0,0,0,0-12.82,14.24,14.24,0,0,0-2.55-4.9,11.26,11.26,0,0,0-4-3.11,12.46,12.46,0,0,0-5.32-1.09,12.66,12.66,0,0,0-5.35,1.09,11.27,11.27,0,0,0-4,3.11,14.41,14.41,0,0,0-2.55,4.9A21.45,21.45,0,0,0,134.28,145.14Z"/><path d="M195,148.33c.6.75,1.35,1.73,2.27,2.94s1.86,2.56,2.83,4,1.93,3,2.88,4.63a48.77,48.77,0,0,1,2.44,4.64h-5.94c-.75-1.42-1.56-2.85-2.43-4.31s-1.77-2.85-2.67-4.17-1.78-2.57-2.66-3.73-1.67-2.16-2.38-3c-.48,0-1,.06-1.48.06h-6.41v15.17H176V126.32a30.8,30.8,0,0,1,5.12-.75c1.89-.13,3.61-.2,5.18-.2q8.17,0,12.46,3.08t4.28,9.19a10.78,10.78,0,0,1-2,6.61A12,12,0,0,1,195,148.33Zm-8.23-18.2c-2.32,0-4.09.06-5.32.17v14.62h3.86a42.21,42.21,0,0,0,5-.28,11.34,11.34,0,0,0,3.78-1.07,5.66,5.66,0,0,0,2.38-2.21,7.4,7.4,0,0,0,.84-3.78,7.18,7.18,0,0,0-.84-3.64,6.16,6.16,0,0,0-2.27-2.29,9.61,9.61,0,0,0-3.36-1.18A23.34,23.34,0,0,0,186.75,130.13Z"/><path d="M222.53,160.71q8.52,0,8.51-5.82a5.88,5.88,0,0,0-.75-3.06,7.31,7.31,0,0,0-2-2.18,14.18,14.18,0,0,0-2.94-1.6c-1.1-.45-2.26-.89-3.5-1.34a37.67,37.67,0,0,1-4-1.65,14.14,14.14,0,0,1-3.3-2.19,9.2,9.2,0,0,1-2.21-3,11,11,0,0,1,2.66-12.15q3.47-2.87,9.57-2.86a25.46,25.46,0,0,1,6.41.75,14.58,14.58,0,0,1,4.23,1.66l-1.73,4.42a15.81,15.81,0,0,0-3.5-1.43,19.09,19.09,0,0,0-5.41-.7,12.22,12.22,0,0,0-2.91.34,7.27,7.27,0,0,0-2.35,1,5,5,0,0,0-1.6,1.7,4.92,4.92,0,0,0-.59,2.44,5.17,5.17,0,0,0,.62,2.63,6.06,6.06,0,0,0,1.74,1.88,14.79,14.79,0,0,0,2.6,1.48c1,.45,2.08.9,3.28,1.35q2.52,1,4.62,2a15.15,15.15,0,0,1,3.64,2.41,9.68,9.68,0,0,1,2.38,3.33,11.72,11.72,0,0,1,.84,4.68,9.14,9.14,0,0,1-3.73,7.84q-3.72,2.75-10.5,2.74a26.42,26.42,0,0,1-4.23-.31,30.75,30.75,0,0,1-3.44-.72,19,19,0,0,1-2.6-.9q-1.09-.48-1.71-.81l1.62-4.48a24.63,24.63,0,0,0,3.92,1.62A20.08,20.08,0,0,0,222.53,160.71Z"/><path d="M271.53,125.76v4.71H259.32v34.1h-5.43v-34.1H241.68v-4.71Z"/><path d="M294,165.41a17.08,17.08,0,0,1-6.61-1.17,12.37,12.37,0,0,1-4.59-3.22,13.15,13.15,0,0,1-2.66-4.85,20.24,20.24,0,0,1-.87-6V125.76h5.43v23.75q0,5.82,2.58,8.46A9,9,0,0,0,294,160.6a10.63,10.63,0,0,0,3.78-.65,7.58,7.58,0,0,0,2.94-2,9.23,9.23,0,0,0,1.9-3.45,16.47,16.47,0,0,0,.67-5V125.76h5.44v24.36a20.24,20.24,0,0,1-.87,6,13.07,13.07,0,0,1-2.69,4.85,12.71,12.71,0,0,1-4.59,3.22A16.86,16.86,0,0,1,294,165.41Z"/><path d="M351.72,125.76q-2.13,6.17-4.06,11.4t-3.78,9.94q-1.85,4.71-3.67,9t-3.72,8.48H331.4q-1.9-4.2-3.73-8.48t-3.69-9c-1.26-3.13-2.53-6.45-3.84-9.94s-2.65-7.29-4-11.4h6q3,8.85,5.93,17t6,15.34q3.08-7.11,6-15.31t5.88-17.06Z"/><path d="M381.79,138.25q-2.34,7.51-4.76,13.89t-4.81,12.43h-5.43q-3-8.56-5.24-18.08t-4.23-20.73H363q.8,4.38,1.63,8.74t1.73,8.49q.9,4.11,1.8,7.86c.59,2.5,1.21,4.82,1.84,7q2.25-5.88,4.76-12.91t4.71-14.53h4.7q2.19,7.5,4.76,14.53t4.82,12.91q.89-3.13,1.79-6.89c.6-2.5,1.19-5.13,1.76-7.87s1.15-5.58,1.71-8.51,1.1-5.85,1.63-8.77h5.54q-2,11.2-4.28,20.73t-5.18,18.08h-5.44q-2.46-6-4.81-12.43T381.79,138.25Z"/><path d="M438.74,164.57q-.84-1.68-2-3.72t-2.58-4.26c-.93-1.47-1.9-3-2.91-4.42s-2-2.87-2.91-4.17q-1.41,2-2.91,4.17c-1,1.47-2,3-2.89,4.42s-1.77,2.9-2.57,4.26-1.49,2.6-2,3.72h-6a110.58,110.58,0,0,1,5.85-10q3.33-5.1,7.09-10.47l-12.44-18.32h6.28l9.57,14.45,9.47-14.45H444l-12.21,18.09q3.81,5.43,7.17,10.59a117,117,0,0,1,5.94,10.13Z"/><path d="M463.38,164.57V149q-3.86-6-7.28-11.81t-6.44-11.43h6.39c1.42,3.07,3,6.17,4.76,9.33s3.56,6.19,5.43,9.1q2.75-4.37,5.38-9.1c1.75-3.16,3.36-6.26,4.81-9.33h6.05q-3,5.61-6.44,11.4t-7.22,11.73v15.68Z"/><path d="M515.18,130.08c-.86,1-1.85,2.13-3,3.5s-2.35,2.87-3.61,4.53-2.58,3.42-3.92,5.27-2.66,3.71-4,5.6-2.51,3.76-3.67,5.62-2.2,3.65-3.14,5.33h21.84v4.64H487.58v-3.64q1.17-2.24,2.77-4.93t3.41-5.48q1.83-2.81,3.78-5.66t3.9-5.49q1.92-2.62,3.75-4.92c1.21-1.54,2.32-2.88,3.33-4H488.58v-4.65h26.6Z"/><path d="M13.93,195.73a15.19,15.19,0,0,1,5.3.81,8.61,8.61,0,0,1,3.47,2.29,8.76,8.76,0,0,1,1.87,3.53,16.78,16.78,0,0,1,.56,4.51v18.2l-1.87.31c-.81.13-1.71.25-2.72.36s-2.1.22-3.27.31-2.35.14-3.5.14a19.49,19.49,0,0,1-4.54-.5,10.11,10.11,0,0,1-3.58-1.6,7.34,7.34,0,0,1-2.36-2.88,10.15,10.15,0,0,1-.84-4.32,8.34,8.34,0,0,1,1-4.14A7.85,7.85,0,0,1,6.09,210,12.43,12.43,0,0,1,10,208.38a21.19,21.19,0,0,1,4.71-.5c.52,0,1.06,0,1.62.08s1.09.13,1.6.23l1.31.25.79.16v-1.45a12.15,12.15,0,0,0-.28-2.55,5.94,5.94,0,0,0-1-2.24,5.26,5.26,0,0,0-2-1.57,7.82,7.82,0,0,0-3.27-.58,24.89,24.89,0,0,0-4.51.36,15.91,15.91,0,0,0-2.89.75L5.48,197a16,16,0,0,1,3.36-.86A28,28,0,0,1,13.93,195.73Zm.45,26.09c1.23,0,2.33,0,3.28-.08a14.75,14.75,0,0,0,2.38-.31v-8.68a6.57,6.57,0,0,0-1.82-.48,20.43,20.43,0,0,0-3-.19,18.43,18.43,0,0,0-2.5.17,7.44,7.44,0,0,0-2.4.7,5,5,0,0,0-1.82,1.45,3.81,3.81,0,0,0-.73,2.44c0,1.86.59,3.16,1.79,3.89A9.3,9.3,0,0,0,14.38,221.82Z"/><path d="M52.4,197.74a14.36,14.36,0,0,1,2.89-1.29,13.48,13.48,0,0,1,4.45-.67,13.13,13.13,0,0,1,5.57,1.12A11.52,11.52,0,0,1,69.43,200,13.83,13.83,0,0,1,72,204.85a20.7,20.7,0,0,1,.87,6.16,18.44,18.44,0,0,1-1,6.36,13.43,13.43,0,0,1-2.94,4.79,13.07,13.07,0,0,1-4.59,3,16.3,16.3,0,0,1-6.05,1.07,36.24,36.24,0,0,1-6.44-.51,46.73,46.73,0,0,1-4.59-1V183l5.2-.89Zm0,23.3a17.11,17.11,0,0,0,2.22.42,27,27,0,0,0,3.55.19,8.63,8.63,0,0,0,6.72-2.77q2.52-2.77,2.52-7.87a18.78,18.78,0,0,0-.45-4.2,9.33,9.33,0,0,0-1.45-3.38,6.92,6.92,0,0,0-2.61-2.24,8.24,8.24,0,0,0-3.83-.82,10.4,10.4,0,0,0-3.92.73,11,11,0,0,0-2.75,1.51Z"/><path d="M106.28,226.25a15.76,15.76,0,0,1-6.19-1.13A12.32,12.32,0,0,1,95.61,222a12.93,12.93,0,0,1-2.72-4.79,19.78,19.78,0,0,1-.89-6.13,18.38,18.38,0,0,1,1-6.16,14.46,14.46,0,0,1,2.77-4.85,12.5,12.5,0,0,1,4.39-3.19,14.33,14.33,0,0,1,5.8-1.14,23.57,23.57,0,0,1,3.92.33,18,18,0,0,1,3.75,1.06l-1.17,4.43a13.14,13.14,0,0,0-2.72-.9,15.63,15.63,0,0,0-3.27-.33,8.28,8.28,0,0,0-6.7,2.74q-2.32,2.74-2.32,8a16.63,16.63,0,0,0,.53,4.31,8.72,8.72,0,0,0,1.68,3.36,7.52,7.52,0,0,0,2.94,2.16,11.33,11.33,0,0,0,4.37.75,16.61,16.61,0,0,0,3.75-.39,13.4,13.4,0,0,0,2.63-.84l.73,4.37a5.46,5.46,0,0,1-1.29.53,17.26,17.26,0,0,1-1.9.45c-.71.13-1.47.24-2.27.33A18.79,18.79,0,0,1,106.28,226.25Z"/><path d="M151.24,183l5.21-.89v42.61a46.73,46.73,0,0,1-4.59,1,36.24,36.24,0,0,1-6.44.51,16.3,16.3,0,0,1-6-1.07,13.07,13.07,0,0,1-4.59-3,13.43,13.43,0,0,1-2.94-4.79,18.44,18.44,0,0,1-1-6.36,20.7,20.7,0,0,1,.87-6.16,13.83,13.83,0,0,1,2.55-4.81,11.52,11.52,0,0,1,4.12-3.14,13.13,13.13,0,0,1,5.57-1.12,13.48,13.48,0,0,1,4.45.67,14,14,0,0,1,2.88,1.29Zm0,19.6a10.74,10.74,0,0,0-2.74-1.51,10.4,10.4,0,0,0-3.92-.73,8.31,8.31,0,0,0-3.84.82,7,7,0,0,0-2.6,2.24,9.52,9.52,0,0,0-1.46,3.38,18.79,18.79,0,0,0-.44,4.2q0,5.1,2.52,7.87a8.63,8.63,0,0,0,6.72,2.77,27.07,27.07,0,0,0,3.55-.19,16.57,16.57,0,0,0,2.21-.42Z"/><path d="M177.23,211.07a18.5,18.5,0,0,1,1.12-6.75,13.92,13.92,0,0,1,3-4.79,12,12,0,0,1,4.25-2.85,13.21,13.21,0,0,1,4.93-1q5.88,0,9,3.66t3.13,11.17v.87a9.71,9.71,0,0,1-.05,1H182.66c.22,3,1.1,5.32,2.63,6.89s3.92,2.35,7.17,2.35a19.5,19.5,0,0,0,4.62-.47,16.91,16.91,0,0,0,2.83-.93l.73,4.37a15.71,15.71,0,0,1-3.34,1.07,23.77,23.77,0,0,1-5.4.56,17.24,17.24,0,0,1-6.58-1.15,12.2,12.2,0,0,1-4.56-3.17,12.71,12.71,0,0,1-2.66-4.78A20.26,20.26,0,0,1,177.23,211.07Zm20-2.86a8.72,8.72,0,0,0-1.76-5.79,6.1,6.1,0,0,0-5-2.27,6.81,6.81,0,0,0-3.16.7,7.33,7.33,0,0,0-2.32,1.82,8.34,8.34,0,0,0-1.49,2.58,12.87,12.87,0,0,0-.7,3Z"/><path d="M235,182.12a20.46,20.46,0,0,1,3.95.33,14.51,14.51,0,0,1,2.33.62l-1,4.48a8.82,8.82,0,0,0-1.9-.64,12.41,12.41,0,0,0-3-.31q-3.65,0-5.1,2a8.88,8.88,0,0,0-1.46,5.35v2.52H240v4.37H228.8v24.75h-5.2V193.82c0-3.73.91-6.62,2.74-8.65S231,182.12,235,182.12Z"/><path d="M276.91,222.66a14.13,14.13,0,0,1-2.61,1.15,13.11,13.11,0,0,1-4.51.7,14.46,14.46,0,0,1-5-.84,10.74,10.74,0,0,1-4.06-2.61,12.64,12.64,0,0,1-2.75-4.39,17.62,17.62,0,0,1-1-6.27,17.19,17.19,0,0,1,1-5.86,13,13,0,0,1,2.77-4.59,12.85,12.85,0,0,1,4.45-3,15.37,15.37,0,0,1,5.94-1.09,33.09,33.09,0,0,1,6.36.53c1.81.35,3.33.68,4.56,1v26q0,6.72-3.47,9.75t-10.53,3a28.46,28.46,0,0,1-5.18-.45,30.27,30.27,0,0,1-4.23-1.06l1-4.54a24.83,24.83,0,0,0,3.84,1.1,23.49,23.49,0,0,0,4.73.47q4.65,0,6.69-1.85t2.05-5.88ZM276.85,201a21.34,21.34,0,0,0-2.1-.42,25.55,25.55,0,0,0-3.55-.19,7.91,7.91,0,0,0-6.47,2.74,11,11,0,0,0-2.27,7.28,12.75,12.75,0,0,0,.64,4.31,8.45,8.45,0,0,0,1.74,3,6.73,6.73,0,0,0,2.52,1.74,8,8,0,0,0,2.94.56,11.89,11.89,0,0,0,3.81-.59,9.44,9.44,0,0,0,2.74-1.37Z"/><path d="M304.46,225.57V183l5.21-.89V197a18.48,18.48,0,0,1,6.38-1.17,14.66,14.66,0,0,1,5.77,1,9.09,9.09,0,0,1,3.67,2.74,10.82,10.82,0,0,1,1.93,4.23,24.69,24.69,0,0,1,.56,5.43v16.35h-5.21V210.34a25.13,25.13,0,0,0-.36-4.59,7.85,7.85,0,0,0-1.21-3.08A4.8,4.8,0,0,0,319,201a9.93,9.93,0,0,0-3.47-.53,15.05,15.05,0,0,0-1.74.11c-.59.08-1.16.16-1.7.25s-1,.2-1.46.31a8.59,8.59,0,0,0-.92.28v24.19Z"/><path d="M352.45,191.19a3.33,3.33,0,0,1-2.38-.93,3.65,3.65,0,0,1,0-5,3.54,3.54,0,0,1,4.76,0,3.65,3.65,0,0,1,0,5A3.33,3.33,0,0,1,352.45,191.19Zm2.63,34.38h-5.21V196.45h5.21Z"/><path d="M372.72,236a11.61,11.61,0,0,1-1.73-.16,9.43,9.43,0,0,1-1.8-.45l.67-4.26a9.62,9.62,0,0,0,1.29.28,8.34,8.34,0,0,0,1.35.11,4.32,4.32,0,0,0,3.83-1.65,8.42,8.42,0,0,0,1.15-4.84V196.45h5.21V225q0,5.61-2.55,8.32T372.72,236Zm7.34-44.85a3.31,3.31,0,0,1-2.38-.93,3.65,3.65,0,0,1,0-5,3.35,3.35,0,0,1,2.38-.92,3.38,3.38,0,0,1,2.38.92,3.65,3.65,0,0,1,0,5A3.35,3.35,0,0,1,380.06,191.19Z"/><path d="M415.62,209.56a34.74,34.74,0,0,1,3.55,3.19c1.25,1.27,2.49,2.64,3.7,4.11s2.36,3,3.44,4.48,2,2.93,2.75,4.23H423a47.14,47.14,0,0,0-2.71-4q-1.55-2-3.22-3.92a44.47,44.47,0,0,0-3.42-3.44,31.19,31.19,0,0,0-3.3-2.64v14h-5.21V183l5.21-.89v26.54c.89-.9,1.88-1.88,3-3s2.14-2.18,3.19-3.3,2-2.19,3-3.22,1.73-1.93,2.4-2.72h6.11l-2.8,3.08q-1.51,1.68-3.14,3.39t-3.27,3.42Z"/><path d="M456.5,226.13q-4.81-.1-6.84-2.07t-2-6.1V183l5.21-.89v35a8.44,8.44,0,0,0,.22,2.13,2.76,2.76,0,0,0,2.07,2.09,13.38,13.38,0,0,0,2.07.42Z"/><path d="M476.49,197.29c1.19-.3,2.77-.61,4.73-.95a40.28,40.28,0,0,1,6.8-.5,12.92,12.92,0,0,1,4.71.75,8.32,8.32,0,0,1,3.19,2.21q.39-.27,1.23-.78a14.47,14.47,0,0,1,2.07-1,20.87,20.87,0,0,1,2.75-.84,14,14,0,0,1,3.25-.36,13,13,0,0,1,5.48,1,7.87,7.87,0,0,1,3.34,2.77,10.78,10.78,0,0,1,1.62,4.25,32.18,32.18,0,0,1,.42,5.38v16.35h-5.21V210.34a32.91,32.91,0,0,0-.25-4.42,8.73,8.73,0,0,0-.95-3.08,4.35,4.35,0,0,0-1.91-1.82,6.94,6.94,0,0,0-3.1-.59,11.42,11.42,0,0,0-4.34.7,8.73,8.73,0,0,0-2.33,1.26,19.07,19.07,0,0,1,.67,3.19,28.33,28.33,0,0,1,.23,3.64v16.35h-5.21V210.34a29.49,29.49,0,0,0-.28-4.42,8.93,8.93,0,0,0-1-3.08,4.38,4.38,0,0,0-1.9-1.82,6.87,6.87,0,0,0-3.06-.59q-.78,0-1.68.06c-.59,0-1.16.08-1.7.13s-1,.13-1.49.2-.74.13-.89.17v24.58h-5.21Z"/><path d="M4.53,258.29c1.19-.3,2.78-.61,4.76-1a40.66,40.66,0,0,1,6.83-.5,14.69,14.69,0,0,1,5.77,1,9,9,0,0,1,3.66,2.74,10.69,10.69,0,0,1,1.94,4.23,24.69,24.69,0,0,1,.56,5.43v16.35H22.84V271.34a24.19,24.19,0,0,0-.37-4.59,7.7,7.7,0,0,0-1.2-3.08A4.85,4.85,0,0,0,19,262a9.93,9.93,0,0,0-3.47-.53q-.84,0-1.74.06c-.6,0-1.17.08-1.71.13s-1,.13-1.45.2l-.93.17v24.58H4.53Z"/><path d="M73.07,272a18.41,18.41,0,0,1-1,6.27,14.15,14.15,0,0,1-2.83,4.82,12.36,12.36,0,0,1-4.34,3.11,14.35,14.35,0,0,1-11,0,12.36,12.36,0,0,1-4.34-3.11,14.15,14.15,0,0,1-2.83-4.82,19.87,19.87,0,0,1,0-12.51,14.06,14.06,0,0,1,2.83-4.84,12.24,12.24,0,0,1,4.34-3.11,14.35,14.35,0,0,1,11,0,12.24,12.24,0,0,1,4.34,3.11,14.06,14.06,0,0,1,2.83,4.84A18.52,18.52,0,0,1,73.07,272Zm-5.43,0a12.56,12.56,0,0,0-2.21-7.81,7.74,7.74,0,0,0-12.05,0,14.91,14.91,0,0,0,0,15.62,7.73,7.73,0,0,0,12.05,0A12.54,12.54,0,0,0,67.64,272Z"/><path d="M116.75,272.07a20.44,20.44,0,0,1-.87,6.1,13.79,13.79,0,0,1-2.55,4.82,11.55,11.55,0,0,1-4.11,3.13,13.16,13.16,0,0,1-5.57,1.13,13.53,13.53,0,0,1-4.46-.68,13.69,13.69,0,0,1-2.88-1.29v11.65H91.1V258.35c1.23-.3,2.77-.63,4.62-1a33.93,33.93,0,0,1,6.41-.53,16.31,16.31,0,0,1,6.05,1.06,13,13,0,0,1,4.59,3,13.3,13.3,0,0,1,2.94,4.78A18.44,18.44,0,0,1,116.75,272.07Zm-5.43,0q0-5.1-2.52-7.84a8.68,8.68,0,0,0-6.72-2.74,31.54,31.54,0,0,0-3.67.16,15.75,15.75,0,0,0-2.1.39v18.37a10.6,10.6,0,0,0,2.74,1.52,10.43,10.43,0,0,0,3.92.72,8.38,8.38,0,0,0,3.84-.81,7.05,7.05,0,0,0,2.6-2.24,9.32,9.32,0,0,0,1.46-3.36A18.38,18.38,0,0,0,111.32,272.07Z"/><path d="M133.16,272.07a18.45,18.45,0,0,1,1-6.36,13.3,13.3,0,0,1,2.94-4.78,13,13,0,0,1,4.59-3,16.34,16.34,0,0,1,6.05-1.06,33.78,33.78,0,0,1,6.41.53c1.85.35,3.39.68,4.62,1v38.58h-5.2V285.28a13.81,13.81,0,0,1-2.89,1.29,13.47,13.47,0,0,1-4.45.68,13.13,13.13,0,0,1-5.57-1.13,11.5,11.5,0,0,1-4.12-3.13,13.61,13.61,0,0,1-2.54-4.82A20.44,20.44,0,0,1,133.16,272.07Zm5.43,0a18.38,18.38,0,0,0,.45,4.17,9.31,9.31,0,0,0,1.45,3.36,7,7,0,0,0,2.61,2.24,8.36,8.36,0,0,0,3.83.81,10.4,10.4,0,0,0,3.92-.72,10.68,10.68,0,0,0,2.75-1.52V262a16.4,16.4,0,0,0-2.1-.39,31.54,31.54,0,0,0-3.67-.16,8.68,8.68,0,0,0-6.72,2.74Q138.59,267,138.59,272.07Z"/><path d="M189.21,256.84a14.85,14.85,0,0,1,1.54.08c.58.06,1.15.13,1.71.23s1.07.18,1.54.28a8,8,0,0,1,1,.25l-.9,4.53a17.07,17.07,0,0,0-5.71-.84,14.12,14.12,0,0,0-2.89.31l-1.87.42v24.47h-5.21V258.69a34.62,34.62,0,0,1,4.59-1.26A29,29,0,0,1,189.21,256.84Z"/><path d="M217.55,282.82a10.25,10.25,0,0,0,4.73-.84,2.84,2.84,0,0,0,1.54-2.69,3.56,3.56,0,0,0-1.51-3,23.64,23.64,0,0,0-5-2.52c-1.12-.45-2.19-.91-3.22-1.37a11.77,11.77,0,0,1-2.66-1.65,7.48,7.48,0,0,1-1.79-2.3,8.15,8.15,0,0,1,2.19-9.44,12.17,12.17,0,0,1,7.78-2.26,22.52,22.52,0,0,1,2.46.13c.82.1,1.59.21,2.3.34s1.33.27,1.88.42,1,.28,1.26.39l-1,4.48a13.12,13.12,0,0,0-2.63-.92,16.81,16.81,0,0,0-4.31-.48,7.94,7.94,0,0,0-3.81.87,2.89,2.89,0,0,0-1.62,2.72,3.77,3.77,0,0,0,.36,1.68,3.91,3.91,0,0,0,1.12,1.31,9.14,9.14,0,0,0,1.88,1.09c.74.34,1.64.7,2.69,1.07,1.38.52,2.61,1,3.69,1.54a11.43,11.43,0,0,1,2.77,1.76,6.73,6.73,0,0,1,1.77,2.44,8.85,8.85,0,0,1,.61,3.5,7,7,0,0,1-3,6.1c-2,1.38-4.85,2.08-8.54,2.08a22.22,22.22,0,0,1-6.05-.65c-1.46-.43-2.45-.76-3-1l.95-4.48c.6.22,1.55.56,2.86,1A16.44,16.44,0,0,0,217.55,282.82Z"/><path d="M251.32,257.45h11v4.37h-11v13.44a16.38,16.38,0,0,0,.33,3.61,5.35,5.35,0,0,0,1,2.24,3.63,3.63,0,0,0,1.68,1.15,7.23,7.23,0,0,0,2.35.34,10.9,10.9,0,0,0,3.78-.54c.95-.35,1.62-.6,2-.75l1,4.31a19.6,19.6,0,0,1-2.75,1,15.64,15.64,0,0,1-4.48.59,13.45,13.45,0,0,1-4.9-.76,7.09,7.09,0,0,1-3.1-2.26,9.05,9.05,0,0,1-1.66-3.73,25,25,0,0,1-.47-5.12v-26l5.21-.89Z"/><path d="M302.84,285.73q-1.8.45-4.74,1a41.35,41.35,0,0,1-6.8.5,14.5,14.5,0,0,1-5.66-1,9.1,9.1,0,0,1-3.69-2.77,11.23,11.23,0,0,1-2-4.23,22.17,22.17,0,0,1-.61-5.41V257.45h5.2v15.24q0,5.31,1.68,7.61t5.66,2.3q.84,0,1.74-.06c.59,0,1.15-.08,1.68-.14l1.42-.17a4.31,4.31,0,0,0,.93-.19V257.45h5.21Z"/><path d="M345.23,257.45a147.58,147.58,0,0,1-5.13,15.68q-2.94,7.51-5.68,13.44h-4.71Q327,280.65,324,273.13a145.32,145.32,0,0,1-5.12-15.68h5.6c.44,1.83,1,3.78,1.59,5.85s1.27,4.13,2,6.17,1.39,4,2.1,5.9,1.38,3.61,2,5.1c.63-1.49,1.31-3.19,2-5.1s1.4-3.87,2.09-5.9,1.35-4.09,2-6.17,1.15-4,1.6-5.85Z"/><path d="M386.05,286.57c-1-2.68-2.16-5.76-3.33-9.21s-2.25-7.05-3.22-10.78q-1.46,5.6-3.19,10.78c-1.16,3.45-2.26,6.53-3.31,9.21h-4.53q-2.58-5.76-5-13.16t-4.65-16h5.6c.37,1.76.82,3.66,1.34,5.72s1.08,4.1,1.65,6.15,1.19,4,1.83,5.94,1.23,3.57,1.79,5c.63-1.76,1.26-3.62,1.87-5.58s1.21-3.94,1.77-5.93,1.09-4,1.59-5.88.95-3.73,1.32-5.41h4.31q.51,2.52,1.23,5.41t1.57,5.88q.84,3,1.76,5.93t1.88,5.58q.84-2.13,1.76-5t1.82-5.94q.9-3.07,1.68-6.15c.53-2.06,1-4,1.35-5.72h5.38q-2.19,8.58-4.65,16t-5,13.16Z"/><path d="M434.66,286.57c-.41-.82-.92-1.73-1.51-2.74s-1.26-2.05-2-3.11-1.44-2.12-2.19-3.16-1.47-2-2.18-3c-.71.93-1.44,1.93-2.19,3s-1.46,2.13-2.15,3.2-1.34,2.1-1.93,3.11-1.11,1.9-1.52,2.68h-5.37a69.93,69.93,0,0,1,4.67-7.75q2.71-3.94,5.41-7.54l-9.63-13.83H420l6.94,10.2,7-10.2h5.54l-9.4,13.5q2.69,3.65,5.51,7.7a67.38,67.38,0,0,1,4.79,7.92Z"/><path d="M453.14,292a9.7,9.7,0,0,0,1.59.54,7.69,7.69,0,0,0,1.93.25,7.61,7.61,0,0,0,4.82-1.37,11.91,11.91,0,0,0,3.14-4.45A156.39,156.39,0,0,1,458,272.71,122.34,122.34,0,0,1,453,257.45h5.6q.62,2.52,1.48,5.44c.58,1.94,1.23,3.93,1.93,6s1.48,4.1,2.3,6.16,1.68,4,2.58,5.93q2.13-5.88,3.69-11.65t3-11.87h5.38q-2,8.24-4.48,15.82t-5.32,14.2a30.31,30.31,0,0,1-2.33,4.34,13,13,0,0,1-2.66,3,9.55,9.55,0,0,1-3.27,1.74,14.16,14.16,0,0,1-4.12.56,11.74,11.74,0,0,1-1.29-.08,13.23,13.23,0,0,1-1.31-.23c-.43-.09-.83-.19-1.18-.3s-.61-.21-.76-.28Z"/><path d="M514.4,261.37c-.78.86-1.82,2.08-3.11,3.64s-2.67,3.31-4.14,5.21-2.95,3.9-4.43,6-2.77,4.09-3.89,6h16v4.36H492.62V283.1q1.33-2.46,3.3-5.43t4.12-5.91q2.15-2.94,4.2-5.54c1.36-1.74,2.54-3.2,3.55-4.4H493.4v-4.37h21Z"/><path d="M5.25,316.77a34.69,34.69,0,0,0,6.22-3.16A25.21,25.21,0,0,0,17,308.76h3.7v38.81H15.5V316a15.9,15.9,0,0,1-1.65,1.29,21.43,21.43,0,0,1-2.13,1.28c-.76.42-1.57.81-2.41,1.18s-1.65.69-2.43.95Z"/><path d="M73,318.68a9.72,9.72,0,0,1-.81,3.89A19,19,0,0,1,70,326.26a37.82,37.82,0,0,1-3,3.59q-1.68,1.75-3.36,3.44c-.64.64-1.38,1.38-2.22,2.24s-1.63,1.76-2.38,2.69a22.76,22.76,0,0,0-1.87,2.69,4.54,4.54,0,0,0-.76,2.24H74.25v4.42H50.73a3.79,3.79,0,0,1-.06-.67v-.62a13.52,13.52,0,0,1,.87-4.89,19.82,19.82,0,0,1,2.27-4.29,30.45,30.45,0,0,1,3.13-3.81q1.74-1.79,3.42-3.47c.93-.89,1.82-1.78,2.66-2.66a29,29,0,0,0,2.24-2.63,13.38,13.38,0,0,0,1.57-2.72,7.6,7.6,0,0,0,.58-3,6.81,6.81,0,0,0-.53-2.85,5.59,5.59,0,0,0-1.43-2,5.5,5.5,0,0,0-2.1-1.15,8.81,8.81,0,0,0-2.54-.36,9.26,9.26,0,0,0-3,.45,13.75,13.75,0,0,0-2.41,1,9.63,9.63,0,0,0-1.79,1.23l-1.12,1-2.58-3.69a13.22,13.22,0,0,1,1.51-1.37,14.32,14.32,0,0,1,2.41-1.55A17.71,17.71,0,0,1,57,308.37a13.6,13.6,0,0,1,3.75-.5q6.1,0,9.16,2.83T73,318.68Z"/><path d="M106.22,343.76q5,0,7.14-2a6.74,6.74,0,0,0,2.16-5.26,6.68,6.68,0,0,0-.9-3.58,6.89,6.89,0,0,0-2.35-2.33,10.18,10.18,0,0,0-3.39-1.23,21.5,21.5,0,0,0-3.95-.36h-1.34v-4.26h1.85a15.25,15.25,0,0,0,2.88-.28,8.31,8.31,0,0,0,2.72-1,5.65,5.65,0,0,0,2.8-5.15,6,6,0,0,0-.56-2.69,5.54,5.54,0,0,0-1.49-1.85,5.59,5.59,0,0,0-2.12-1,10.12,10.12,0,0,0-2.55-.31,11.93,11.93,0,0,0-4.57.78,20.45,20.45,0,0,0-3.16,1.63l-2-4a18.41,18.41,0,0,1,4-2,20.63,20.63,0,0,1,2.77-.75,14.91,14.91,0,0,1,3.11-.31,16.86,16.86,0,0,1,5.32.75,10.07,10.07,0,0,1,3.69,2.13,8.9,8.9,0,0,1,2.19,3.25,11.22,11.22,0,0,1,.72,4.06,8,8,0,0,1-1.73,5.18,11.44,11.44,0,0,1-4.2,3.28,13,13,0,0,1,2.91,1.28,9.34,9.34,0,0,1,2.44,2.13,11,11,0,0,1,1.68,3,10.61,10.61,0,0,1,.64,3.75,12.41,12.41,0,0,1-.87,4.68,9.47,9.47,0,0,1-2.69,3.72,13.07,13.07,0,0,1-4.56,2.47,21.27,21.27,0,0,1-6.5.89,20.55,20.55,0,0,1-3-.22c-1-.15-2-.34-2.89-.56s-1.68-.45-2.35-.67a12.5,12.5,0,0,1-1.45-.56l1-4.54a32,32,0,0,0,3.17,1.18A17.56,17.56,0,0,0,106.22,343.76Z"/><path d="M142.57,334.13a61.22,61.22,0,0,1,2.91-5.74q1.85-3.27,4.17-6.74t5-6.84a72.71,72.71,0,0,1,5.35-6.05h5v24.65h4.59v4.25H165v9.91h-5v-9.91H142.57Zm17.36-19.2q-1.68,1.79-3.39,4t-3.34,4.62c-1.08,1.6-2.09,3.25-3,4.93s-1.8,3.32-2.54,4.93h12.32Z"/><path d="M198.23,323.72q8.46.33,12.4,3.69a11.35,11.35,0,0,1,4,9.13,12.75,12.75,0,0,1-.87,4.76,9.69,9.69,0,0,1-2.63,3.75,12.54,12.54,0,0,1-4.45,2.47,20.47,20.47,0,0,1-6.38.89,20.19,20.19,0,0,1-3-.22,27.7,27.7,0,0,1-2.8-.56c-.86-.22-1.63-.45-2.3-.67a12.5,12.5,0,0,1-1.45-.56l1-4.54c.64.3,1.67.69,3.11,1.18a16.86,16.86,0,0,0,5.29.72,13.87,13.87,0,0,0,4.23-.55,7.71,7.71,0,0,0,2.77-1.52,5.48,5.48,0,0,0,1.54-2.21,7.42,7.42,0,0,0,.48-2.66,9.2,9.2,0,0,0-.73-3.78,6.17,6.17,0,0,0-2.57-2.77,15,15,0,0,0-4.93-1.71,42.9,42.9,0,0,0-7.79-.59c.23-1.83.4-3.54.54-5.15s.25-3.17.36-4.7.2-3.06.28-4.57.15-3.1.22-4.79h18.71v4.43H199.07c0,.56-.09,1.31-.17,2.27s-.15,1.94-.22,3-.15,2-.23,3S198.3,323.16,198.23,323.72Z"/><path d="M237.37,332a29.42,29.42,0,0,1,1.57-10,20.28,20.28,0,0,1,4.45-7.31,18.91,18.91,0,0,1,7-4.51,27.2,27.2,0,0,1,9.27-1.59l.39,4.37a26.49,26.49,0,0,0-6,.72,14.84,14.84,0,0,0-4.84,2.13,12.59,12.59,0,0,0-3.58,3.78,17.59,17.59,0,0,0-2.19,5.74,18,18,0,0,1,3.28-1.12,15.65,15.65,0,0,1,3.78-.45,14,14,0,0,1,5.6,1,10.56,10.56,0,0,1,3.75,2.66,10,10,0,0,1,2.1,3.81,15.66,15.66,0,0,1,.64,4.51,14.16,14.16,0,0,1-.72,4.36,12.81,12.81,0,0,1-2.22,4.09,11.48,11.48,0,0,1-3.78,3,11.82,11.82,0,0,1-5.43,1.17q-6.37,0-9.72-4.37T237.37,332Zm12.55-4a17.35,17.35,0,0,0-3.64.36,18.31,18.31,0,0,0-3.36,1.1q-.06.61-.09,1.26c0,.42,0,.84,0,1.25a31,31,0,0,0,.33,4.65,12,12,0,0,0,1.21,3.84,7,7,0,0,0,2.32,2.63,6.5,6.5,0,0,0,3.69,1,6,6,0,0,0,3.14-.78,7,7,0,0,0,2.13-2,8.29,8.29,0,0,0,1.2-2.66,10.89,10.89,0,0,0,.37-2.77,8.45,8.45,0,0,0-1.82-5.83A7,7,0,0,0,249.92,328Z"/><path d="M289.73,347.57a55.7,55.7,0,0,1,1.6-9.43,79.71,79.71,0,0,1,3.11-9.64,74.17,74.17,0,0,1,4.06-8.68,40.61,40.61,0,0,1,4.34-6.52H284v-4.54h24.69v4.32a43.55,43.55,0,0,0-4.09,5.85,68.9,68.9,0,0,0-4.22,8.34,73.65,73.65,0,0,0-3.42,9.86,52.28,52.28,0,0,0-1.76,10.44Z"/><path d="M355.87,337.49a11.37,11.37,0,0,1-.81,4.34,9.61,9.61,0,0,1-2.41,3.47,10.87,10.87,0,0,1-4,2.3,17.44,17.44,0,0,1-5.55.81,15.54,15.54,0,0,1-6.07-1,11.11,11.11,0,0,1-3.9-2.61,9.24,9.24,0,0,1-2.07-3.44,11.43,11.43,0,0,1-.61-3.56,8.94,8.94,0,0,1,.53-3.1,12.29,12.29,0,0,1,1.4-2.78,12.74,12.74,0,0,1,2-2.32,16.28,16.28,0,0,1,2.44-1.82,10.45,10.45,0,0,1-4.65-13.3,10.17,10.17,0,0,1,2.38-3.39,11.68,11.68,0,0,1,3.72-2.32,13.09,13.09,0,0,1,4.88-.87,13.75,13.75,0,0,1,5.37.95,11,11,0,0,1,3.67,2.44,9.24,9.24,0,0,1,2.07,3.27,10.29,10.29,0,0,1,.65,3.47,9.57,9.57,0,0,1-.48,3.06,11.67,11.67,0,0,1-3.13,4.84,15.92,15.92,0,0,1-2.16,1.68Q355.75,330.72,355.87,337.49Zm-20.16.34a6.72,6.72,0,0,0,.36,2.1,5.51,5.51,0,0,0,1.26,2,7.53,7.53,0,0,0,2.3,1.54,8.8,8.8,0,0,0,3.53.61,9.14,9.14,0,0,0,3.33-.56,6.78,6.78,0,0,0,2.32-1.43,5.67,5.67,0,0,0,1.35-2,6.07,6.07,0,0,0,.45-2.29,6.65,6.65,0,0,0-2.61-5.49,12,12,0,0,0-3-1.71,27,27,0,0,0-4-1.2,10.9,10.9,0,0,0-3.89,3.47A8.77,8.77,0,0,0,335.71,337.83Zm14-19.88a5.54,5.54,0,0,0-.36-1.85,5.74,5.74,0,0,0-1.15-1.87,6.45,6.45,0,0,0-2-1.46,7,7,0,0,0-3-.59,7.52,7.52,0,0,0-3.05.56,5.92,5.92,0,0,0-2.05,1.43,5.76,5.76,0,0,0-1.15,1.9,6.24,6.24,0,0,0-.36,2.05,7.12,7.12,0,0,0,.45,2.46,7,7,0,0,0,1.4,2.3,9.08,9.08,0,0,0,2.49,1.9,14.57,14.57,0,0,0,3.67,1.34,12.7,12.7,0,0,0,3.75-3.27A8,8,0,0,0,349.71,318Z"/><path d="M402.18,324.28q0,11.54-5.74,17.44t-17.05,6l-.17-4.37a28.09,28.09,0,0,0,6.36-.67,14.44,14.44,0,0,0,4.95-2.16,12.5,12.5,0,0,0,3.56-3.84,17.73,17.73,0,0,0,2.1-5.76,17.5,17.5,0,0,1-7.11,1.51,14.29,14.29,0,0,1-5.6-1,10.27,10.27,0,0,1-3.75-2.64,9.79,9.79,0,0,1-2.1-3.8,15.66,15.66,0,0,1-.65-4.51,13.78,13.78,0,0,1,.73-4.31,12.78,12.78,0,0,1,2.21-4.09,11.61,11.61,0,0,1,3.78-3,11.82,11.82,0,0,1,5.43-1.17,13.28,13.28,0,0,1,5.63,1.12,10.81,10.81,0,0,1,4.09,3.25,14.69,14.69,0,0,1,2.49,5.18A25.83,25.83,0,0,1,402.18,324.28Zm-12.54,3.86a18.12,18.12,0,0,0,3.69-.36,17.13,17.13,0,0,0,3.36-1.09c0-.42.06-.82.06-1.21v-1.2a29.88,29.88,0,0,0-.34-4.62,12,12,0,0,0-1.2-3.87,7.06,7.06,0,0,0-2.32-2.63,6.55,6.55,0,0,0-3.7-1,5.88,5.88,0,0,0-3.14.79,7,7,0,0,0-2.12,2,8.07,8.07,0,0,0-1.21,2.63,11.41,11.41,0,0,0-.36,2.78,8.24,8.24,0,0,0,1.82,5.79A7,7,0,0,0,389.64,328.14Z"/><path d="M430.63,312.24a15,15,0,0,0-7.22,1.9l-1.46-4a20.21,20.21,0,0,1,9.35-2.24,13.52,13.52,0,0,1,5.24.87,9.23,9.23,0,0,1,3.27,2.21,7.42,7.42,0,0,1,1.71,3,11.29,11.29,0,0,1,.48,3.16,7.68,7.68,0,0,1-.73,3.39,14.25,14.25,0,0,1-1.79,2.77,24.68,24.68,0,0,1-2.35,2.46,27,27,0,0,0-2.36,2.44,13.46,13.46,0,0,0-1.79,2.74,7.55,7.55,0,0,0-.73,3.34v.61a3,3,0,0,0,.06.62h-4.37a12,12,0,0,1-.22-2.36,7.91,7.91,0,0,1,.64-3.24,12.43,12.43,0,0,1,1.65-2.72,26.69,26.69,0,0,1,2.13-2.35c.75-.73,1.46-1.47,2.13-2.21a11.65,11.65,0,0,0,1.65-2.35,5.75,5.75,0,0,0,.65-2.69,5.14,5.14,0,0,0-1.52-3.84A6,6,0,0,0,430.63,312.24Zm3.53,32.31a3.82,3.82,0,0,1-1,2.63,3.92,3.92,0,0,1-5.49,0,3.93,3.93,0,0,1,0-5.26,3.92,3.92,0,0,1,5.49,0A3.8,3.8,0,0,1,434.16,344.55Z"/><path d="M470.16,344.55a3.81,3.81,0,0,1-1,2.63,3.92,3.92,0,0,1-5.49,0,3.93,3.93,0,0,1,0-5.26,3.92,3.92,0,0,1,5.49,0A3.79,3.79,0,0,1,470.16,344.55Zm-1-25.26q0,4.71-.33,8.54t-.84,7.65h-3.25q-.51-3.81-.84-7.65t-.34-8.54V308.76h5.6Z"/><path d="M505.28,309.21a23.56,23.56,0,0,1-.42,4.51l-.87,4.45,4-2.18a27.49,27.49,0,0,1,4.26-1.85l.34-.11,1.56,4.7-.44.17A18.88,18.88,0,0,1,509.2,320c-1.5.17-3,.31-4.6.42,1.24,1,2.39,2.07,3.48,3.06a21.19,21.19,0,0,1,3,3.44l.28.39-4.09,2.86-.22-.34a36.22,36.22,0,0,1-2.33-4q-1-2-2-4.12-1,2.13-2,4.12a36.22,36.22,0,0,1-2.33,4l-.22.34-4.09-2.86.28-.39a21.23,21.23,0,0,1,3-3.44q1.62-1.49,3.47-3.06-2.36-.17-4.59-.42a18.65,18.65,0,0,1-4.48-1.09l-.45-.17L493,314l.33.11a27.49,27.49,0,0,1,4.26,1.85l4,2.18c-.3-1.53-.58-3-.86-4.45a23.56,23.56,0,0,1-.42-4.51v-.45h5Z"/></g></g></svg>