<svg xmlns="http://www.w3.org/2000/svg" viewBox="0 0 451.07 775.15"><defs><style>.cls-1{fill:#646a73;}.cls-2{fill:#242d3c;}</style></defs><title>Element 21check</title><g id="Ebene_2" data-name="Ebene 2"><g id="Ebene_1-2" data-name="Ebene 1"><path class="cls-1" d="M207.22,527q29.47,0,48.68-4.91t30.82-13.4q11.59-8.49,16.07-20.1a71.53,71.53,0,0,0,4.47-25.9q0-30.36-28.58-50.47t-98.25-43.32q-30.37-10.71-60.74-24.56A223.7,223.7,0,0,1,65.2,309.49a166.39,166.39,0,0,1-39.3-50.91q-15.19-29.91-15.18-72.79T26.8,108.52A165,165,0,0,1,72.35,50Q101.83,25.9,143.8,13T238.48,0Q301,0,346.56,13.4t75,29.47L381.4,152.74a382.11,382.11,0,0,0-57.62-23.67q-31.71-10.26-76.36-10.27-50,0-71.91,13.84t-21.88,42.43q0,17,8,28.58t22.78,21a199.22,199.22,0,0,0,33.94,17q19.19,7.6,42.42,15.63,48.24,17.88,84,35.28t59.4,40.64a147.39,147.39,0,0,1,35.28,54.49q11.61,31.28,11.62,75.92,0,86.66-60.74,134.43T207.22,645.78q-41.08,0-74.13-4.91a479.85,479.85,0,0,1-58.51-12.06,334,334,0,0,1-43.76-15.18A326.13,326.13,0,0,1,0,598.44L39.3,487.69Q67,502.89,107.63,514.93T207.22,527Z"/><path class="cls-2" d="M207.25,571.65q135.76,0,135.77-92.9,0-28.58-12.06-48.67a116.78,116.78,0,0,0-32.6-34.84,227.5,227.5,0,0,0-46.9-25.46q-26.36-10.71-55.82-21.43A565.78,565.78,0,0,1,131.33,322Q101,307.26,78.63,287.16a147.48,147.48,0,0,1-35.28-47.78q-13-27.67-13-67,0-81.27,55.37-126.84T238.51,0q56.28,0,102.27,12.06t67.44,26.35L380.53,109q-18.75-11.59-55.82-22.78T238.51,75a191.34,191.34,0,0,0-46.45,5.36,118.94,118.94,0,0,0-37.51,16.08,79.64,79.64,0,0,0-25.46,27.24q-9.37,16.53-9.37,38.85,0,25,9.82,42t27.69,29.92a236.42,236.42,0,0,0,41.53,23.67q23.66,10.72,52.26,21.44,40.18,16.08,73.69,32.16t58.05,38.4a154.12,154.12,0,0,1,38,53.15q13.41,30.81,13.4,74.58,0,81.28-59.4,125T207.25,646.68a430.16,430.16,0,0,1-67.44-4.92,502.42,502.42,0,0,1-54.93-11.61,315.44,315.44,0,0,1-41.53-14.29q-17.42-7.58-27.25-13L42,531.45q20.54,11.63,62.52,25.91T207.25,571.65Z"/><rect class="cls-2" x="255.38" y="708" width="99.95" height="25.14"/><rect class="cls-1" x="92.55" y="708" width="99.95" height="25.14"/><path d="M271.88,755.76a8.74,8.74,0,0,1,5,1.2,4.53,4.53,0,0,1-1.29,7.84c.27.33.59.74.93,1.22s.71,1,1.07,1.56.72,1.14,1,1.73.64,1.16.9,1.73h-3.08c-.28-.52-.58-1-.9-1.58s-.64-1.05-1-1.55-.65-1-1-1.42-.62-.84-.89-1.19l-.53,0h-1.75V771h-2.75V756.13a15.54,15.54,0,0,1,2.14-.3C270.61,755.78,271.29,755.76,271.88,755.76Zm.2,2.38q-.87,0-1.62.06v4.89h1.21a11.59,11.59,0,0,0,1.76-.11,3.64,3.64,0,0,0,1.28-.39,2,2,0,0,0,.78-.76,2.59,2.59,0,0,0,.26-1.22,2.48,2.48,0,0,0-.26-1.18,2,2,0,0,0-.76-.77,3.45,3.45,0,0,0-1.16-.4A8.65,8.65,0,0,0,272.08,758.14Z"/><path d="M280.92,765.39a7.18,7.18,0,0,1,.45-2.65,5.66,5.66,0,0,1,1.19-1.88,4.94,4.94,0,0,1,1.7-1.14,5.39,5.39,0,0,1,2-.38,4.72,4.72,0,0,1,3.68,1.46,6.34,6.34,0,0,1,1.32,4.37c0,.14,0,.31,0,.49s0,.35,0,.49h-7.53a3,3,0,0,0,1,2.13,3.71,3.71,0,0,0,2.5.75,8.69,8.69,0,0,0,1.76-.17,7.93,7.93,0,0,0,1.26-.37l.35,2.16a5.14,5.14,0,0,1-.6.23c-.26.08-.55.15-.88.22s-.68.12-1.06.16a10.76,10.76,0,0,1-1.15.07,6.94,6.94,0,0,1-2.62-.45,4.88,4.88,0,0,1-1.84-1.25,5,5,0,0,1-1.07-1.87A7.75,7.75,0,0,1,280.92,765.39Zm7.67-1.18a3.24,3.24,0,0,0-.16-1,2.54,2.54,0,0,0-.44-.85,2.22,2.22,0,0,0-.72-.57,2.32,2.32,0,0,0-1-.21,2.41,2.41,0,0,0-1.07.23,2.7,2.7,0,0,0-.77.6,2.73,2.73,0,0,0-.5.86,5.39,5.39,0,0,0-.24,1Z"/><path d="M303.46,769.88a5.19,5.19,0,0,1-1.39,4,6.17,6.17,0,0,1-4.25,1.27,11.38,11.38,0,0,1-2-.18,11.8,11.8,0,0,1-1.8-.46l.48-2.25a7.57,7.57,0,0,0,1.54.46,9.13,9.13,0,0,0,1.87.18,3.19,3.19,0,0,0,2.27-.66,2.57,2.57,0,0,0,.67-1.94v-.44a7.71,7.71,0,0,1-1,.4,5.11,5.11,0,0,1-1.48.19,5.39,5.39,0,0,1-2-.35,4.19,4.19,0,0,1-1.55-1,4.81,4.81,0,0,1-1-1.7,6.93,6.93,0,0,1-.36-2.34,6.81,6.81,0,0,1,.38-2.3,5.08,5.08,0,0,1,1.12-1.79,5,5,0,0,1,1.78-1.15,6.3,6.3,0,0,1,2.37-.42,14.73,14.73,0,0,1,2.45.2c.77.13,1.43.27,2,.41ZM296.1,765a3.45,3.45,0,0,0,.73,2.45,2.48,2.48,0,0,0,1.89.78,3.85,3.85,0,0,0,1.19-.18,3.15,3.15,0,0,0,.9-.41v-5.92l-.7-.12a9.62,9.62,0,0,0-1,0,2.66,2.66,0,0,0-2.21.95A3.84,3.84,0,0,0,296.1,765Z"/><path d="M316.18,770.69c-.51.13-1.17.27-2,.41a17.14,17.14,0,0,1-2.69.2,5.94,5.94,0,0,1-2.3-.39,3.73,3.73,0,0,1-1.49-1.09,4.31,4.31,0,0,1-.79-1.67,8.9,8.9,0,0,1-.24-2.13v-6.4h2.64v6a4.93,4.93,0,0,0,.53,2.63,2.11,2.11,0,0,0,1.87.78c.32,0,.66,0,1,0a5.94,5.94,0,0,0,.79-.11v-9.24h2.64Z"/><path d="M323.52,771.26a6.92,6.92,0,0,1-1.95-.26,3,3,0,0,1-1.24-.69,2.46,2.46,0,0,1-.64-1.11,5.45,5.45,0,0,1-.19-1.52V754.54l2.64-.44v13.08a3.53,3.53,0,0,0,.08.8,1.28,1.28,0,0,0,.27.56,1.24,1.24,0,0,0,.54.35,4.47,4.47,0,0,0,.86.19Z"/><path d="M329.83,759.34a6.47,6.47,0,0,1,2.21.33,3.3,3.3,0,0,1,2.19,2.34,7.15,7.15,0,0,1,.23,1.85v6.92c-.41.09-1,.19-1.85.32a19.37,19.37,0,0,1-2.78.18,8.49,8.49,0,0,1-1.88-.19,4.1,4.1,0,0,1-1.45-.64,3.05,3.05,0,0,1-.94-1.13,4,4,0,0,1-.34-1.73,3.29,3.29,0,0,1,.39-1.66,3.1,3.1,0,0,1,1-1.1,4.49,4.49,0,0,1,1.52-.61A8.71,8.71,0,0,1,330,764a7.47,7.47,0,0,1,.92.06,8.45,8.45,0,0,1,1,.18v-.43a3.17,3.17,0,0,0-.11-.88,1.83,1.83,0,0,0-.38-.73,1.81,1.81,0,0,0-.72-.49,3,3,0,0,0-1.12-.17,9.71,9.71,0,0,0-1.68.13,7.43,7.43,0,0,0-1.25.3l-.33-2.14a12.48,12.48,0,0,1,1.47-.35A12.06,12.06,0,0,1,329.83,759.34Zm.22,9.85a9.42,9.42,0,0,0,1.85-.14v-2.92a4.76,4.76,0,0,0-.63-.13,5.21,5.21,0,0,0-.92-.07,5.3,5.3,0,0,0-.88.07,2.55,2.55,0,0,0-.81.24,1.45,1.45,0,0,0-.58.49,1.42,1.42,0,0,0-.21.8,1.41,1.41,0,0,0,.58,1.3A3.08,3.08,0,0,0,330.05,769.19Z"/><path d="M344.2,762a9,9,0,0,0-.91-.23,6.67,6.67,0,0,0-1.34-.12,5.21,5.21,0,0,0-.93.09,6.92,6.92,0,0,0-.69.15V771h-2.64V760.17a15,15,0,0,1,1.91-.54,12.35,12.35,0,0,1,2.54-.25,4.91,4.91,0,0,1,.62,0l.69.08.68.13a4.6,4.6,0,0,1,.53.15Z"/><path d="M125.44,771.22c-.8,0-1.6,0-2.42-.08a11.26,11.26,0,0,1-2.14-.32V756.13c.32-.06.66-.11,1-.16a9.92,9.92,0,0,1,1.11-.12c.38,0,.75-.06,1.13-.07l1.06,0a14.62,14.62,0,0,1,2.55.21,6.28,6.28,0,0,1,2,.68,3.57,3.57,0,0,1,1.34,1.27,3.65,3.65,0,0,1,.48,1.94,3.23,3.23,0,0,1-.51,1.84,3.66,3.66,0,0,1-1.43,1.22,4,4,0,0,1,2,1.35,3.74,3.74,0,0,1,.66,2.27,4,4,0,0,1-1.71,3.51A9.29,9.29,0,0,1,125.44,771.22Zm-1.85-9.15h1.94a5.59,5.59,0,0,0,2.47-.45,1.62,1.62,0,0,0,.89-1.6,1.59,1.59,0,0,0-.92-1.55,5.44,5.44,0,0,0-2.42-.46c-.42,0-.79,0-1.12,0s-.61,0-.84.06Zm0,2.16v4.61c.3,0,.63,0,1,.06s.67,0,1,0a9.93,9.93,0,0,0,1.59-.11,4.14,4.14,0,0,0,1.26-.38,2.17,2.17,0,0,0,.85-.73,2,2,0,0,0,.32-1.18,1.85,1.85,0,0,0-.94-1.79,5.64,5.64,0,0,0-2.6-.5Z"/><path d="M145.42,765.32a7.44,7.44,0,0,1-.39,2.47,5.51,5.51,0,0,1-1.11,1.9,5,5,0,0,1-1.74,1.22,5.9,5.9,0,0,1-4.47,0,5.14,5.14,0,0,1-1.72-1.22,5.53,5.53,0,0,1-1.12-1.9,7.62,7.62,0,0,1,0-4.93A5.31,5.31,0,0,1,136,761a5.08,5.08,0,0,1,1.74-1.22,5.64,5.64,0,0,1,2.2-.42,5.77,5.77,0,0,1,2.22.42,4.94,4.94,0,0,1,1.73,1.22,5.46,5.46,0,0,1,1.13,1.88A7.13,7.13,0,0,1,145.42,765.32Zm-2.71,0a4.48,4.48,0,0,0-.73-2.7,2.37,2.37,0,0,0-2-1,2.4,2.4,0,0,0-2,1,4.48,4.48,0,0,0-.73,2.7,4.53,4.53,0,0,0,.73,2.73,2.38,2.38,0,0,0,2,1,2.36,2.36,0,0,0,2-1A4.53,4.53,0,0,0,142.71,765.32Z"/><path d="M152.13,771.26a7,7,0,0,1-2-.26,2.92,2.92,0,0,1-1.23-.69,2.48,2.48,0,0,1-.65-1.11,5.87,5.87,0,0,1-.18-1.52V754.54l2.64-.44v13.08a3.53,3.53,0,0,0,.08.8,1.18,1.18,0,0,0,.8.91,4.78,4.78,0,0,0,.87.19Z"/><path d="M164.29,770.69a15.89,15.89,0,0,1-2,.44,15.44,15.44,0,0,1-2.5.2,6.57,6.57,0,0,1-2.42-.42,5.09,5.09,0,0,1-1.83-1.19,5.26,5.26,0,0,1-1.15-1.88,7.13,7.13,0,0,1-.41-2.48,8.48,8.48,0,0,1,.34-2.45,5.48,5.48,0,0,1,1-1.89,4.44,4.44,0,0,1,1.6-1.21,5.08,5.08,0,0,1,2.16-.43,5,5,0,0,1,1.46.2,6,6,0,0,1,1.09.44v-5.48l2.65-.44Zm-7.58-5.39a4.17,4.17,0,0,0,.83,2.74,2.83,2.83,0,0,0,2.29,1,10.75,10.75,0,0,0,1.08,0c.3,0,.55-.08.73-.12v-6.55a4.15,4.15,0,0,0-.92-.45,3.63,3.63,0,0,0-1.24-.21,2.34,2.34,0,0,0-2.1,1A4.62,4.62,0,0,0,156.71,765.3Z"/></g></g></svg>