<svg xmlns="http://www.w3.org/2000/svg" viewBox="0 0 522.69 347.36"><defs><style>.cls-1{fill:none;stroke:#001f41;stroke-miterlimit:10;stroke-width:2px;}</style></defs><title>Element 24check</title><g id="Ebene_2" data-name="Ebene 2"><g id="Ebene_1-2" data-name="Ebene 1"><path d="M9.13,20.72a9.21,9.21,0,0,1-3.28-.53,6.09,6.09,0,0,1-2.27-1.48,6,6,0,0,1-1.33-2.27,9.13,9.13,0,0,1-.43-2.89V2.34H5.88V13.21a6.27,6.27,0,0,0,.24,1.86,3.42,3.42,0,0,0,.68,1.24,2.27,2.27,0,0,0,1,.69,4.09,4.09,0,0,0,1.34.21,3.24,3.24,0,0,0,2.4-.91,4.21,4.21,0,0,0,.93-3.09V2.34h4V13.55a9.34,9.34,0,0,1-.44,2.91,5.85,5.85,0,0,1-1.35,2.27,5.92,5.92,0,0,1-2.32,1.47A9.45,9.45,0,0,1,9.13,20.72Z"/><path d="M32.92,13.52a8.63,8.63,0,0,1-.48,3A6.39,6.39,0,0,1,31,18.75a6.14,6.14,0,0,1-2.23,1.44,8.39,8.39,0,0,1-3,.51c-.47,0-1,0-1.47-.07s-1-.1-1.51-.17-1-.15-1.41-.25-.85-.19-1.2-.29V.81L24.08.18V7a7.61,7.61,0,0,1,1.35-.44,7.23,7.23,0,0,1,1.51-.15,6.14,6.14,0,0,1,2.57.5,5,5,0,0,1,1.87,1.45,6.5,6.5,0,0,1,1.15,2.24A10.34,10.34,0,0,1,32.92,13.52Zm-4-.1c0-2.5-.91-3.75-2.75-3.75A4.3,4.3,0,0,0,25,9.83a3,3,0,0,0-1,.39v7a5.39,5.39,0,0,0,.72.09c.3,0,.62,0,1,0a2.79,2.79,0,0,0,2.39-1.09A4.72,4.72,0,0,0,29,13.42Z"/><path d="M47.58,19.89a21,21,0,0,1-2.55.53,20.27,20.27,0,0,1-3.27.25,7.79,7.79,0,0,1-2.9-.47A4.44,4.44,0,0,1,37,18.89a5.12,5.12,0,0,1-1-2,10.82,10.82,0,0,1-.28-2.57V6.68h3.87v7.15a5.58,5.58,0,0,0,.49,2.71,2,2,0,0,0,1.85.83c.28,0,.57,0,.88,0l.84-.09V6.68h3.87Z"/><path d="M51.22,7.15a21,21,0,0,1,2.55-.53A20.27,20.27,0,0,1,57,6.37a8.07,8.07,0,0,1,2.9.45,4.56,4.56,0,0,1,1.84,1.29,5.08,5.08,0,0,1,1,2A10.54,10.54,0,0,1,63,12.64v7.72H59.15V13.1a5.22,5.22,0,0,0-.5-2.65,2,2,0,0,0-1.84-.78c-.28,0-.57,0-.89,0l-.83.09V20.36H51.22Z"/><path d="M66.4,3.28l3.88-.63v4h4.65V9.91H70.28v4.81a3.81,3.81,0,0,0,.43,2,1.83,1.83,0,0,0,1.72.72,8.22,8.22,0,0,0,1.29-.11A6.65,6.65,0,0,0,74.93,17l.55,3a11.47,11.47,0,0,1-1.56.49,9.1,9.1,0,0,1-2.11.21,6.89,6.89,0,0,1-2.63-.43A4.12,4.12,0,0,1,67.52,19a4.35,4.35,0,0,1-.87-1.85,10.71,10.71,0,0,1-.25-2.42Z"/><path d="M89.75,19.89a21,21,0,0,1-2.55.53,20.27,20.27,0,0,1-3.27.25A7.79,7.79,0,0,1,81,20.2a4.44,4.44,0,0,1-1.84-1.31,5.12,5.12,0,0,1-1-2A10.82,10.82,0,0,1,78,14.3V6.68h3.87v7.15a5.58,5.58,0,0,0,.49,2.71,2,2,0,0,0,1.85.83c.28,0,.57,0,.88,0l.84-.09V6.68h3.87Z"/><path d="M100.31,0h2.26V25.17h-2.26Z"/><path d="M115.57,7.44a6.5,6.5,0,0,1,1.34-.6A6.16,6.16,0,0,1,119,6.53a6.08,6.08,0,0,1,2.59.52,5.36,5.36,0,0,1,1.91,1.45,6.47,6.47,0,0,1,1.18,2.24,9.55,9.55,0,0,1,.41,2.86,8.57,8.57,0,0,1-.48,3,6.17,6.17,0,0,1-1.37,2.22,6,6,0,0,1-2.13,1.41,7.77,7.77,0,0,1-2.81.49,17.65,17.65,0,0,1-3-.23c-.87-.16-1.58-.32-2.13-.47V.6l2.42-.42Zm0,10.81a7.32,7.32,0,0,0,1,.2,12.83,12.83,0,0,0,1.66.09,4,4,0,0,0,3.12-1.29,5.23,5.23,0,0,0,1.17-3.65,8.57,8.57,0,0,0-.21-1.95,4.53,4.53,0,0,0-.68-1.58,3.31,3.31,0,0,0-1.21-1,3.9,3.9,0,0,0-1.78-.37,4.72,4.72,0,0,0-1.82.34,4.87,4.87,0,0,0-1.27.7Z"/><path d="M140.4,13.6a8.62,8.62,0,0,1-.47,2.91,6.72,6.72,0,0,1-1.31,2.24,5.93,5.93,0,0,1-2,1.44,6.61,6.61,0,0,1-5.09,0,5.74,5.74,0,0,1-2-1.44,6.72,6.72,0,0,1-1.31-2.24,8.62,8.62,0,0,1-.47-2.91,8.6,8.6,0,0,1,.47-2.9,6.57,6.57,0,0,1,1.31-2.25,5.62,5.62,0,0,1,2-1.44,6.61,6.61,0,0,1,5.09,0,5.8,5.8,0,0,1,2,1.44,6.57,6.57,0,0,1,1.31,2.25A8.6,8.6,0,0,1,140.4,13.6Zm-2.52,0a5.84,5.84,0,0,0-1-3.63,3.58,3.58,0,0,0-5.59,0,5.78,5.78,0,0,0-1,3.63,5.77,5.77,0,0,0,1,3.62,3.58,3.58,0,0,0,5.59,0A5.83,5.83,0,0,0,137.88,13.6Z"/><path d="M147.86,20.62a4.69,4.69,0,0,1-3.17-1,3.8,3.8,0,0,1-.94-2.84V.6l2.42-.42V16.43a3.92,3.92,0,0,0,.1,1,1.37,1.37,0,0,0,.34.62,1.43,1.43,0,0,0,.63.36,7.39,7.39,0,0,0,1,.19Z"/><path d="M159.64.6l2.41-.42V20c-.55.15-1.26.31-2.13.47a17.56,17.56,0,0,1-3,.23,7.72,7.72,0,0,1-2.8-.49A6,6,0,0,1,152,18.77a6.15,6.15,0,0,1-1.36-2.22,8.57,8.57,0,0,1-.48-3,9.55,9.55,0,0,1,.4-2.86,6.47,6.47,0,0,1,1.18-2.24,5.36,5.36,0,0,1,1.91-1.45,6.11,6.11,0,0,1,2.59-.52,6.26,6.26,0,0,1,2.07.31,6.76,6.76,0,0,1,1.34.6Zm0,9.1a5,5,0,0,0-1.28-.7,4.68,4.68,0,0,0-1.82-.34,3.93,3.93,0,0,0-1.78.37,3.48,3.48,0,0,0-1.21,1,4.52,4.52,0,0,0-.67,1.58,8.57,8.57,0,0,0-.21,1.95,5.23,5.23,0,0,0,1.17,3.65A4,4,0,0,0,157,18.54a12.55,12.55,0,0,0,1.65-.09,7.84,7.84,0,0,0,1-.2Z"/><path d="M173.42,4.39A1.53,1.53,0,0,1,172.31,4a1.51,1.51,0,0,1-.45-1.15,1.56,1.56,0,1,1,3.12,0,1.52,1.52,0,0,1-1.56,1.58Zm1.22,16h-2.42V6.84h2.42Z"/><path d="M181.06,6.84h5.12v2h-5.12v6.24a7.09,7.09,0,0,0,.16,1.67,2.57,2.57,0,0,0,.46,1,1.78,1.78,0,0,0,.78.54,3.66,3.66,0,0,0,1.1.15,5,5,0,0,0,1.75-.25l.92-.35.47,2a9.14,9.14,0,0,1-1.27.45,7.34,7.34,0,0,1-2.08.27,6.21,6.21,0,0,1-2.28-.35,3.22,3.22,0,0,1-1.44-1.05,4.29,4.29,0,0,1-.77-1.73,11.21,11.21,0,0,1-.22-2.38V3.07l2.42-.42Z"/><path d="M193.62,6.5a7,7,0,0,1,2.45.38,4,4,0,0,1,1.62,1.06,4.24,4.24,0,0,1,.87,1.64,8,8,0,0,1,.26,2.09v8.45l-.87.15-1.26.17c-.47,0-1,.1-1.53.14s-1.08.06-1.62.06a8.75,8.75,0,0,1-2.11-.23,4.75,4.75,0,0,1-1.66-.74,3.42,3.42,0,0,1-1.09-1.34,4.66,4.66,0,0,1-.39-2,3.91,3.91,0,0,1,.45-1.93A3.76,3.76,0,0,1,190,13.1a5.5,5.5,0,0,1,1.82-.72,9.65,9.65,0,0,1,2.18-.24c.24,0,.5,0,.76,0l.74.1.61.12.36.08V11.8a5.27,5.27,0,0,0-.13-1.18,2.67,2.67,0,0,0-.47-1,2.34,2.34,0,0,0-.92-.73,3.66,3.66,0,0,0-1.52-.27,11.54,11.54,0,0,0-2.09.17A7.09,7.09,0,0,0,190,9.1l-.29-2a7.21,7.21,0,0,1,1.56-.41A13.55,13.55,0,0,1,193.62,6.5Zm.21,12.12c.57,0,1.07,0,1.52,0a6.81,6.81,0,0,0,1.1-.15v-4a3.25,3.25,0,0,0-.84-.22,9.59,9.59,0,0,0-1.42-.09,9.7,9.7,0,0,0-1.16.08,3.72,3.72,0,0,0-1.12.32,2.65,2.65,0,0,0-.84.68,1.75,1.75,0,0,0-.34,1.13,2,2,0,0,0,.83,1.81A4.34,4.34,0,0,0,193.83,18.62Z"/><path d="M206.88,20.62a4.69,4.69,0,0,1-3.17-1,3.8,3.8,0,0,1-.94-2.84V.6l2.42-.42V16.43a3.92,3.92,0,0,0,.1,1,1.29,1.29,0,0,0,.34.62,1.45,1.45,0,0,0,.62.36,7.39,7.39,0,0,0,1,.19Z"/><path d="M211.12,4.39A1.53,1.53,0,0,1,210,4a1.51,1.51,0,0,1-.46-1.15,1.56,1.56,0,1,1,3.12,0A1.51,1.51,0,0,1,212.22,4,1.52,1.52,0,0,1,211.12,4.39Zm1.22,16h-2.42V6.84h2.42Z"/><path d="M222.37,20.67a7.28,7.28,0,0,1-2.87-.52,5.76,5.76,0,0,1-2.08-1.46,6.07,6.07,0,0,1-1.26-2.22,9.17,9.17,0,0,1-.42-2.85,8.45,8.45,0,0,1,.46-2.86,6.91,6.91,0,0,1,1.28-2.25A5.9,5.9,0,0,1,219.53,7a6.66,6.66,0,0,1,2.69-.53,10.26,10.26,0,0,1,1.82.16,8,8,0,0,1,1.74.49l-.55,2A5.65,5.65,0,0,0,224,8.79a6.75,6.75,0,0,0-1.52-.16,3.86,3.86,0,0,0-3.11,1.28,5.59,5.59,0,0,0-1.08,3.71,7.9,7.9,0,0,0,.25,2,4.4,4.4,0,0,0,.78,1.56,3.58,3.58,0,0,0,1.37,1,5.26,5.26,0,0,0,2,.35,7.78,7.78,0,0,0,1.75-.18,8.05,8.05,0,0,0,1.22-.39l.34,2a2.51,2.51,0,0,1-.6.25,7.83,7.83,0,0,1-.89.21q-.5.09-1.05.15A8,8,0,0,1,222.37,20.67Z"/><line class="cls-1" y1="36.06" x2="520.3" y2="36.06"/><path d="M29.84,103.57c-.08-1.45-.16-2.88-.25-4.28s-.2-2.79-.31-4.17H14.72q-1.12,2.07-2.35,4.17c-.83,1.4-1.61,2.83-2.36,4.28H.88Q4.53,97.3,7.69,92t6.1-10q2.94-4.71,5.74-8.94t5.72-8.26H33q.9,4,1.71,8.94t1.51,10c.46,3.42.89,6.83,1.29,10.25s.75,6.62,1.09,9.6ZM27.26,73.28Q24.91,77,22.64,80.72c-1.51,2.47-3,5-4.39,7.56H28.72q-.28-3.41-.59-7.28C27.92,78.43,27.63,75.85,27.26,73.28Z"/><path d="M62.09,104.08c-2.24,0-4.53-.1-6.88-.28a49.15,49.15,0,0,1-6.39-.9l9-37.52a53.6,53.6,0,0,1,6.69-.84q3.5-.23,6.41-.22a21,21,0,0,1,5.8.7,12,12,0,0,1,4,1.87A7.62,7.62,0,0,1,83,69.66a7.78,7.78,0,0,1,.76,3.39,13.89,13.89,0,0,1-.25,2.58,8.7,8.7,0,0,1-1,2.66,10.08,10.08,0,0,1-2.07,2.49,13.61,13.61,0,0,1-3.45,2.13,8,8,0,0,1,3.7,3,8.12,8.12,0,0,1,1.17,4.28,13,13,0,0,1-1.06,5.18,11.6,11.6,0,0,1-3.42,4.43,17.62,17.62,0,0,1-6.1,3.08A31.67,31.67,0,0,1,62.09,104.08ZM61.31,86.6,58.9,96.68a18,18,0,0,0,2.27.26c.91,0,1.76.08,2.55.08a21.77,21.77,0,0,0,3.33-.25,9.75,9.75,0,0,0,3-.93A5.89,5.89,0,0,0,72.17,94,5.12,5.12,0,0,0,73,91a4.41,4.41,0,0,0-.3-1.57,3.91,3.91,0,0,0-1-1.4A5,5,0,0,0,70,87a7.72,7.72,0,0,0-2.6-.4Zm1.62-6.55h5.49a7.4,7.4,0,0,0,5-1.45,4.49,4.49,0,0,0,1.65-3.48,3.36,3.36,0,0,0-.47-1.82,3.62,3.62,0,0,0-1.26-1.2,5.75,5.75,0,0,0-1.79-.64,11,11,0,0,0-2.08-.2c-.78,0-1.62,0-2.52.08s-1.56.13-2,.2Z"/><path d="M120.89,101.89a24.2,24.2,0,0,1-5.09,1.79,29.67,29.67,0,0,1-6.84.68,17.12,17.12,0,0,1-6.35-1.15,13.89,13.89,0,0,1-4.93-3.28,14.55,14.55,0,0,1-3.16-5.18,19.7,19.7,0,0,1-1.12-6.86,25.6,25.6,0,0,1,1.54-8.68A23.07,23.07,0,0,1,106.81,66a22.38,22.38,0,0,1,10-2.13,23,23,0,0,1,5.3.61,22.32,22.32,0,0,1,5.46,2.19l-3.14,6.77a19.06,19.06,0,0,0-4.2-1.68,17.33,17.33,0,0,0-4-.44,12.68,12.68,0,0,0-5.74,1.28,13.46,13.46,0,0,0-4.36,3.5,15.7,15.7,0,0,0-2.78,5.13,19.81,19.81,0,0,0-1,6.16q0,4.92,2.16,7.17a8.21,8.21,0,0,0,6.19,2.24,20.77,20.77,0,0,0,4.95-.56,24.47,24.47,0,0,0,4.23-1.46Z"/><path d="M169.5,79.88A26.41,26.41,0,0,1,167.65,90a20.58,20.58,0,0,1-5.29,7.59A23.87,23.87,0,0,1,154,102.4a34.46,34.46,0,0,1-11.15,1.68c-1.56,0-3.38-.1-5.43-.28a50,50,0,0,1-5.93-.9l9-37.46a59.79,59.79,0,0,1,6.13-.87c2-.17,3.73-.25,5.3-.25a22.82,22.82,0,0,1,7.42,1.12,15.48,15.48,0,0,1,5.54,3.19,13.52,13.52,0,0,1,3.44,4.93A16.32,16.32,0,0,1,169.5,79.88ZM141.67,96.57q.62.06,1.26.09c.43,0,1,0,1.76,0a18.28,18.28,0,0,0,6.58-1.12,13.6,13.6,0,0,0,5-3.22,14.39,14.39,0,0,0,3.16-5.15,19.7,19.7,0,0,0,1.12-6.86,11.94,11.94,0,0,0-.5-3.55A6.67,6.67,0,0,0,158.38,74a7.53,7.53,0,0,0-3-1.76,13.85,13.85,0,0,0-4.4-.62c-1.12,0-2.26.06-3.42.17Z"/><path d="M176.72,103.57,186,64.76h25.37l-1.8,7.17H193l-1.79,7.84h14.67l-1.73,7.06H189.44l-2.24,9.52h17.92l-1.8,7.22Z"/><path d="M215,103.57l9.29-38.81h25.15L247.67,72h-16.4l-2,8.29h14.5l-1.74,7.22h-14.5l-3.86,16.07Z"/><path d="M271,96.85c.75,0,1.42,0,2-.08s1.14-.12,1.62-.2l3.25-13.49h8.74l-4.71,19.43a27.9,27.9,0,0,1-4.53,1.2,40.19,40.19,0,0,1-7.56.59,19.16,19.16,0,0,1-6.92-1.15,13.23,13.23,0,0,1-5-3.27,13.7,13.7,0,0,1-3-5.16,21.56,21.56,0,0,1-1-6.83,25.6,25.6,0,0,1,1.54-8.68,23,23,0,0,1,4.56-7.7,23.4,23.4,0,0,1,7.5-5.51,23.74,23.74,0,0,1,10.31-2.13,22.58,22.58,0,0,1,5.68.78A18.72,18.72,0,0,1,288.84,67l-3.14,6.78a15.86,15.86,0,0,0-4.17-1.85,16.17,16.17,0,0,0-4.34-.61,13.89,13.89,0,0,0-6.08,1.28,13.61,13.61,0,0,0-4.51,3.5,15.56,15.56,0,0,0-2.8,5.13,19.81,19.81,0,0,0-.95,6.16q0,4.92,2,7.19C266.26,96.1,268.28,96.85,271,96.85Z"/><path d="M326.52,64.76h8.74l-9.35,38.81h-8.74l4-16.52H307.37l-4,16.52h-8.68L304,64.76h8.74l-3.59,14.9h13.78Z"/><path d="M349,64.76h8.74l-9.35,38.81h-8.68Z"/><path d="M385.21,91.81A25.61,25.61,0,0,1,383.42,97a13.17,13.17,0,0,1-2.91,4,12,12,0,0,1-4.43,2.52,20.45,20.45,0,0,1-6.38.87,17.58,17.58,0,0,1-5.74-.93,16.6,16.6,0,0,1-4.79-2.49l3.86-6.5A17.55,17.55,0,0,0,366,96.12a9,9,0,0,0,3.78.73,9.15,9.15,0,0,0,2.72-.36,5,5,0,0,0,2-1.18,6.74,6.74,0,0,0,1.42-2.1,17.09,17.09,0,0,0,1-3.13L383,64.76h8.74Z"/><path d="M419,103.57c-.52-1.27-1.15-2.63-1.87-4.09s-1.53-2.91-2.41-4.36a48.92,48.92,0,0,0-2.83-4.2,33.05,33.05,0,0,0-3.08-3.59l-4,16.24h-8.68l9.29-38.81h8.74l-3.42,14Q415.17,75,419,71.57t7.23-6.81h10.36L426.51,74.2q-5,4.68-10.56,9.1a69.91,69.91,0,0,1,6.78,8.85,65.15,65.15,0,0,1,5.82,11.42Z"/><path d="M466,96.18l-1.79,7.39H438.3l9.29-38.81h8.74l-7.56,31.42Z"/><path d="M494,64.76c.22,1,.51,2.44.86,4.29s.73,3.88,1.12,6.1.8,4.5,1.21,6.83.78,4.48,1.12,6.42c1.27-1.94,2.65-4,4.14-6.28s3-4.44,4.42-6.6,2.84-4.19,4.15-6.08,2.43-3.44,3.36-4.68h7.73q-.39,3.87-1,8.68c-.43,3.22-.91,6.54-1.46,10s-1.11,6.89-1.7,10.36-1.2,6.74-1.8,9.8h-8.51q1.19-5.71,2.5-12.35t2.43-13.41l-3.25,5.13c-1.19,1.88-2.39,3.79-3.58,5.71s-2.35,3.76-3.47,5.51-2.09,3.25-2.91,4.48H493c-.19-1.12-.41-2.53-.67-4.25s-.55-3.54-.87-5.46-.64-3.87-1-5.83-.65-3.72-.95-5.29q-2.19,6.78-4,13.41c-1.17,4.43-2.27,8.54-3.27,12.35H473.8q1.29-4.59,2.83-9.8t3.19-10.39q1.65-5.17,3.28-10c1.08-3.21,2.1-6.09,3.08-8.63Z"/><path d="M30.45,163.57q-2.36-6.6-5.23-13.21A131,131,0,0,0,19,137.87l-6.16,25.7H4.25l9.29-38.81h6.67c.85,1.31,1.78,2.85,2.77,4.62s2,3.69,3.05,5.74,2.09,4.2,3.14,6.42,2,4.41,3,6.58l5.55-23.36h8.68L37,163.57Z"/><path d="M65.28,164.36A17.22,17.22,0,0,1,59,163.24,14.1,14.1,0,0,1,54.08,160a14.6,14.6,0,0,1-3.22-5.13,19.22,19.22,0,0,1-1.14-6.83,26.05,26.05,0,0,1,1.51-8.68,25.38,25.38,0,0,1,4.34-7.76,22.39,22.39,0,0,1,6.91-5.6,19.61,19.61,0,0,1,9.24-2.15A17,17,0,0,1,78,125a14.06,14.06,0,0,1,4.92,3.22,14.51,14.51,0,0,1,3.22,5.12,19.07,19.07,0,0,1,1.15,6.83,26.7,26.7,0,0,1-1.48,8.71,24.91,24.91,0,0,1-4.31,7.79,22.18,22.18,0,0,1-6.92,5.57A19.83,19.83,0,0,1,65.28,164.36Zm5.55-33A9,9,0,0,0,66,132.72a13.36,13.36,0,0,0-3.86,3.58,17.4,17.4,0,0,0-2.58,5.15,19.57,19.57,0,0,0-.92,6,11.91,11.91,0,0,0,1.76,6.81q1.77,2.59,5.74,2.6A9.12,9.12,0,0,0,71,155.51a13.52,13.52,0,0,0,3.86-3.59,17.72,17.72,0,0,0,2.58-5.12,19.78,19.78,0,0,0,.92-6,11.93,11.93,0,0,0-1.76-6.8Q74.8,131.37,70.83,131.37Z"/><path d="M110.64,124.32a24.83,24.83,0,0,1,6.36.75,14.4,14.4,0,0,1,4.79,2.19,9.77,9.77,0,0,1,4.09,8.14,14.47,14.47,0,0,1-1.63,7.12,12.78,12.78,0,0,1-4.48,4.7,20,20,0,0,1-6.72,2.58,42.46,42.46,0,0,1-8.4.78h-2.18l-3.14,13H90.65l9.13-38.25q3-.55,5.74-.78C107.33,124.39,109,124.32,110.64,124.32Zm-.72,7.33c-.64,0-1.18,0-1.63.06l-1.34.11-2.69,11.42h2.18a23.53,23.53,0,0,0,4.29-.36,9.6,9.6,0,0,0,3.3-1.2,6,6,0,0,0,2.13-2.16,6.42,6.42,0,0,0,.76-3.22,3.82,3.82,0,0,0-1.82-3.58A10.36,10.36,0,0,0,109.92,131.65Z"/><path d="M157.63,174a38.09,38.09,0,0,1-7.4-.89,15.48,15.48,0,0,1-4.78-1.93,7.07,7.07,0,0,1-2.61-2.94,9.49,9.49,0,0,1-.78-3.92V164a14,14,0,0,1-8.54-5.2q-3.17-4.09-3.16-10.7a26.05,26.05,0,0,1,1.51-8.68,25.38,25.38,0,0,1,4.34-7.76,22.39,22.39,0,0,1,6.91-5.6,19.61,19.61,0,0,1,9.24-2.15,16.93,16.93,0,0,1,6.27,1.12,14,14,0,0,1,4.93,3.22,14.51,14.51,0,0,1,3.22,5.12,19.07,19.07,0,0,1,1.15,6.83,26.81,26.81,0,0,1-1.17,7.76,25.69,25.69,0,0,1-3.45,7.17,23.14,23.14,0,0,1-5.54,5.63,19.23,19.23,0,0,1-7.48,3.19v.17a2.51,2.51,0,0,0,.81,2,5.64,5.64,0,0,0,2.19,1.12,18.36,18.36,0,0,0,3.16.56c1.19.11,2.45.2,3.75.28Zm-6.16-42.67a9,9,0,0,0-4.79,1.35,13.52,13.52,0,0,0-3.87,3.58,17.62,17.62,0,0,0-2.57,5.15,19.57,19.57,0,0,0-.93,6,11.91,11.91,0,0,0,1.77,6.81q1.77,2.59,5.74,2.6a9.12,9.12,0,0,0,4.79-1.34,13.52,13.52,0,0,0,3.86-3.59,17.72,17.72,0,0,0,2.58-5.12,19.78,19.78,0,0,0,.92-6,11.93,11.93,0,0,0-1.76-6.8Q155.44,131.37,151.47,131.37Z"/><path d="M191.45,124.32a21.75,21.75,0,0,1,6.55.89,14,14,0,0,1,4.65,2.41,9.39,9.39,0,0,1,2.74,3.56,10.5,10.5,0,0,1,.9,4.28,15.88,15.88,0,0,1-.42,3.64,9.7,9.7,0,0,1-1.57,3.42,12.57,12.57,0,0,1-3.08,3,17.69,17.69,0,0,1-4.95,2.33,69.65,69.65,0,0,1,3.22,7c1.1,2.77,2.13,5.66,3.11,8.68h-9.36c-.86-2.57-1.72-5.12-2.6-7.64a36.68,36.68,0,0,0-2.94-6.53h-4.37l-3.41,14.17h-8.68l9.12-38.25a58,58,0,0,1,5.88-.78C188.15,124.39,189.88,124.32,191.45,124.32Zm-.28,7.39c-.63,0-1.29,0-2,0l-1.68.12L185,142.52h3a17.38,17.38,0,0,0,4.54-.51,8.57,8.57,0,0,0,3-1.34,4.91,4.91,0,0,0,1.6-1.93,5.47,5.47,0,0,0,.47-2.22,6.12,6.12,0,0,0-.27-1.82,3.72,3.72,0,0,0-1-1.54,5.28,5.28,0,0,0-2-1.06A10.6,10.6,0,0,0,191.17,131.71Z"/><path d="M220.07,157.08a17.22,17.22,0,0,0,2.57-.2,7.56,7.56,0,0,0,2.3-.7,4.38,4.38,0,0,0,1.65-1.43,4.06,4.06,0,0,0,.64-2.38,3.11,3.11,0,0,0-.61-1.93,6.77,6.77,0,0,0-1.57-1.48,14.37,14.37,0,0,0-2.13-1.24c-.78-.37-1.57-.78-2.35-1.23a30.84,30.84,0,0,1-2.86-1.9,11.46,11.46,0,0,1-2.29-2.27,10.35,10.35,0,0,1-1.51-2.8,10.23,10.23,0,0,1-.56-3.56,11.55,11.55,0,0,1,1-4.78,10.43,10.43,0,0,1,2.91-3.84,14.15,14.15,0,0,1,4.84-2.55,22.85,22.85,0,0,1,6.83-.92,18.85,18.85,0,0,1,3.48.31,26.12,26.12,0,0,1,3.13.75,18.67,18.67,0,0,1,2.66,1,16.88,16.88,0,0,1,2,1.15l-3.64,6.44a13.11,13.11,0,0,0-3.42-1.8,12.88,12.88,0,0,0-4.37-.72,13,13,0,0,0-2.46.22,6.13,6.13,0,0,0-2.07.76,4.09,4.09,0,0,0-1.43,1.37,3.75,3.75,0,0,0-.53,2.07,3.84,3.84,0,0,0,.42,1.88,4.57,4.57,0,0,0,1.09,1.31,7.85,7.85,0,0,0,1.57,1l1.9,1c1.16.6,2.28,1.23,3.36,1.91a13.89,13.89,0,0,1,2.86,2.32,10.58,10.58,0,0,1,2,3,10,10,0,0,1,.72,4,12.34,12.34,0,0,1-1.17,5.55,11,11,0,0,1-3.31,3.92,14.46,14.46,0,0,1-5.06,2.32,26.42,26.42,0,0,1-6.53.76,22.53,22.53,0,0,1-4.39-.4A29.84,29.84,0,0,1,212,163a19.29,19.29,0,0,1-2.86-1.15,17.3,17.3,0,0,1-1.93-1.12l3.7-6.66c.45.3,1,.61,1.62.95a18.36,18.36,0,0,0,2.16.95,20.57,20.57,0,0,0,2.55.76A12.78,12.78,0,0,0,220.07,157.08Z"/><path d="M278.92,124.76l-1.79,7.34H265.76l-7.56,31.47h-8.73L257,132.1H245.66l1.79-7.34Z"/><path d="M309.44,149.46q-1.9,7.89-6.19,11.4t-11.34,3.5a18.77,18.77,0,0,1-6.13-.87,10.75,10.75,0,0,1-4.06-2.41,9.1,9.1,0,0,1-2.27-3.7,15.19,15.19,0,0,1-.7-4.67,25.36,25.36,0,0,1,.84-6.22l5.21-21.73h8.74l-5.49,23a15.4,15.4,0,0,0-.56,4.09,7.4,7.4,0,0,0,.25,2,3.69,3.69,0,0,0,.9,1.57,4.2,4.2,0,0,0,1.73,1,8.51,8.51,0,0,0,2.72.37,6.24,6.24,0,0,0,5.1-2.1,14.94,14.94,0,0,0,2.68-6l5.72-24h8.73Z"/><path d="M326.52,163.57c-.6-3.17-1.17-6.46-1.71-9.85s-1.05-6.78-1.54-10.14-.91-6.64-1.28-9.83-.7-6.19-1-9h9.35q.18,3.19.42,6.86c.17,2.45.37,4.91.59,7.4s.46,4.94.7,7.39.5,4.73.76,6.86q1.74-2.91,3.72-6.39c1.33-2.31,2.67-4.72,4-7.22s2.7-5,4-7.56,2.55-5,3.66-7.34h9.3q-2.13,4-4.65,8.68t-5.4,9.64q-2.88,5-6.1,10.16t-6.75,10.33Z"/><path d="M388.63,128.91c.07,1.53.17,3.27.3,5.21s.28,3.94.45,6,.34,4.13.53,6.18.38,4,.56,5.72q1.45-2.86,3-6.16c1-2.21,2-4.48,3-6.84s2-4.74,3-7.16,1.93-4.8,2.83-7.12h9.24q-4.36,10.65-8.9,20.25t-9.75,18.56h-8.17c-.3-2-.58-4-.82-5.91s-.46-3.74-.67-5.57-.39-3.67-.56-5.54-.33-3.81-.48-5.83q-3.18,5.94-6.3,11.62t-6.63,11.23h-8.18q-.45-5.2-.64-10.3t-.2-10.36c0-3,.06-6,.17-9s.26-6,.45-9.1h8.79c-.19,3.29-.36,6.51-.53,9.66s-.25,6.44-.25,9.83v3.87c0,1.3,0,2.61.11,3.92,1-1.83,2.15-3.77,3.3-5.83s2.3-4.1,3.42-6.16,2.18-4,3.19-6,1.87-3.65,2.58-5.18Z"/><path d="M432.19,163.57c-.52-1.6-1-3-1.43-4.25s-.84-2.38-1.23-3.45-.79-2.07-1.2-3-.86-1.95-1.35-3l-11.25,13.72h-10l17.64-21.11-7.9-17.7h9.64l4.64,12q2.52-3,4.88-6.13t4.31-5.86h9.57c-1.08,1.54-2.23,3.11-3.44,4.74s-2.46,3.24-3.75,4.87-2.59,3.21-3.89,4.76-2.58,3-3.81,4.39q1.17,2.64,2.21,5c.69,1.57,1.35,3.14,2,4.73s1.25,3.22,1.85,4.9,1.21,3.49,1.84,5.43Z"/><path d="M466.74,140.72c1.09-1.38,2.12-2.71,3.11-4s1.95-2.58,2.89-3.86,1.85-2.6,2.77-3.92,1.85-2.72,2.83-4.18H488q-2.36,3.31-4.54,6.28c-1.46,2-2.91,3.91-4.37,5.79s-2.95,3.76-4.48,5.63-3.15,3.79-4.87,5.77L466,163.57h-8.74L461,148.23q-2.34-5.94-4.25-11.59t-3.59-11.88h9.3q.9,4,2,7.9C465.1,135.24,465.88,137.92,466.74,140.72Z"/><path d="M521.23,130.81q-2.24,1.91-5.37,4.85T509.3,142q-3.41,3.45-6.83,7.14t-6.21,7.06h19.48L514,163.57H483.88l1.29-5.21c1.49-2,3.25-4.13,5.26-6.46s4.12-4.68,6.3-7,4.38-4.63,6.58-6.83,4.24-4.18,6.11-5.94H492.28l1.79-7.34h28.62Z"/><path d="M31.57,211.86a18.51,18.51,0,0,0-.44,6.41A23,23,0,0,0,32.41,224L25,225.08c-.22-.45-.42-.88-.61-1.29s-.38-.88-.56-1.4a15,15,0,0,1-3.47,2.13,10.45,10.45,0,0,1-4.26.84,10.8,10.8,0,0,1-4.79-1A9,9,0,0,1,8,221.74a10.44,10.44,0,0,1-1.82-3.86,18.87,18.87,0,0,1-.57-4.73A19.24,19.24,0,0,1,7,205.87a18.5,18.5,0,0,1,3.8-6,18,18,0,0,1,5.74-4,17.64,17.64,0,0,1,7.17-1.46q.51,0,1.77.06c.84,0,1.8.12,2.88.25a27.93,27.93,0,0,1,3.42.65,18,18,0,0,1,3.41,1.23Zm-5.82-10.3c-.49-.08-.93-.13-1.32-.17s-.87-.06-1.42-.06a7.06,7.06,0,0,0-3.56.95,10.41,10.41,0,0,0-2.89,2.5,11.9,11.9,0,0,0-1.93,3.55,12.94,12.94,0,0,0-.7,4.2,8.59,8.59,0,0,0,.9,4.26,3.48,3.48,0,0,0,3.3,1.57,5.21,5.21,0,0,0,2.33-.51,8.38,8.38,0,0,0,2.21-1.68c.07-.93.2-1.91.36-2.94s.35-2,.53-2.83Z"/><path d="M68.76,194.5a10.55,10.55,0,0,1,4.64.95A9.31,9.31,0,0,1,76.65,198a10.84,10.84,0,0,1,1.91,3.81,17.23,17.23,0,0,1,.61,4.7,18.76,18.76,0,0,1-1.43,7.31,19.06,19.06,0,0,1-3.89,6,18.23,18.23,0,0,1-5.82,4,17.82,17.82,0,0,1-7.28,1.49l-1.77,0a25.53,25.53,0,0,1-2.88-.25,33.6,33.6,0,0,1-3.44-.68,16.63,16.63,0,0,1-3.45-1.23l9.69-40.71,8.68-1.34-3.47,14.44a14.21,14.21,0,0,1,2.24-.78A9.72,9.72,0,0,1,68.76,194.5Zm-7.28,24a7.62,7.62,0,0,0,3.69-.95,9.9,9.9,0,0,0,3-2.55,13,13,0,0,0,2-3.61,12.44,12.44,0,0,0,.72-4.2A8.2,8.2,0,0,0,70,203a3.52,3.52,0,0,0-3.31-1.52,10.35,10.35,0,0,0-2,.28,5.07,5.07,0,0,0-2.27,1.18l-3.69,15.34.58.12.54.08a6.32,6.32,0,0,0,.67,0Z"/><path d="M95.41,212.81a20.69,20.69,0,0,1,1.23-7.17,17.64,17.64,0,0,1,3.53-5.88,16.5,16.5,0,0,1,5.57-4,17.84,17.84,0,0,1,7.31-1.46,19.32,19.32,0,0,1,4.51.48,18.22,18.22,0,0,1,3.61,1.26l-2.85,6.49c-.75-.29-1.52-.56-2.33-.81a10.35,10.35,0,0,0-2.94-.36,8.22,8.22,0,0,0-6.61,2.83,11.5,11.5,0,0,0-2.4,7.7,7.93,7.93,0,0,0,1.23,4.62q1.23,1.76,4.53,1.76a14.06,14.06,0,0,0,3.14-.34,14.7,14.7,0,0,0,2.69-.84l.61,6.67a29.08,29.08,0,0,1-3.44,1.09,18.64,18.64,0,0,1-4.56.48,15.23,15.23,0,0,1-5.88-1,11.12,11.12,0,0,1-4-2.72,10.37,10.37,0,0,1-2.27-4A16.34,16.34,0,0,1,95.41,212.81Z"/><path d="M144,225.36a10.89,10.89,0,0,1-4.78-1,8.7,8.7,0,0,1-3.25-2.6,10.9,10.9,0,0,1-1.85-3.86,18.54,18.54,0,0,1-.59-4.74,18.9,18.9,0,0,1,1.38-7.19,18.49,18.49,0,0,1,3.77-5.91,17.61,17.61,0,0,1,12.94-5.43,15.73,15.73,0,0,1,1.88.11,16.5,16.5,0,0,1,1.76.34l3-12.66,8.68-1.34-7.39,30.74a18.77,18.77,0,0,0-.45,6.41,23.43,23.43,0,0,0,1.29,5.74l-7.45,1.07c-.22-.45-.42-.88-.61-1.29s-.37-.88-.56-1.4a14.76,14.76,0,0,1-3.5,2.13A10.66,10.66,0,0,1,144,225.36Zm9.64-23.58-.59-.11a4.54,4.54,0,0,0-.51-.09l-.64,0h-1a7.4,7.4,0,0,0-3.64.92,9.27,9.27,0,0,0-2.88,2.49,12.35,12.35,0,0,0-1.88,3.56,12.52,12.52,0,0,0-.67,4.06,8.19,8.19,0,0,0,.93,4.23,3.56,3.56,0,0,0,3.33,1.54,5.39,5.39,0,0,0,2.35-.51,8.16,8.16,0,0,0,2.24-1.68q.1-1.39.36-2.94c.17-1,.35-2,.53-2.83Z"/><path d="M178.85,213a19.65,19.65,0,0,1,1.26-6.95,19,19,0,0,1,3.56-6,17.54,17.54,0,0,1,5.57-4.2,16.24,16.24,0,0,1,7.25-1.6,11.52,11.52,0,0,1,3.64.56,9,9,0,0,1,2.94,1.63,7.22,7.22,0,0,1,2,2.6,8.32,8.32,0,0,1,.7,3.5,9.61,9.61,0,0,1-1.4,5.32,10.56,10.56,0,0,1-3.89,3.56,19.37,19.37,0,0,1-5.91,2,41.11,41.11,0,0,1-7.45.62,5,5,0,0,0,1.71,3.33,7,7,0,0,0,4.17,1,21.56,21.56,0,0,0,3.64-.31,17.93,17.93,0,0,0,3.48-.92l.61,6.55a24.45,24.45,0,0,1-4,1.12,25.88,25.88,0,0,1-5.29.51,15.41,15.41,0,0,1-5.85-1,10,10,0,0,1-6-6.58A16.8,16.8,0,0,1,178.85,213Zm16.3-12.1a7,7,0,0,0-5,2,9.93,9.93,0,0,0-2.83,5.41,31.49,31.49,0,0,0,5.6-.59,12.1,12.1,0,0,0,3.3-1.15,3.73,3.73,0,0,0,1.57-1.45,3.53,3.53,0,0,0,.39-1.57C198.17,201.84,197.16,200.94,195.15,200.94Z"/><path d="M242.08,181.12a16,16,0,0,1,4.39.53,18.8,18.8,0,0,1,2.83,1l-2.8,6.55a8.9,8.9,0,0,0-2.32-.76,13.74,13.74,0,0,0-2.44-.25,6,6,0,0,0-4.56,1.57,8.49,8.49,0,0,0-2.05,3.92l-.33,1.46h9.85L243,202h-9.8l-3.41,14.28a58.71,58.71,0,0,1-4.15,12.46,18,18,0,0,1-4.93,6.47l-7.44-1.07a16.11,16.11,0,0,0,2.68-3.3,33.5,33.5,0,0,0,2.22-4.15,39.81,39.81,0,0,0,1.68-4.45c.46-1.51.85-2.92,1.14-4.23l5.83-24.41a17.18,17.18,0,0,1,5-9.19Q235.47,181.12,242.08,181.12Z"/><path d="M281.44,220.88a27,27,0,0,1-2.21,6.3,14.62,14.62,0,0,1-3.41,4.42,13.37,13.37,0,0,1-4.9,2.63,23,23,0,0,1-6.67.87,23.26,23.26,0,0,1-5.93-.64,24.55,24.55,0,0,1-4.37-1.6l2.8-6.61a29.83,29.83,0,0,0,3.61,1.35,16.48,16.48,0,0,0,4.62.56,8,8,0,0,0,5.4-1.6,7.41,7.41,0,0,0,2.38-4.12l.23-1.06a13.29,13.29,0,0,1-2.38.9,10.48,10.48,0,0,1-2.66.33,11.55,11.55,0,0,1-4.54-.81,8.1,8.1,0,0,1-3.11-2.27,9.64,9.64,0,0,1-1.79-3.44,15.33,15.33,0,0,1-.59-4.34,17.29,17.29,0,0,1,1.57-7.53,16.08,16.08,0,0,1,4.17-5.46,18.09,18.09,0,0,1,6-3.31,22.57,22.57,0,0,1,7.08-1.12,25.77,25.77,0,0,1,5.32.56,24.05,24.05,0,0,1,5.15,1.74Zm-3.69-19.32a10.42,10.42,0,0,0-2.35-.23,9.1,9.1,0,0,0-3.81.76,8.91,8.91,0,0,0-2.89,2,8.7,8.7,0,0,0-1.84,3.11,11.55,11.55,0,0,0-.65,3.89,10.11,10.11,0,0,0,.17,1.88,3.86,3.86,0,0,0,.62,1.51,3.16,3.16,0,0,0,1.23,1,4.36,4.36,0,0,0,2,.39,10.46,10.46,0,0,0,2.1-.28,5,5,0,0,0,2.38-1.29Z"/><path d="M320,194.61a11.22,11.22,0,0,1,4.15.7,7.6,7.6,0,0,1,2.85,2,8.17,8.17,0,0,1,1.68,3,12.27,12.27,0,0,1,.56,3.75,19.72,19.72,0,0,1-.56,4.65l-3.81,15.9H316.5L320.2,209q.21-.94.42-2a11.18,11.18,0,0,0,.19-2,4.07,4.07,0,0,0-.76-2.49,3.36,3.36,0,0,0-2.88-1,11.67,11.67,0,0,0-1.71.12c-.54.07-1.07.16-1.59.28l-5.43,22.73h-8.35l10.08-42.11,8.68-1.34-3.41,14c.74-.15,1.5-.28,2.26-.39A16,16,0,0,1,320,194.61Z"/><path d="M352.34,224.57h-8.29l7-29.45h8.34Zm4-33a5.16,5.16,0,0,1-3.14-1,3.7,3.7,0,0,1-1.4-3.17,5.2,5.2,0,0,1,.48-2.21,5.9,5.9,0,0,1,1.26-1.79,6,6,0,0,1,1.82-1.21,5.66,5.66,0,0,1,2.21-.44,5.16,5.16,0,0,1,3.14,1,3.7,3.7,0,0,1,1.4,3.17,5.2,5.2,0,0,1-.48,2.21,5.87,5.87,0,0,1-3.08,3A5.49,5.49,0,0,1,356.37,191.53Z"/><path d="M369.14,234.93a15.47,15.47,0,0,1-3.11-.31,18.12,18.12,0,0,1-2.77-.75l2.12-6.61a12.55,12.55,0,0,0,1.54.45,8.12,8.12,0,0,0,1.71.17,3.89,3.89,0,0,0,3-1.18,7.06,7.06,0,0,0,1.51-3.42L380,195.12h8.34l-6.83,28.39q-1.35,5.82-4.2,8.62C375.35,234,372.65,234.93,369.14,234.93Zm16.12-43.4a5.13,5.13,0,0,1-3.13-1,3.7,3.7,0,0,1-1.4-3.17,5.2,5.2,0,0,1,.48-2.21,5.71,5.71,0,0,1,1.25-1.79,6,6,0,0,1,1.83-1.21,5.59,5.59,0,0,1,2.21-.44,5.13,5.13,0,0,1,3.13,1,3.67,3.67,0,0,1,1.4,3.17,5.35,5.35,0,0,1-.47,2.21,5.9,5.9,0,0,1-1.26,1.79,6.06,6.06,0,0,1-1.82,1.2A5.51,5.51,0,0,1,385.26,191.53Z"/><path d="M413.6,205.76c2.24-1.8,4.35-3.62,6.33-5.49s3.68-3.59,5.09-5.15h9.41q-3.14,3.47-6.52,6.8T420.15,209a36.73,36.73,0,0,1,2.38,3.36c.81,1.27,1.57,2.6,2.3,4s1.4,2.78,2,4.2,1.13,2.76,1.54,4h-9.29c-.34-1-.76-2-1.26-3.19s-1.07-2.3-1.68-3.44-1.26-2.25-1.93-3.34a33.32,33.32,0,0,0-2-2.91l-3.14,12.88h-8.28l10.08-42.11,8.68-1.34Z"/><path d="M456.72,225.13a15.33,15.33,0,0,1-6.24-1,6.68,6.68,0,0,1-3.25-2.83,8.17,8.17,0,0,1-1-4.12,23,23,0,0,1,.64-5L454,182.46l8.68-1.34-7.78,32.25a10.18,10.18,0,0,0-.25,1.85,2.93,2.93,0,0,0,.3,1.48,2.45,2.45,0,0,0,1.15,1,6.43,6.43,0,0,0,2.27.5Z"/><path d="M481.25,196.46c.63-.19,1.31-.4,2-.64a24.54,24.54,0,0,1,2.47-.68,30.57,30.57,0,0,1,3.08-.5,34.9,34.9,0,0,1,3.94-.2,12.54,12.54,0,0,1,4.45.68,10,10,0,0,1,3.23,2,28.09,28.09,0,0,1,4.11-1.93,13.87,13.87,0,0,1,4.79-.76,13.11,13.11,0,0,1,4.51.7,8,8,0,0,1,3.1,2,7.91,7.91,0,0,1,1.8,3.14,13.62,13.62,0,0,1,.56,4,18,18,0,0,1-.14,2.13,22,22,0,0,1-.42,2.24L515,224.57h-8.34L510.31,209c.11-.52.23-1.11.36-1.76a9.88,9.88,0,0,0,.2-1.93,4.94,4.94,0,0,0-.73-2.72,3.12,3.12,0,0,0-2.85-1.15,6,6,0,0,0-2.24.42,18.24,18.24,0,0,0-1.91.87,3.27,3.27,0,0,1,.12.84v.73a18,18,0,0,1-.14,2.13,22,22,0,0,1-.42,2.24l-3.81,15.9h-8.35l3.7-15.57c.11-.52.23-1.11.36-1.76a9.88,9.88,0,0,0,.2-1.93,4.94,4.94,0,0,0-.73-2.72,3.14,3.14,0,0,0-2.86-1.15,10.73,10.73,0,0,0-1.51.09c-.41.05-.89.14-1.45.25l-5.44,22.79h-8.34Z"/><path d="M10.74,257.46l2.1-.64c.77-.25,1.62-.47,2.58-.68s2-.37,3.19-.5a36.7,36.7,0,0,1,4-.2q6.62,0,9.08,3.81t.84,10.42l-3.81,15.9H20.37L24.07,270c.22-1,.4-1.91.53-2.82a6.87,6.87,0,0,0,0-2.41,2.85,2.85,0,0,0-1-1.68,4,4,0,0,0-2.49-.65,17.14,17.14,0,0,0-3.31.34l-5.43,22.79H4Z"/><path d="M58.62,286.36a13.43,13.43,0,0,1-5.15-.9,9.55,9.55,0,0,1-3.61-2.52,10.79,10.79,0,0,1-2.16-3.84,15.42,15.42,0,0,1-.73-4.9,21.87,21.87,0,0,1,1.09-6.72,19.39,19.39,0,0,1,3.22-6,17.19,17.19,0,0,1,5.21-4.4,14.33,14.33,0,0,1,7.06-1.71,13.49,13.49,0,0,1,5.12.9,9.51,9.51,0,0,1,3.64,2.52,11,11,0,0,1,2.16,3.83,15.8,15.8,0,0,1,.73,4.9,22.14,22.14,0,0,1-1.07,6.72A19.44,19.44,0,0,1,71,280.25a16.63,16.63,0,0,1-5.18,4.4A14.74,14.74,0,0,1,58.62,286.36Zm4.14-24a5.19,5.19,0,0,0-3.24,1.06,9.18,9.18,0,0,0-2.36,2.69,13.12,13.12,0,0,0-1.42,3.56,15.16,15.16,0,0,0-.48,3.66,8.81,8.81,0,0,0,.9,4.4,3.42,3.42,0,0,0,3.24,1.54,5.19,5.19,0,0,0,3.25-1.06A9,9,0,0,0,65,275.55,13.14,13.14,0,0,0,66.43,272a15.24,15.24,0,0,0,.48-3.67,8.79,8.79,0,0,0-.9-4.39A3.43,3.43,0,0,0,62.76,262.39Z"/><path d="M117.14,267.6a20.22,20.22,0,0,1-1.34,7.47,17.7,17.7,0,0,1-3.73,5.85,16.52,16.52,0,0,1-5.71,3.84,19,19,0,0,1-7.25,1.37,22.28,22.28,0,0,1-3.81-.33l-2.52,10.13H84.49l9.3-38.75a47,47,0,0,1,5.12-1.2,34,34,0,0,1,6.25-.54,13.79,13.79,0,0,1,5.4,1,10,10,0,0,1,3.72,2.6,10.68,10.68,0,0,1,2.16,3.86A15.57,15.57,0,0,1,117.14,267.6ZM96.81,279.08a10.48,10.48,0,0,0,2.35.22,9.57,9.57,0,0,0,4-.81,8.8,8.8,0,0,0,3-2.27,10.54,10.54,0,0,0,2-3.5,13.72,13.72,0,0,0,.7-4.51,7.5,7.5,0,0,0-1.06-4.09,4,4,0,0,0-3.7-1.68,16.35,16.35,0,0,0-3.36.34Z"/><path d="M130.63,274.15a19.75,19.75,0,0,1,1.49-7.84,16.84,16.84,0,0,1,4.09-5.88,18.05,18.05,0,0,1,6.07-3.7,21.42,21.42,0,0,1,7.51-1.29,28.74,28.74,0,0,1,10.69,2.19l-9.13,38.3H143l2.58-10.86a12.63,12.63,0,0,1-5,1.06,9.59,9.59,0,0,1-4-.81,8.71,8.71,0,0,1-3.14-2.35,11.44,11.44,0,0,1-2.07-3.78A15.79,15.79,0,0,1,130.63,274.15ZM151,262.56a10.81,10.81,0,0,0-1.18-.17q-.61-.06-1.23-.06a9,9,0,0,0-4.09.9,9.38,9.38,0,0,0-3.05,2.43,10.74,10.74,0,0,0-1.9,3.59,14.13,14.13,0,0,0-.65,4.28c0,2.13.36,3.61,1.07,4.43a3.65,3.65,0,0,0,2.91,1.23,7.17,7.17,0,0,0,2.1-.31,10,10,0,0,0,2.32-1.09Z"/><path d="M193.13,263.28l-2.21-.53a15.26,15.26,0,0,0-3.22-.25,12.66,12.66,0,0,0-1.74.14,13.59,13.59,0,0,0-1.57.31L179,285.57h-8.34l6.72-27.89c1.6-.52,3.41-1,5.4-1.48a29.6,29.6,0,0,1,6.75-.7,21.23,21.23,0,0,1,3.11.25,11.91,11.91,0,0,1,3,.81Z"/><path d="M213.63,279.64a6.73,6.73,0,0,0,3.92-.82,2.26,2.26,0,0,0,1.06-1.76,2.48,2.48,0,0,0-.2-1.06,2.36,2.36,0,0,0-.64-.84,6.86,6.86,0,0,0-1.23-.82c-.53-.28-1.2-.6-2-1a28,28,0,0,1-2.63-1.31,9.47,9.47,0,0,1-2.16-1.68,7.44,7.44,0,0,1-1.45-2.24,7.59,7.59,0,0,1-.53-3,8.66,8.66,0,0,1,3.33-7.17q3.33-2.62,9.71-2.63a19.94,19.94,0,0,1,5.38.67,19.68,19.68,0,0,1,3.81,1.46l-2.86,6.22a17.32,17.32,0,0,0-3-1.18,12.63,12.63,0,0,0-3.64-.56,15.4,15.4,0,0,0-1.54.08,4.81,4.81,0,0,0-1.4.37,2.67,2.67,0,0,0-1,.78,2.16,2.16,0,0,0-.39,1.35,1.88,1.88,0,0,0,.87,1.68c.58.37,1.39.82,2.43,1.34,1.46.71,2.67,1.36,3.64,2a10,10,0,0,1,2.33,1.9,6.31,6.31,0,0,1,1.26,2.3,10.49,10.49,0,0,1,.39,3,8.63,8.63,0,0,1-.76,3.53,8.1,8.1,0,0,1-2.38,3.08,12.65,12.65,0,0,1-4.14,2.19,19.25,19.25,0,0,1-6,.84,26.29,26.29,0,0,1-4-.28,22.47,22.47,0,0,1-3.1-.7,16,16,0,0,1-2.27-.87c-.62-.3-1.09-.54-1.43-.73l2.86-6.38a26.4,26.4,0,0,0,3,1.4A12.7,12.7,0,0,0,213.63,279.64Z"/><path d="M248.68,248.78l8.68-1.34-2.13,8.68h9.3L262.85,263h-9.24l-2.46,10.3a12.6,12.6,0,0,0-.42,2.41,3.81,3.81,0,0,0,.28,1.93,2.57,2.57,0,0,0,1.26,1.26,5.51,5.51,0,0,0,2.46.45,13,13,0,0,0,2.6-.25,19.43,19.43,0,0,0,2.55-.7l.62,6.38a30.7,30.7,0,0,1-3.64,1.07,21.73,21.73,0,0,1-4.65.44,12.86,12.86,0,0,1-6-1.14,6.66,6.66,0,0,1-3-3.14,9.94,9.94,0,0,1-.78-4.56,29.7,29.7,0,0,1,.78-5.44Z"/><path d="M304.4,256.12l-4,16.74a18.51,18.51,0,0,0-.44,6.41,22.54,22.54,0,0,0,1.29,5.74l-7.45,1.07a26.71,26.71,0,0,1-1.18-2.75,15.53,15.53,0,0,1-3.53,2.07,10.94,10.94,0,0,1-4.36.84,10.47,10.47,0,0,1-5.35-1.2,7.66,7.66,0,0,1-3-3.19,10.73,10.73,0,0,1-1.1-4.57,19.22,19.22,0,0,1,.59-5.26l3.81-15.9H288l-3.75,15.79c-.19.82-.34,1.66-.47,2.52a7.64,7.64,0,0,0,0,2.38,3.1,3.1,0,0,0,.87,1.79,3,3,0,0,0,2.21.7,5.85,5.85,0,0,0,2.38-.48,8.1,8.1,0,0,0,2.32-1.65q.12-1.4.36-2.94c.17-1,.35-2,.54-2.83l3.64-15.28Z"/><path d="M323,285.57q-1.46-5.6-2.63-13.07a158.23,158.23,0,0,1-1.62-16.38h8.62c0,1.45.09,3.05.17,4.78s.17,3.49.28,5.24.24,3.46.39,5.12.32,3.17.5,4.51c.83-1.12,1.75-2.5,2.78-4.14s2-3.36,3-5.15,1.87-3.6,2.69-5.41a38.93,38.93,0,0,0,1.9-4.95h8.85a72,72,0,0,1-3.61,8.17q-2.16,4.2-4.62,8.12t-5,7.34q-2.55,3.42-4.73,5.82Z"/><path d="M378.88,268.32c-.71,1.54-1.5,3.09-2.38,4.68s-1.77,3.14-2.69,4.65-1.8,3-2.66,4.31-1.62,2.57-2.29,3.61h-6.5c-.3-1.57-.61-3.43-.92-5.6s-.63-4.52-.93-7.08-.57-5.27-.81-8.12-.42-5.74-.53-8.65h8.17c0,1.34,0,2.8,0,4.36s.06,3.2.11,4.88.14,3.39.26,5.15.26,3.49.44,5.21c.94-1.57,1.86-3.2,2.78-4.9s1.79-3.4,2.63-5.1,1.62-3.37,2.35-5,1.37-3.17,1.93-4.59h6.95c0,2.68,0,5.69.14,9s.32,6.85.7,10.59c1-1.68,1.94-3.41,2.8-5.18s1.65-3.52,2.38-5.24,1.38-3.36,2-4.93,1.09-3,1.54-4.25h8.84q-1.11,2.79-2.66,6.3c-1,2.33-2.21,4.78-3.55,7.36s-2.86,5.21-4.54,7.9a85.46,85.46,0,0,1-5.6,7.89h-6.49q-.68-4.59-1-8.79C379.1,274,379,271.16,378.88,268.32Z"/><path d="M422.9,256.12l4.25,9.18c1.27-1.57,2.48-3.1,3.61-4.59s2.23-3,3.28-4.59h8.34q-2.34,3.36-5.15,7t-6.49,7.53q2.24,4.2,3.8,7.76t2.8,7.19h-8.23q-1-2.74-2-5t-2-4.25L417,285.57h-8.74l13.38-15-7.22-14.44Z"/><path d="M482.87,256.12c-1,2.83-2.1,5.48-3.16,7.95s-2.18,4.81-3.33,7-2.36,4.34-3.59,6.35-2.54,4-3.92,6c-1,1.46-2.05,2.93-3.13,4.43a25.88,25.88,0,0,1-3.62,4,17.36,17.36,0,0,1-4.42,2.91,13.28,13.28,0,0,1-5.63,1.12,13.61,13.61,0,0,1-3.36-.36,13.32,13.32,0,0,1-2.63-1L448.6,288c.75.29,1.42.53,2,.7a8.43,8.43,0,0,0,2.18.25,6.27,6.27,0,0,0,3.72-1.26,10,10,0,0,0,2.94-3.39q-1.45-5.59-2.66-12.54a133,133,0,0,1-1.65-15.68h8.57c0,1.45.11,3.06.22,4.81s.25,3.52.4,5.29.31,3.5.5,5.18.39,3.2.62,4.54a52.61,52.61,0,0,0,4.73-9c1.36-3.28,2.64-6.91,3.83-10.86Z"/><path d="M519.44,261.66c-.86.75-2,1.76-3.36,3s-2.87,2.71-4.48,4.26-3.25,3.17-4.93,4.87-3.25,3.33-4.7,4.9h13.66L514,285.57H490.21l1.17-4.87q1.64-2,3.73-4.37c1.4-1.57,2.85-3.15,4.37-4.76s3-3.14,4.53-4.62,2.92-2.81,4.23-4h-12l1.68-6.83h22.84Z"/><path d="M11.25,315.83c1.19-.45,2.44-1,3.75-1.54s2.6-1.21,3.89-1.91,2.55-1.41,3.78-2.18A27.37,27.37,0,0,0,26,307.76h5.82L22.5,346.57H14.16l6.72-27.94a33.63,33.63,0,0,1-4.26,2c-1.53.62-3,1.15-4.37,1.6Z"/><path d="M70.83,306.87a11.64,11.64,0,0,1,4.17.73,10.59,10.59,0,0,1,3.36,2,8.9,8.9,0,0,1,2.21,2.94,8.29,8.29,0,0,1,.79,3.59,14.75,14.75,0,0,1-.45,3.81,10.58,10.58,0,0,1-1.51,3.24,19.12,19.12,0,0,1-2.83,3.2c-1.18,1.08-2.62,2.29-4.34,3.64-1,.78-2,1.53-3,2.24s-2,1.43-3,2.18-2,1.54-2.88,2.38a22.29,22.29,0,0,0-2.63,2.83H77.32l-1.68,6.94H49.83a19.78,19.78,0,0,1,4.79-10.78,30.68,30.68,0,0,1,4.11-3.92q2.3-1.81,5-3.89c1.68-1.31,3.1-2.44,4.28-3.39A25.77,25.77,0,0,0,70.86,322a9.27,9.27,0,0,0,1.59-2.27,5.1,5.1,0,0,0,.51-2.24,3.21,3.21,0,0,0-1-2.43,3.69,3.69,0,0,0-2.66-1,10.75,10.75,0,0,0-4.48,1A24.49,24.49,0,0,0,60,318l-2.86-6.11A21.5,21.5,0,0,1,63.88,308,21.8,21.8,0,0,1,70.83,306.87Z"/><path d="M119.44,326a8.09,8.09,0,0,1,3.64,3.45,10.38,10.38,0,0,1,1.28,5.07,11.8,11.8,0,0,1-1,4.59,11.32,11.32,0,0,1-3,4.14,16,16,0,0,1-5.27,3,22.82,22.82,0,0,1-7.67,1.15A24.61,24.61,0,0,1,96,344.72l3-6.6a14.07,14.07,0,0,0,4,1.82,17.8,17.8,0,0,0,4.93.7,14,14,0,0,0,3.05-.34,7.2,7.2,0,0,0,2.6-1.12,5.63,5.63,0,0,0,1.79-2,6.19,6.19,0,0,0,.68-3,3.84,3.84,0,0,0-1.88-3.47,9.29,9.29,0,0,0-5-1.18H105.6l1.63-6.61h4a14.22,14.22,0,0,0,2.46-.22,7.58,7.58,0,0,0,2.36-.81,5.31,5.31,0,0,0,1.76-1.57,4.25,4.25,0,0,0,.7-2.55,3.26,3.26,0,0,0-1.34-2.88,6.11,6.11,0,0,0-3.53-.93,13.78,13.78,0,0,0-3.84.62,23.9,23.9,0,0,0-4.34,1.79l-2.13-6.27a25,25,0,0,1,5.66-2.38,22.47,22.47,0,0,1,6-.81,15.33,15.33,0,0,1,5.21.81,11.05,11.05,0,0,1,3.72,2.16,8.55,8.55,0,0,1,2.21,3.05,8.75,8.75,0,0,1,.73,3.5,9,9,0,0,1-.48,2.88,9.47,9.47,0,0,1-1.4,2.69,10.5,10.5,0,0,1-2.35,2.3A13,13,0,0,1,119.44,326Z"/><path d="M175,307.76l-5.65,23.41h4.09l-1.63,6.72h-4.14l-2.13,8.68h-8l2.07-8.68H143.07l1.4-6.16q1.78-2.46,4.37-5.57t5.6-6.36q3-3.24,6.27-6.38t6.38-5.66Zm-10.24,9.86c-1,.93-2,1.94-3.06,3s-2.13,2.22-3.22,3.39-2.13,2.37-3.16,3.59-2,2.4-2.88,3.55h9.07Z"/><path d="M192.35,338a16.67,16.67,0,0,0,4.2,1.79,16.26,16.26,0,0,0,4.31.62,10.55,10.55,0,0,0,6.16-1.52,5.36,5.36,0,0,0,2.13-4.7,4.35,4.35,0,0,0-.73-2.44,5.59,5.59,0,0,0-2.35-1.84,16.31,16.31,0,0,0-4.34-1.18,44.44,44.44,0,0,0-6.64-.42q1.84-5.2,3.53-10.5t3-10h20.72l-1.68,6.95H206.8c-.38,1.34-.78,2.7-1.21,4.06s-.81,2.51-1.15,3.44a20.23,20.23,0,0,1,5.8,1.26,12.9,12.9,0,0,1,4,2.49,9.69,9.69,0,0,1,2.38,3.45,10.9,10.9,0,0,1,.79,4.11,15.21,15.21,0,0,1-1,5.72,11.23,11.23,0,0,1-3.11,4.36,14.51,14.51,0,0,1-5.15,2.78,23.59,23.59,0,0,1-7.11,1,25.17,25.17,0,0,1-2.69-.17c-1-.11-2-.27-3.11-.48a24,24,0,0,1-3.13-.81,18.79,18.79,0,0,1-2.83-1.18Z"/><path d="M267.5,314c-2.32.07-4.47.24-6.47.5a20.68,20.68,0,0,0-5.49,1.46,14.56,14.56,0,0,0-4.36,2.85,13.93,13.93,0,0,0-3.11,4.65,12,12,0,0,1,3.39-1.15,19.69,19.69,0,0,1,3.61-.36,11.54,11.54,0,0,1,3.89.64,8.88,8.88,0,0,1,3.19,2,9.24,9.24,0,0,1,2.16,3.28,12.22,12.22,0,0,1,.78,4.53,16.42,16.42,0,0,1-1.17,6.42,13.77,13.77,0,0,1-3.2,4.67,13.57,13.57,0,0,1-4.7,2.89,16.47,16.47,0,0,1-5.66,1,12.94,12.94,0,0,1-4.87-.9,11.09,11.09,0,0,1-3.89-2.6,12.1,12.1,0,0,1-2.6-4.26,16.72,16.72,0,0,1-1-5.91,28.72,28.72,0,0,1,1.68-9.66,23.88,23.88,0,0,1,5.16-8.43,25.61,25.61,0,0,1,8.79-6,32,32,0,0,1,12.6-2.27h1c.4,0,.8,0,1.21.06ZM257.14,333c0-1.79-.49-3-1.46-3.69a6,6,0,0,0-3.47-1,11.62,11.62,0,0,0-2.83.36,22.43,22.43,0,0,0-2.66.87,13.57,13.57,0,0,0-.72,4.37,8.43,8.43,0,0,0,1.23,4.62,4.19,4.19,0,0,0,3.81,1.93,5.55,5.55,0,0,0,4.39-2A8.06,8.06,0,0,0,257.14,333Z"/><path d="M286.15,346.57a51.93,51.93,0,0,1,3.08-8.59,86.24,86.24,0,0,1,4.53-8.68,91.41,91.41,0,0,1,5.32-8,70.73,70.73,0,0,1,5.43-6.5H287.66l1.73-7.06h27.16l-1.45,6.05A47.5,47.5,0,0,0,310,319a84.91,84.91,0,0,0-5.91,7.81,88.9,88.9,0,0,0-5.54,9.47,53.35,53.35,0,0,0-4,10.27Z"/><path d="M330.22,337.78a11.1,11.1,0,0,1,.47-3.22,10.75,10.75,0,0,1,1.52-3,15.11,15.11,0,0,1,2.66-2.82,31.49,31.49,0,0,1,3.92-2.78,11.91,11.91,0,0,1-2.27-2.94,8,8,0,0,1-.93-4,12.51,12.51,0,0,1,.82-4.37,11.07,11.07,0,0,1,2.52-3.92,12.73,12.73,0,0,1,4.28-2.8,15.92,15.92,0,0,1,6.1-1.06,13.66,13.66,0,0,1,4.37.67,10.52,10.52,0,0,1,3.47,1.88,8.61,8.61,0,0,1,3.14,6.74,12.83,12.83,0,0,1-.28,2.61,8.58,8.58,0,0,1-1.12,2.74,12.72,12.72,0,0,1-2.38,2.77,17.18,17.18,0,0,1-4.06,2.64,16.67,16.67,0,0,1,1.79,1.45,8.73,8.73,0,0,1,1.46,1.79,9.44,9.44,0,0,1,1,2.24,10.06,10.06,0,0,1,.36,2.8,11.66,11.66,0,0,1-1,4.74,11.06,11.06,0,0,1-2.85,3.86,13.53,13.53,0,0,1-4.68,2.6,19.62,19.62,0,0,1-6.38,1,19,19,0,0,1-4.2-.48,11.35,11.35,0,0,1-3.84-1.62,9.37,9.37,0,0,1-2.8-3A8.61,8.61,0,0,1,330.22,337.78ZM349,335.43a4.81,4.81,0,0,0-.39-2,5.86,5.86,0,0,0-1.1-1.6,8.51,8.51,0,0,0-1.62-1.31c-.62-.39-1.28-.78-2-1.15a13.71,13.71,0,0,0-2.83,1.76,9.89,9.89,0,0,0-1.73,1.88,5.85,5.85,0,0,0-.87,1.9,8.11,8.11,0,0,0-.22,1.85,3.35,3.35,0,0,0,1.37,2.94,5.51,5.51,0,0,0,3.33,1,7.24,7.24,0,0,0,2.27-.36,6.08,6.08,0,0,0,1.93-1,5,5,0,0,0,1.34-1.65A4.71,4.71,0,0,0,349,335.43Zm-5.71-16.91a4.31,4.31,0,0,0,1.12,3,11.87,11.87,0,0,0,2.68,2.18,10.22,10.22,0,0,0,4.34-3.16,5.83,5.83,0,0,0,1.1-3.22,3.6,3.6,0,0,0-1.12-2.8,4.46,4.46,0,0,0-3.08-1,4.8,4.8,0,0,0-3.67,1.46A4.94,4.94,0,0,0,343.27,318.52Z"/><path d="M376.75,340.13a51.46,51.46,0,0,0,6.47-.47,21.48,21.48,0,0,0,5.49-1.49,14.61,14.61,0,0,0,4.37-2.85,14.24,14.24,0,0,0,3.11-4.65,12.07,12.07,0,0,1-3.39,1.15,19.78,19.78,0,0,1-3.61.36,11.6,11.6,0,0,1-3.9-.64,9,9,0,0,1-3.19-2,9.28,9.28,0,0,1-2.15-3.25,12,12,0,0,1-.79-4.57,16.27,16.27,0,0,1,1.18-6.38,13.33,13.33,0,0,1,7.89-7.59,16.51,16.51,0,0,1,5.66-1,13,13,0,0,1,4.84.9,10.94,10.94,0,0,1,3.92,2.6,12.12,12.12,0,0,1,2.61,4.26,17,17,0,0,1,.95,5.91,28.72,28.72,0,0,1-1.68,9.66,23.87,23.87,0,0,1-5.15,8.42,25.69,25.69,0,0,1-8.79,6A32,32,0,0,1,378,346.8h-1q-.58,0-1.2-.06Zm10.36-18.93c0,1.8.49,3,1.46,3.7a6,6,0,0,0,3.47,1,11.11,11.11,0,0,0,2.83-.37,20.75,20.75,0,0,0,2.66-.86,13.58,13.58,0,0,0,.73-4.37,8.43,8.43,0,0,0-1.23-4.62,4.19,4.19,0,0,0-3.81-1.93,5.57,5.57,0,0,0-4.4,2A8,8,0,0,0,387.11,321.2Z"/><path d="M430.35,337a5,5,0,0,1,3.27,1.09,4.21,4.21,0,0,1,1.32,3.44,5.61,5.61,0,0,1-.48,2.35,5.8,5.8,0,0,1-1.26,1.82,5.63,5.63,0,0,1-1.79,1.18,5.32,5.32,0,0,1-2.07.42,5,5,0,0,1-3.28-1.09,4.23,4.23,0,0,1-1.31-3.45,5.67,5.67,0,0,1,.47-2.35,5.92,5.92,0,0,1,1.26-1.82,5.78,5.78,0,0,1,1.79-1.17A5.4,5.4,0,0,1,430.35,337Zm3.86-13.22c1.12-.86,2.07-1.6,2.86-2.24a19.61,19.61,0,0,0,1.93-1.76,7.23,7.23,0,0,0,1.12-1.54,3.4,3.4,0,0,0,.36-1.52,2.33,2.33,0,0,0-1-2.12,4.71,4.71,0,0,0-2.61-.68,12.52,12.52,0,0,0-2.13.2,17.76,17.76,0,0,0-2.18.53c-.71.23-1.38.47-2,.73s-1.19.52-1.68.78l-1.06-6.55a22.58,22.58,0,0,1,10.69-2.74,14.87,14.87,0,0,1,3.87.5,9.87,9.87,0,0,1,3.25,1.54,7.84,7.84,0,0,1,2.24,2.58,7.3,7.3,0,0,1,.84,3.55,10.61,10.61,0,0,1-.76,4.2,12.51,12.51,0,0,1-1.93,3.2,16.88,16.88,0,0,1-2.66,2.54l-2.94,2.27a38.14,38.14,0,0,0-3.75,3.25,5.75,5.75,0,0,0-1.79,3.7h-7.4A9.42,9.42,0,0,1,428,331a10.71,10.71,0,0,1,1.46-2.68,17.54,17.54,0,0,1,2.16-2.36C432.4,325.22,433.28,324.49,434.21,323.78Z"/><path d="M466.63,337a4.87,4.87,0,0,1,3.28,1.12,4.21,4.21,0,0,1,1.31,3.41,5.61,5.61,0,0,1-.47,2.35,5.8,5.8,0,0,1-1.26,1.82,5.63,5.63,0,0,1-1.79,1.18,5.36,5.36,0,0,1-2.07.42,4.87,4.87,0,0,1-3.28-1.12,4.23,4.23,0,0,1-1.32-3.42,5.68,5.68,0,0,1,.48-2.35,5.92,5.92,0,0,1,1.26-1.82,5.78,5.78,0,0,1,1.79-1.17A5.32,5.32,0,0,1,466.63,337ZM476,317.79q-1.12,4.53-2.38,8.45t-2.77,8h-6.38c.29-2.69.63-5.34,1-8s.92-5.43,1.63-8.45l2.41-10h8.9Z"/><path d="M508.58,316.56a15,15,0,0,1,1.4-1.1l1.71-1.17a18.77,18.77,0,0,1,1.76-1.07,11.51,11.51,0,0,1,1.57-.7l1.34-.44L518.6,319l-1.34.45a9.26,9.26,0,0,1-1.68.33,18.31,18.31,0,0,1-2,.14l-2.07,0H509.7c.44.3.94.65,1.48,1s1.08.8,1.62,1.23,1.06.87,1.54,1.32a8.45,8.45,0,0,1,1.18,1.28l.9,1.18-5.94,4.2-.84-1.12a7.11,7.11,0,0,1-.87-1.46c-.28-.59-.55-1.22-.81-1.87a20.17,20.17,0,0,1-.67-1.93c-.19-.64-.36-1.22-.5-1.74-.16.52-.32,1.1-.51,1.74s-.41,1.28-.67,1.93-.53,1.28-.81,1.87a7.11,7.11,0,0,1-.87,1.46l-.84,1.12-5.94-4.2.9-1.18a8.89,8.89,0,0,1,1.17-1.28c.49-.45,1-.89,1.55-1.32s1.08-.84,1.62-1.23,1-.74,1.48-1h-1.79l-2.07,0a18.31,18.31,0,0,1-2-.14,9.26,9.26,0,0,1-1.68-.33L495,319l2.24-6.94,1.34.44a11.51,11.51,0,0,1,1.57.7,18.77,18.77,0,0,1,1.76,1.07q.87.58,1.68,1.17c.55.4,1,.76,1.43,1.1-.18-.49-.38-1.06-.59-1.71s-.4-1.32-.58-2-.35-1.33-.48-2a8.91,8.91,0,0,1-.2-1.71v-1.4h7.28v1.4a8.82,8.82,0,0,1-.19,1.71c-.13.66-.29,1.32-.48,2s-.38,1.34-.58,2S508.76,316.07,508.58,316.56Z"/></g></g></svg>